<svg xmlns="http://www.w3.org/2000/svg" xmlns:xlink="http://www.w3.org/1999/xlink" id="Layer_2" height="70" viewBox="0 0 128 128" width="70" data-name="Layer 2"><linearGradient id="linear-gradient" gradientUnits="userSpaceOnUse" x1="64" x2="64" y1="131.68" y2="54.3"><stop offset="0" stop-color="#00c6ff"></stop><stop offset="1" stop-color="#0072ff"></stop></linearGradient><linearGradient id="linear-gradient-2" gradientUnits="userSpaceOnUse" x1="17.62" x2="117.35" y1="-14.26" y2="119.49"><stop offset="0" stop-color="#fdc830"></stop><stop offset="1" stop-color="#f37335"></stop></linearGradient><linearGradient id="linear-gradient-3" x1="95.58" x2="139.85" xlink:href="#linear-gradient-2" y1="74.53" y2="111.81"></linearGradient><g id="Certificate"><path d="m101.82 98.33c-18.6-32.23-17.23-30.33-18.4-30.67a2 2 0 0 0 -1.54.23 6.13 6.13 0 0 1 -3.92.88 10.17 10.17 0 0 0 -9.09 3.77c-1.87 2.38-3.87 2.03-4.87 2.46-1-.42-3-.07-4.87-2.45a10.19 10.19 0 0 0 -9.13-3.78 6.15 6.15 0 0 1 -3.92-.88 2 2 0 0 0 -1.54-.23c-1.17.29.2-1.55-18.4 30.67a2 2 0 0 0 2.25 2.93l11.27-3 3 11.28a2 2 0 0 0 3.66.48l17.68-30.52 17.61 30.5a2 2 0 0 0 3.66-.48l3-11.28 11.27 3a2 2 0 0 0 2.28-2.91z" fill="url(#linear-gradient)"></path><path d="m91.11 40a6.21 6.21 0 0 1 -2.3-5.54 10.24 10.24 0 0 0 -11.29-11.34 6.26 6.26 0 0 1 -5.52-2.29 10.23 10.23 0 0 0 -16 0 6.25 6.25 0 0 1 -5.54 2.29 10.24 10.24 0 0 0 -11.27 11.29 6.21 6.21 0 0 1 -2.3 5.59 10.25 10.25 0 0 0 0 16 6.21 6.21 0 0 1 2.3 5.54 10.24 10.24 0 0 0 11.29 11.21 6.23 6.23 0 0 1 5.52 2.25 10.23 10.23 0 0 0 16 0 6.24 6.24 0 0 1 5.54-2.29 10.25 10.25 0 0 0 11.27-11.25 6.21 6.21 0 0 1 2.3-5.54 10.25 10.25 0 0 0 0-15.92z" fill="url(#linear-gradient-2)"></path><path d="m64 30.46a17.48 17.48 0 1 0 17.47 17.47 17.49 17.49 0 0 0 -17.47-17.47z" fill="url(#linear-gradient-3)"></path><g fill="#fff"><path d="m67 36.08a.9.9 0 0 1 -.23 0 11.91 11.91 0 0 0 -2.77-.33 1 1 0 0 1 0-2 14.16 14.16 0 0 1 3.18.36 1 1 0 0 1 -.22 2z"></path><path d="m77.18 48.93a1 1 0 0 1 -1-1 12.22 12.22 0 0 0 -6.09-10.54 1 1 0 0 1 1-1.74 14.25 14.25 0 0 1 7.09 12.28 1 1 0 0 1 -1 1z"></path></g></g></svg>