<svg xmlns="http://www.w3.org/2000/svg" width="640" height="519" viewBox="0 0 640 519">
  <g id="Group_17353" data-name="Group 17353" transform="translate(-1981 -533)">
    <rect id="Rectangle_8300" data-name="Rectangle 8300" width="640" height="519" rx="5" transform="translate(1981 533)" fill="#fff"/>
    <g id="Group_17357" data-name="Group 17357">
      <g id="Group_17356" data-name="Group 17356" transform="translate(3 -9)">
        <rect id="Rectangle_7808" data-name="Rectangle 7808" width="57" height="42" rx="21" transform="translate(2048 612)" fill="#f5f6f8"/>
        <rect id="Rectangle_7808-2" data-name="Rectangle 7808" width="66" height="43" rx="21" transform="translate(2048 665)" fill="#f5f6f8"/>
        <path id="Path_20634" data-name="Path 20634" d="M20.972,0H93.608a20.972,20.972,0,0,1,0,41.945H20.972A20.972,20.972,0,0,1,20.972,0Z" transform="translate(2048 719.419)" fill="#ffd065"/>
        <rect id="Rectangle_7808-3" data-name="Rectangle 7808" width="77" height="42" rx="21" transform="translate(2174 719)" fill="#f5f6f8"/>
        <rect id="Rectangle_7808-4" data-name="Rectangle 7808" width="85" height="42" rx="21" transform="translate(2262 719)" fill="#f5f6f8"/>
        <g id="Group_17272" data-name="Group 17272" transform="translate(2476.654 771.594)">
          <rect id="Rectangle_7808-5" data-name="Rectangle 7808" width="73" height="42" rx="21" transform="translate(0.346 0.406)" fill="#f5f6f8"/>
        </g>
        <rect id="Rectangle_7808-6" data-name="Rectangle 7808" width="72" height="42" rx="21" transform="translate(2048 773)" fill="#f5f6f8"/>
        <rect id="Rectangle_7808-7" data-name="Rectangle 7808" width="76" height="42" rx="21" transform="translate(2048 827)" fill="#f5f6f8"/>
        <rect id="Rectangle_7808-8" data-name="Rectangle 7808" width="76" height="42" rx="21" transform="translate(2048 880)" fill="#f5f6f8"/>
        <rect id="Rectangle_7808-9" data-name="Rectangle 7808" width="83" height="42" rx="21" transform="translate(2136 880)" fill="#f5f6f8"/>
        <rect id="Rectangle_7808-10" data-name="Rectangle 7808" width="80" height="42" rx="21" transform="translate(2230 880)" fill="#f5f6f8"/>
        <rect id="Rectangle_7808-11" data-name="Rectangle 7808" width="127" height="42" rx="21" transform="translate(2321 880)" fill="#f5f6f8"/>
        <rect id="Rectangle_7808-12" data-name="Rectangle 7808" width="93" height="42" rx="21" transform="translate(2136 827)" fill="#ffd065"/>
        <rect id="Rectangle_7808-13" data-name="Rectangle 7808" width="116" height="42" rx="21" transform="translate(2240 827)" fill="#f5f6f8"/>
        <rect id="Rectangle_7808-14" data-name="Rectangle 7808" width="92" height="42" rx="21" transform="translate(2368 827)" fill="#f5f6f8"/>
        <rect id="Rectangle_7808-15" data-name="Rectangle 7808" width="81" height="42" rx="21" transform="translate(2048 934)" fill="#f5f6f8"/>
        <rect id="Rectangle_7808-16" data-name="Rectangle 7808" width="125" height="42" rx="21" transform="translate(2131 773)" fill="#f5f6f8"/>
        <rect id="Rectangle_7808-17" data-name="Rectangle 7808" width="93" height="42" rx="21" transform="translate(2267 773)" fill="#f5f6f8"/>
        <rect id="Rectangle_7808-18" data-name="Rectangle 7808" width="94" height="42" rx="21" transform="translate(2371 773)" fill="#f5f6f8"/>
        <rect id="Rectangle_7808-19" data-name="Rectangle 7808" width="90" height="42" rx="21" transform="translate(2358 719)" fill="#f5f6f8"/>
        <g id="Group_17272-2" data-name="Group 17272" transform="translate(2459.262 719.419)">
          <rect id="Rectangle_7808-20" data-name="Rectangle 7808" width="73" height="42" rx="21" transform="translate(-0.262 -0.419)" fill="#f5f6f8"/>
        </g>
        <rect id="Rectangle_7808-21" data-name="Rectangle 7808" width="95" height="43" rx="21" transform="translate(2126 665)" fill="#f5f6f8"/>
        <rect id="Rectangle_7808-22" data-name="Rectangle 7808" width="96" height="43" rx="21" transform="translate(2232 665)" fill="#f5f6f8"/>
        <path id="Path_20632" data-name="Path 20632" d="M21.484,0H57.29a21.484,21.484,0,0,1,0,42.968H21.484A21.484,21.484,0,0,1,21.484,0Z" transform="translate(2339.566 665.198)" fill="#ffd065"/>
        <rect id="Rectangle_7808-23" data-name="Rectangle 7808" width="72" height="42" rx="21" transform="translate(2117 612)" fill="#f5f6f8"/>
        <path id="Path_20633" data-name="Path 20633" d="M20.972,0h53.2a20.972,20.972,0,0,1,0,41.945h-53.2A20.972,20.972,0,0,1,20.972,0Z" transform="translate(2276.138 612)" fill="#f5f6f8"/>
        <rect id="Rectangle_7808-24" data-name="Rectangle 7808" width="57" height="42" rx="21" transform="translate(2383 612)" fill="#f5f6f8"/>
        <g id="Group_17272-3" data-name="Group 17272" transform="translate(2141.097 934.258)">
          <rect id="Rectangle_7808-25" data-name="Rectangle 7808" width="89" height="42" rx="21" transform="translate(-0.097 -0.258)" fill="#f5f6f8"/>
        </g>
        <g id="Group_17272-4" data-name="Group 17272" transform="translate(2242.378 934.258)">
          <rect id="Rectangle_7808-26" data-name="Rectangle 7808" width="64" height="43" rx="21" transform="translate(-0.378 -0.258)" fill="#f5f6f8"/>
        </g>
        <path id="Path_14106" data-name="Path 14106" d="M5.787,1.654A4.6,4.6,0,0,0,9.807-.485l-1.29-.683A3.208,3.208,0,0,1,5.787.3,3.663,3.663,0,0,1,2.161-3.58,3.654,3.654,0,0,1,5.787-7.464,3.208,3.208,0,0,1,8.518-5.992l1.29-.683a4.576,4.576,0,0,0-4.02-2.139A5.067,5.067,0,0,0,.6-3.58,5.067,5.067,0,0,0,5.787,1.654Z" transform="translate(2071.44 636.203)" fill="#666"/>
        <path id="Path_14102" data-name="Path 14102" d="M.6-3.58A5.093,5.093,0,0,0,5.847,1.67,5.384,5.384,0,0,0,9.928-.121V-3.838H5.165V-2.5H8.411V-.682a3.925,3.925,0,0,1-2.564,1,3.688,3.688,0,0,1-3.687-3.9A3.666,3.666,0,0,1,5.847-7.464,3.49,3.49,0,0,1,8.624-6.1l1.229-.713a4.757,4.757,0,0,0-4.005-2A5.081,5.081,0,0,0,.6-3.58ZM15.087,1.654a3.633,3.633,0,0,0,3.7-3.854,3.629,3.629,0,0,0-3.7-3.838,3.637,3.637,0,0,0-3.7,3.838A3.641,3.641,0,0,0,15.087,1.654Zm0-1.214A2.387,2.387,0,0,1,12.811-2.2a2.382,2.382,0,0,1,2.276-2.625A2.373,2.373,0,0,1,17.363-2.2,2.378,2.378,0,0,1,15.087.441Z" transform="translate(2071.44 689.886)" fill="#666"/>
        <path id="Path_14089" data-name="Path 14089" d="M.13.56A3.34,3.34,0,0,0,2.785,1.667,3.044,3.044,0,0,0,6.092-1.64V-8.634H4.575v6.979A1.813,1.813,0,0,1,2.679.317,2.346,2.346,0,0,1,.858-.593Zm12.714.925h1.365V-3.46c0-1.866-1.35-2.564-2.943-2.564a4.119,4.119,0,0,0-3,1.2l.592.941a3,3,0,0,1,2.2-.971c1.047,0,1.79.546,1.79,1.456v1.214a3.056,3.056,0,0,0-2.4-.971A2.365,2.365,0,0,0,7.9-.76a2.435,2.435,0,0,0,2.549,2.427,3.141,3.141,0,0,0,2.4-.986Zm0-1.608a2.321,2.321,0,0,1-1.881.834A1.512,1.512,0,0,1,9.278-.745,1.512,1.512,0,0,1,10.962-2.2a2.321,2.321,0,0,1,1.881.834Zm5.492,1.608h1.472l3.019-7.328H21.355L19.064-.092l-2.291-5.75H15.317Zm10.119,0h1.365V-3.46c0-1.866-1.35-2.564-2.943-2.564a4.119,4.119,0,0,0-3,1.2l.592.941a3,3,0,0,1,2.2-.971c1.047,0,1.79.546,1.79,1.456v1.214a3.056,3.056,0,0,0-2.4-.971,2.365,2.365,0,0,0-2.549,2.4,2.435,2.435,0,0,0,2.549,2.427,3.141,3.141,0,0,0,2.4-.986Zm0-1.608a2.321,2.321,0,0,1-1.881.834A1.512,1.512,0,0,1,24.89-.745,1.512,1.512,0,0,1,26.574-2.2a2.321,2.321,0,0,1,1.881.834ZM31.368.53a4.169,4.169,0,0,0,3.049,1.138c1.927,0,2.958-.986,2.958-2.245,0-1.684-1.517-2.033-2.792-2.321-.91-.212-1.7-.425-1.7-1.062,0-.592.577-.956,1.5-.956a2.856,2.856,0,0,1,2.17.9l.607-.956a3.922,3.922,0,0,0-2.792-1.047c-1.79,0-2.792,1-2.792,2.17,0,1.578,1.456,1.912,2.7,2.2.941.212,1.775.455,1.775,1.183,0,.622-.546,1.047-1.578,1.047A3.55,3.55,0,0,1,32.02-.472ZM38.65-2.186a3.658,3.658,0,0,0,3.732,3.854A3.2,3.2,0,0,0,45.129.378l-.91-.834a2.082,2.082,0,0,1-1.775.91,2.4,2.4,0,0,1-2.367-2.64,2.385,2.385,0,0,1,2.367-2.625,2.047,2.047,0,0,1,1.775.91l.91-.834a3.2,3.2,0,0,0-2.746-1.29A3.646,3.646,0,0,0,38.65-2.186Zm7.98,3.672H48v-5.1a2.589,2.589,0,0,1,1.927-1.062,2.149,2.149,0,0,1,.47.046V-6.009A3.113,3.113,0,0,0,48-4.72V-5.842H46.631Zm5.8-8.557a.868.868,0,0,0,.88-.865.881.881,0,0,0-.88-.88.89.89,0,0,0-.88.88A.877.877,0,0,0,52.426-7.071Zm-.668,8.557h1.365V-5.842H51.759Zm4.9,2.792V.423a2.923,2.923,0,0,0,2.4,1.244c1.912,0,3.262-1.456,3.262-3.854s-1.35-3.838-3.262-3.838a2.986,2.986,0,0,0-2.4,1.229V-5.842H55.294V4.277Zm4.233-6.463c0,1.532-.834,2.64-2.2,2.64A2.55,2.55,0,0,1,56.659-.623v-3.11a2.51,2.51,0,0,1,2.033-1.077C60.057-4.811,60.892-3.7,60.892-2.186Zm5.173,3.854a1.945,1.945,0,0,0,1.426-.47L67.142.166A1.05,1.05,0,0,1,66.4.454c-.47,0-.713-.379-.713-.9v-4.2h1.487v-1.2H65.686v-2H64.321v2H63.107v1.2h1.214V-.138A1.594,1.594,0,0,0,66.065,1.667Z" transform="translate(2071.363 743.557)" fill="#333"/>
        <path id="Path_14090" data-name="Path 14090" d="M.13.549A3.34,3.34,0,0,0,2.785,1.657,3.044,3.044,0,0,0,6.092-1.651V-8.645H4.575v6.979A1.813,1.813,0,0,1,2.679.306,2.346,2.346,0,0,1,.858-.6Zm13.139.925h1.365V-5.853H13.269V-.589A2.648,2.648,0,0,1,11.236.443c-.941,0-1.547-.364-1.547-1.578V-5.853H8.323V-.68a2.067,2.067,0,0,0,2.336,2.336A3.62,3.62,0,0,0,13.269.473Zm3.535,0h1.365V-8.645H16.8Zm4.2-8.557a.868.868,0,0,0,.88-.865.881.881,0,0,0-.88-.88.89.89,0,0,0-.88.88A.877.877,0,0,0,21.006-7.082Zm-.668,8.557H21.7V-5.853H20.338Zm8.056,0H29.76V-3.471c0-1.866-1.35-2.564-2.943-2.564a4.119,4.119,0,0,0-3,1.2L24.4-3.9a3,3,0,0,1,2.2-.971c1.047,0,1.79.546,1.79,1.456V-2.2A3.056,3.056,0,0,0,26-3.168a2.365,2.365,0,0,0-2.549,2.4A2.435,2.435,0,0,0,26,1.657a3.141,3.141,0,0,0,2.4-.986Zm0-1.608A2.321,2.321,0,0,1,26.513.7,1.512,1.512,0,0,1,24.829-.756a1.512,1.512,0,0,1,1.684-1.456,2.321,2.321,0,0,1,1.881.834Z" transform="translate(2196.994 743.568)" fill="#666"/>
        <path id="Path_14091" data-name="Path 14091" d="M7.046,1.474H8.927L4.421-3.851,8.593-8.645H6.712L2.479-3.623V-8.645H.962V1.474H2.479V-1.848l.956-1.077Zm5.917.182a3.633,3.633,0,0,0,3.7-3.854,3.629,3.629,0,0,0-3.7-3.838A3.637,3.637,0,0,0,9.261-2.2,3.641,3.641,0,0,0,12.963,1.657Zm0-1.214A2.387,2.387,0,0,1,10.687-2.2a2.382,2.382,0,0,1,2.276-2.625A2.373,2.373,0,0,1,15.238-2.2,2.378,2.378,0,0,1,12.963.443Zm7.449,1.214a1.945,1.945,0,0,0,1.426-.47L21.489.155a1.05,1.05,0,0,1-.743.288c-.47,0-.713-.379-.713-.9v-4.2h1.487v-1.2H20.033v-2H18.667v2H17.453v1.2h1.214V-.149A1.594,1.594,0,0,0,20.412,1.657Zm2.625-.182H24.4V-8.645H23.037Zm4.2-8.557a.868.868,0,0,0,.88-.865.881.881,0,0,0-.88-.88.89.89,0,0,0-.88.88A.877.877,0,0,0,27.239-7.082Zm-.668,8.557h1.365V-5.853H26.571Zm8.481,0h1.365V-3.669a2.106,2.106,0,0,0-2.352-2.367,3.494,3.494,0,0,0-2.594,1.214V-5.853H30.106V1.474h1.365V-3.76A2.618,2.618,0,0,1,33.49-4.822c.941,0,1.563.394,1.563,1.608Z" transform="translate(2285.828 743.568)" fill="#666"/>
        <path id="Path_14092" data-name="Path 14092" d="M.962,1.474H7.076V.139h-4.6V-8.645H.962Zm8.42-8.557a.868.868,0,0,0,.88-.865.881.881,0,0,0-.88-.88.89.89,0,0,0-.88.88A.877.877,0,0,0,9.382-7.082ZM8.715,1.474H10.08V-5.853H8.715Zm2.9-.956a4.169,4.169,0,0,0,3.049,1.138c1.927,0,2.958-.986,2.958-2.245,0-1.684-1.517-2.033-2.792-2.321-.91-.212-1.7-.425-1.7-1.062,0-.592.577-.956,1.5-.956a2.856,2.856,0,0,1,2.17.9l.607-.956a3.922,3.922,0,0,0-2.792-1.047c-1.79,0-2.792,1-2.792,2.17,0,1.578,1.456,1.912,2.7,2.2.941.212,1.775.455,1.775,1.183,0,.622-.546,1.047-1.578,1.047A3.55,3.55,0,0,1,12.265-.483Zm9.1,3.747V.412a2.923,2.923,0,0,0,2.4,1.244c1.912,0,3.262-1.456,3.262-3.854s-1.35-3.838-3.262-3.838a2.986,2.986,0,0,0-2.4,1.229V-5.853H19.35V4.266ZM24.948-2.2c0,1.532-.834,2.64-2.2,2.64A2.55,2.55,0,0,1,20.715-.634v-3.11a2.51,2.51,0,0,1,2.033-1.077C24.114-4.822,24.948-3.714,24.948-2.2Z" transform="translate(2500.198 795.743)" fill="#666"/>
        <path id="Path_14103" data-name="Path 14103" d="M.962,1.448H7.076V.113h-4.6V-8.671H.962Zm12.516,0h1.365V-5.879H13.478V-.615A2.648,2.648,0,0,1,11.446.417C10.5.417,9.9.053,9.9-1.161V-5.879H8.533V-.706A2.067,2.067,0,0,0,10.869,1.63,3.62,3.62,0,0,0,13.478.447Zm8.056,0H22.9V-3.5c0-1.866-1.35-2.564-2.943-2.564a4.119,4.119,0,0,0-3,1.2l.592.941a3,3,0,0,1,2.2-.971c1.047,0,1.79.546,1.79,1.456v1.214a3.056,3.056,0,0,0-2.4-.971A2.365,2.365,0,0,0,16.589-.8,2.435,2.435,0,0,0,19.137,1.63a3.141,3.141,0,0,0,2.4-.986Zm0-1.608a2.321,2.321,0,0,1-1.881.834A1.512,1.512,0,0,1,17.969-.782a1.512,1.512,0,0,1,1.684-1.456,2.321,2.321,0,0,1,1.881.834Z" transform="translate(2071.501 797.278)" fill="#666"/>
        <path id="Path_14104" data-name="Path 14104" d="M.962,1.448H2.479v-3.9H5.225a3.027,3.027,0,0,0,3.232-3.11,3.018,3.018,0,0,0-3.232-3.11H.962ZM6.894-5.561A1.738,1.738,0,0,1,5.028-3.786H2.479v-3.55H5.028A1.738,1.738,0,0,1,6.894-5.561ZM17.135,1.448h1.517V-8.671H17.135v4.248h-5.6V-8.671H10.019V1.448h1.517V-3.073h5.6Zm3.763,0h1.517v-3.9h2.746a3.027,3.027,0,0,0,3.232-3.11,3.018,3.018,0,0,0-3.232-3.11H20.9Zm5.932-7.009a1.738,1.738,0,0,1-1.866,1.775H22.414v-3.55h2.549A1.738,1.738,0,0,1,26.829-5.561Z" transform="translate(2071.501 850.961)" fill="#666"/>
        <path id="Path_14105" data-name="Path 14105" d="M6.788,1.448h1.76L5.953-2.6A2.823,2.823,0,0,0,8.472-5.561a3.016,3.016,0,0,0-3.247-3.11H.962V1.448H2.479v-3.9h1.9Zm.121-7.009A1.75,1.75,0,0,1,5.028-3.786H2.479v-3.55H5.028A1.75,1.75,0,0,1,6.909-5.561Zm8.344,7.009h1.365V-5.879H15.254V-.615A2.648,2.648,0,0,1,13.221.417c-.941,0-1.547-.364-1.547-1.578V-5.879H10.308V-.706A2.067,2.067,0,0,0,12.644,1.63,3.62,3.62,0,0,0,15.254.447Zm2.9-.956A4.169,4.169,0,0,0,21.2,1.63c1.927,0,2.958-.986,2.958-2.245,0-1.684-1.517-2.033-2.792-2.321-.91-.212-1.7-.425-1.7-1.062,0-.592.577-.956,1.5-.956a2.856,2.856,0,0,1,2.17.9l.607-.956a3.922,3.922,0,0,0-2.792-1.047c-1.79,0-2.792,1-2.792,2.17,0,1.578,1.456,1.912,2.7,2.2.941.212,1.775.455,1.775,1.183,0,.622-.546,1.047-1.578,1.047A3.55,3.55,0,0,1,18.8-.509ZM27.907,1.63a1.945,1.945,0,0,0,1.426-.47L28.984.128a1.05,1.05,0,0,1-.743.288c-.47,0-.713-.379-.713-.9v-4.2h1.487v-1.2H27.527v-2H26.162v2H24.948v1.2h1.214V-.175A1.594,1.594,0,0,0,27.907,1.63Z" transform="translate(2071.501 904.645)" fill="#666"/>
        <path id="Path_14094" data-name="Path 14094" d="M.429.044a5.178,5.178,0,0,0,3.99,1.608C7.15,1.652,8.242.181,8.242-1.4c0-2.154-1.927-2.67-3.58-3.11C3.4-4.826,2.31-5.114,2.31-6.025c0-.85.774-1.426,1.9-1.426A3.947,3.947,0,0,1,7.135-6.267l.88-1.123A4.961,4.961,0,0,0,4.328-8.8C2.219-8.8.748-7.587.748-5.918c0,2.063,1.881,2.534,3.5,2.958,1.29.334,2.443.637,2.443,1.7C6.695-.533,6.118.3,4.48.3A4.267,4.267,0,0,1,1.294-1.124ZM9.517-2.2a3.658,3.658,0,0,0,3.732,3.854A3.2,3.2,0,0,0,15.995.363l-.91-.834a2.082,2.082,0,0,1-1.775.91A2.4,2.4,0,0,1,10.943-2.2,2.385,2.385,0,0,1,13.31-4.826a2.047,2.047,0,0,1,1.775.91l.91-.834a3.2,3.2,0,0,0-2.746-1.29A3.646,3.646,0,0,0,9.517-2.2Zm12.5,3.672h1.365V-3.476c0-1.866-1.35-2.564-2.943-2.564a4.119,4.119,0,0,0-3,1.2l.592.941a3,3,0,0,1,2.2-.971c1.047,0,1.79.546,1.79,1.456V-2.2a3.056,3.056,0,0,0-2.4-.971,2.365,2.365,0,0,0-2.549,2.4,2.435,2.435,0,0,0,2.549,2.427,3.141,3.141,0,0,0,2.4-.986Zm0-1.608A2.321,2.321,0,0,1,20.137.7,1.512,1.512,0,0,1,18.453-.76a1.512,1.512,0,0,1,1.684-1.456,2.321,2.321,0,0,1,1.881.834Zm3.55,1.608h1.365V-8.649H25.568Zm8.056,0H34.99V-3.476c0-1.866-1.35-2.564-2.943-2.564a4.119,4.119,0,0,0-3,1.2l.592.941a3,3,0,0,1,2.2-.971c1.047,0,1.79.546,1.79,1.456V-2.2a3.056,3.056,0,0,0-2.4-.971,2.365,2.365,0,0,0-2.549,2.4,2.435,2.435,0,0,0,2.549,2.427,3.141,3.141,0,0,0,2.4-.986Zm0-1.608A2.321,2.321,0,0,1,31.743.7,1.512,1.512,0,0,1,30.059-.76a1.512,1.512,0,0,1,1.684-1.456,2.321,2.321,0,0,1,1.881.834Z" transform="translate(2158.94 904.624)" fill="#666"/>
        <path id="Path_14080" data-name="Path 14080" d="M.429.048a5.178,5.178,0,0,0,3.99,1.608c2.731,0,3.823-1.472,3.823-3.049,0-2.154-1.927-2.67-3.58-3.11C3.4-4.822,2.31-5.11,2.31-6.02c0-.85.774-1.426,1.9-1.426A3.947,3.947,0,0,1,7.135-6.263l.88-1.123A4.961,4.961,0,0,0,4.328-8.8C2.219-8.8.748-7.583.748-5.914c0,2.063,1.881,2.534,3.5,2.958,1.29.334,2.443.637,2.443,1.7C6.695-.528,6.118.306,4.48.306A4.267,4.267,0,0,1,1.294-1.12ZM16.268,1.474h1.411l2.306-7.328H18.559L16.89-.27,15.054-5.853H13.871L12.035-.27,10.366-5.853H8.94l2.306,7.328h1.411l1.805-5.629Zm5.6-8.557a.868.868,0,0,0,.88-.865.881.881,0,0,0-.88-.88.89.89,0,0,0-.88.88A.877.877,0,0,0,21.866-7.082ZM21.2,1.474h1.365V-5.853H21.2Zm3.869,0h1.365V-4.655H27.92v-1.2H26.433v-.485c0-.88.41-1.335,1.092-1.335a1.3,1.3,0,0,1,.652.167L28.5-8.524A2.414,2.414,0,0,0,27.3-8.8a2.187,2.187,0,0,0-2.23,2.458v.485H23.854v1.2h1.214Zm6.175.182a1.945,1.945,0,0,0,1.426-.47L32.319.155a1.05,1.05,0,0,1-.743.288c-.47,0-.713-.379-.713-.9v-4.2H32.35v-1.2H30.863v-2H29.5v2H28.284v1.2H29.5V-.149A1.594,1.594,0,0,0,31.242,1.657Z" transform="translate(2253.47 904.619)" fill="#666"/>
        <path id="Path_14078" data-name="Path 14078" d="M4.085,1.474h1.9L10-8.645H8.273L5.026-.179,1.795-8.645H.065Zm7.768-8.557a.868.868,0,0,0,.88-.865.881.881,0,0,0-.88-.88.89.89,0,0,0-.88.88A.877.877,0,0,0,11.853-7.082Zm-.668,8.557h1.365V-5.853H11.186Zm2.9-.956a4.169,4.169,0,0,0,3.049,1.138c1.927,0,2.958-.986,2.958-2.245,0-1.684-1.517-2.033-2.792-2.321-.91-.212-1.7-.425-1.7-1.062,0-.592.577-.956,1.5-.956a2.856,2.856,0,0,1,2.17.9l.607-.956a3.922,3.922,0,0,0-2.792-1.047c-1.79,0-2.792,1-2.792,2.17,0,1.578,1.456,1.912,2.7,2.2.941.212,1.775.455,1.775,1.183,0,.622-.546,1.047-1.578,1.047A3.55,3.55,0,0,1,14.736-.483Zm12.683.956h1.365V-5.853H26.767V-.589A2.648,2.648,0,0,1,24.734.443c-.941,0-1.547-.364-1.547-1.578V-5.853H21.821V-.68a2.067,2.067,0,0,0,2.336,2.336A3.62,3.62,0,0,0,26.767.473Zm8.056,0h1.365V-3.471c0-1.866-1.35-2.564-2.943-2.564a4.119,4.119,0,0,0-3,1.2l.592.941a3,3,0,0,1,2.2-.971c1.047,0,1.79.546,1.79,1.456V-2.2a3.056,3.056,0,0,0-2.4-.971,2.365,2.365,0,0,0-2.549,2.4,2.435,2.435,0,0,0,2.549,2.427,3.141,3.141,0,0,0,2.4-.986Zm0-1.608A2.321,2.321,0,0,1,32.942.7,1.512,1.512,0,0,1,31.258-.756a1.512,1.512,0,0,1,1.684-1.456,2.321,2.321,0,0,1,1.881.834Zm3.55,1.608h1.365V-8.645H38.373Zm7.48,0h4.87a2.645,2.645,0,0,0,2.928-2.731,2.5,2.5,0,0,0-1.957-2.488,2.288,2.288,0,0,0,1.76-2.321A2.566,2.566,0,0,0,50.6-8.645H45.853ZM47.37-4.351V-7.31h2.943a1.443,1.443,0,0,1,1.578,1.487,1.432,1.432,0,0,1-1.578,1.472Zm0,4.491V-3.016h3.019a1.544,1.544,0,0,1,1.7,1.563,1.521,1.521,0,0,1-1.7,1.593ZM60.023,1.474h1.365V-3.471c0-1.866-1.35-2.564-2.943-2.564a4.119,4.119,0,0,0-3,1.2l.592.941a3,3,0,0,1,2.2-.971c1.047,0,1.79.546,1.79,1.456V-2.2a3.056,3.056,0,0,0-2.4-.971,2.365,2.365,0,0,0-2.549,2.4,2.435,2.435,0,0,0,2.549,2.427,3.141,3.141,0,0,0,2.4-.986Zm0-1.608A2.321,2.321,0,0,1,58.141.7,1.512,1.512,0,0,1,56.457-.756a1.512,1.512,0,0,1,1.684-1.456,2.321,2.321,0,0,1,1.881.834Zm2.913.652a4.169,4.169,0,0,0,3.049,1.138c1.927,0,2.958-.986,2.958-2.245,0-1.684-1.517-2.033-2.792-2.321-.91-.212-1.7-.425-1.7-1.062,0-.592.577-.956,1.5-.956a2.856,2.856,0,0,1,2.17.9l.607-.956A3.922,3.922,0,0,0,65.94-6.035c-1.79,0-2.792,1-2.792,2.17,0,1.578,1.456,1.912,2.7,2.2.941.212,1.775.455,1.775,1.183,0,.622-.546,1.047-1.578,1.047A3.55,3.55,0,0,1,63.588-.483Zm8.405-7.6a.868.868,0,0,0,.88-.865.881.881,0,0,0-.88-.88.89.89,0,0,0-.88.88A.877.877,0,0,0,71.341-7.082Zm-.668,8.557h1.365V-5.853H70.673ZM73.753-2.2a3.658,3.658,0,0,0,3.732,3.854A3.2,3.2,0,0,0,80.231.367l-.91-.834a2.082,2.082,0,0,1-1.775.91A2.4,2.4,0,0,1,75.179-2.2a2.385,2.385,0,0,1,2.367-2.625,2.047,2.047,0,0,1,1.775.91l.91-.834a3.2,3.2,0,0,0-2.746-1.29A3.646,3.646,0,0,0,73.753-2.2Z" transform="translate(2344.438 904.619)" fill="#666"/>
        <path id="Path_14095" data-name="Path 14095" d="M.962,1.448H2.479v-3.9H5.225a3.027,3.027,0,0,0,3.232-3.11,3.018,3.018,0,0,0-3.232-3.11H.962ZM6.894-5.561A1.738,1.738,0,0,1,5.028-3.786H2.479v-3.55H5.028A1.738,1.738,0,0,1,6.894-5.561ZM9.837,3.087,9.625,4.316a3.947,3.947,0,0,0,.85.106,2.316,2.316,0,0,0,2.336-1.578l3.611-8.724H14.95L12.659-.129l-2.291-5.75H8.912l3.019,7.4-.425.971a1.013,1.013,0,0,1-1.062.713A1.665,1.665,0,0,1,9.837,3.087Zm9.71-1.456a1.945,1.945,0,0,0,1.426-.47L20.624.128a1.05,1.05,0,0,1-.743.288c-.47,0-.713-.379-.713-.9v-4.2h1.487v-1.2H19.168v-2H17.8v2H16.589v1.2H17.8V-.175A1.594,1.594,0,0,0,19.547,1.63Zm7.571-.182h1.365V-3.725a2.078,2.078,0,0,0-2.352-2.336,3.521,3.521,0,0,0-2.594,1.214V-8.671H22.172V1.448h1.365V-3.786a2.618,2.618,0,0,1,2.018-1.062c.941,0,1.563.364,1.563,1.578Zm6.8.182a3.633,3.633,0,0,0,3.7-3.854,3.629,3.629,0,0,0-3.7-3.838,3.637,3.637,0,0,0-3.7,3.838A3.641,3.641,0,0,0,33.914,1.63Zm0-1.214a2.387,2.387,0,0,1-2.276-2.64,2.382,2.382,0,0,1,2.276-2.625A2.373,2.373,0,0,1,36.19-2.223,2.378,2.378,0,0,1,33.914.417ZM44.292,1.448h1.365V-3.695a2.106,2.106,0,0,0-2.352-2.367,3.494,3.494,0,0,0-2.594,1.214V-5.879H39.346V1.448h1.365V-3.786a2.618,2.618,0,0,1,2.018-1.062c.941,0,1.563.394,1.563,1.608Z" transform="translate(2159.029 850.961)" fill="#333"/>
        <path id="Path_14082" data-name="Path 14082" d="M6.788,1.487h1.76L5.953-2.563A2.823,2.823,0,0,0,8.472-5.522a3.016,3.016,0,0,0-3.247-3.11H.962V1.487H2.479v-3.9h1.9Zm.121-7.009A1.75,1.75,0,0,1,5.028-3.747H2.479V-7.3H5.028A1.75,1.75,0,0,1,6.909-5.522ZM16,4.507l.834-.637A12.145,12.145,0,0,1,15.269-2.2a12.245,12.245,0,0,1,1.563-6.084L16-8.9A11.216,11.216,0,0,0,13.782-2.2,11.183,11.183,0,0,0,16,4.507Zm8.056-3.019h1.76L23.219-2.563a2.823,2.823,0,0,0,2.518-2.958,3.016,3.016,0,0,0-3.247-3.11H18.227V1.487h1.517v-3.9h1.9Zm.121-7.009a1.75,1.75,0,0,1-1.881,1.775H19.744V-7.3h2.549A1.75,1.75,0,0,1,24.174-5.522ZM26.981.061a5.178,5.178,0,0,0,3.99,1.608C33.7,1.67,34.794.2,34.794-1.38c0-2.154-1.927-2.67-3.58-3.11-1.259-.319-2.352-.607-2.352-1.517,0-.85.774-1.426,1.9-1.426A3.947,3.947,0,0,1,33.687-6.25l.88-1.123A4.961,4.961,0,0,0,30.88-8.784c-2.109,0-3.58,1.214-3.58,2.883,0,2.063,1.881,2.534,3.5,2.958,1.29.334,2.443.637,2.443,1.7,0,.728-.577,1.563-2.215,1.563a4.267,4.267,0,0,1-3.186-1.426Zm9.088-2.245A3.658,3.658,0,0,0,39.8,1.67,3.2,3.2,0,0,0,42.547.38l-.91-.834a2.082,2.082,0,0,1-1.775.91,2.4,2.4,0,0,1-2.367-2.64,2.385,2.385,0,0,1,2.367-2.625,2.047,2.047,0,0,1,1.775.91l.91-.834A3.2,3.2,0,0,0,39.8-6.022,3.646,3.646,0,0,0,36.069-2.184Zm7.98,3.672h1.365v-5.1a2.589,2.589,0,0,1,1.927-1.062,2.149,2.149,0,0,1,.47.046V-6.007a3.113,3.113,0,0,0-2.4,1.29V-5.84H44.049Zm5.8-8.557a.868.868,0,0,0,.88-.865.881.881,0,0,0-.88-.88.89.89,0,0,0-.88.88A.877.877,0,0,0,49.845-7.069Zm-.668,8.557h1.365V-5.84H49.177Zm4.9,2.792V.425a2.923,2.923,0,0,0,2.4,1.244c1.912,0,3.262-1.456,3.262-3.854s-1.35-3.838-3.262-3.838a2.986,2.986,0,0,0-2.4,1.229V-5.84H52.712V4.279ZM58.31-2.184c0,1.532-.834,2.64-2.2,2.64A2.55,2.55,0,0,1,54.077-.621v-3.11A2.51,2.51,0,0,1,56.11-4.809C57.476-4.809,58.31-3.7,58.31-2.184ZM63.484,1.67A1.945,1.945,0,0,0,64.91,1.2L64.561.168a1.05,1.05,0,0,1-.743.288c-.47,0-.713-.379-.713-.9v-4.2h1.487v-1.2H63.1v-2H61.739v2H60.525v1.2h1.214V-.136A1.594,1.594,0,0,0,63.484,1.67ZM66.852-2.2a12,12,0,0,1-1.578,6.069l.834.637A11.1,11.1,0,0,0,68.339-2.2,11.129,11.129,0,0,0,66.108-8.9l-.834.622A12.1,12.1,0,0,1,66.852-2.2Z" transform="translate(2264.284 850.922)" fill="#666"/>
        <path id="Path_14083" data-name="Path 14083" d="M6.788,1.448h1.76L5.953-2.6A2.823,2.823,0,0,0,8.472-5.561a3.016,3.016,0,0,0-3.247-3.11H.962V1.448H2.479v-3.9h1.9Zm.121-7.009A1.75,1.75,0,0,1,5.028-3.786H2.479v-3.55H5.028A1.75,1.75,0,0,1,6.909-5.561Zm7.616,7.009h1.365V-3.5c0-1.866-1.35-2.564-2.943-2.564a4.119,4.119,0,0,0-3,1.2l.592.941a3,3,0,0,1,2.2-.971c1.047,0,1.79.546,1.79,1.456v1.214a3.056,3.056,0,0,0-2.4-.971A2.365,2.365,0,0,0,9.579-.8,2.435,2.435,0,0,0,12.128,1.63a3.141,3.141,0,0,0,2.4-.986Zm0-1.608a2.321,2.321,0,0,1-1.881.834A1.512,1.512,0,0,1,10.96-.782a1.512,1.512,0,0,1,1.684-1.456,2.321,2.321,0,0,1,1.881.834ZM17.62-2.223A3.658,3.658,0,0,0,21.352,1.63,3.2,3.2,0,0,0,24.1.341l-.91-.834a2.082,2.082,0,0,1-1.775.91,2.4,2.4,0,0,1-2.367-2.64,2.385,2.385,0,0,1,2.367-2.625,2.047,2.047,0,0,1,1.775.91l.91-.834a3.2,3.2,0,0,0-2.746-1.29A3.646,3.646,0,0,0,17.62-2.223Zm12.9,3.672h1.73L29.06-2.557l3.156-3.323H30.5L26.966-2.162V-8.671H25.6V1.448h1.365V-.585l1.108-1.123ZM32.67-2.223A3.664,3.664,0,0,0,36.463,1.63,4.122,4.122,0,0,0,39.407.538l-.637-.9A3.115,3.115,0,0,1,36.6.508a2.4,2.4,0,0,1-2.488-2.276h5.8V-2.1c0-2.245-1.365-3.96-3.565-3.96A3.685,3.685,0,0,0,32.67-2.223Zm3.672-2.716a2.168,2.168,0,0,1,2.23,2.185H34.1A2.244,2.244,0,0,1,36.342-4.939Zm7.3,6.569a1.945,1.945,0,0,0,1.426-.47L44.717.128a1.05,1.05,0,0,1-.743.288c-.47,0-.713-.379-.713-.9v-4.2h1.487v-1.2H43.26v-2H41.895v2H40.681v1.2h1.214V-.175A1.594,1.594,0,0,0,43.639,1.63Z" transform="translate(2391.491 850.961)" fill="#666"/>
        <path id="Path_14101" data-name="Path 14101" d="M6.788,1.448h1.76L5.953-2.6A2.823,2.823,0,0,0,8.472-5.561a3.016,3.016,0,0,0-3.247-3.11H.962V1.448H2.479v-3.9h1.9Zm.121-7.009A1.75,1.75,0,0,1,5.028-3.786H2.479v-3.55H5.028A1.75,1.75,0,0,1,6.909-5.561Zm8.344,7.009h1.365V-5.879H15.254V-.615A2.648,2.648,0,0,1,13.221.417c-.941,0-1.547-.364-1.547-1.578V-5.879H10.308V-.706A2.067,2.067,0,0,0,12.644,1.63,3.62,3.62,0,0,0,15.254.447Zm3.535,0h1.365V.4a3.008,3.008,0,0,0,2.4,1.229c1.9,0,3.262-1.441,3.262-3.838,0-2.352-1.35-3.854-3.262-3.854a2.943,2.943,0,0,0-2.4,1.244V-8.671H18.789ZM20.154-.645v-3.11a2.522,2.522,0,0,1,2.033-1.092c1.365,0,2.215,1.108,2.215,2.64S23.552.417,22.187.417A2.5,2.5,0,0,1,20.154-.645Zm7.252,3.732-.212,1.229a3.947,3.947,0,0,0,.85.106A2.316,2.316,0,0,0,30.38,2.844L33.99-5.879H32.519L30.228-.129l-2.291-5.75H26.48l3.019,7.4-.425.971a1.013,1.013,0,0,1-1.062.713A1.665,1.665,0,0,1,27.406,3.087Z" transform="translate(2071.501 958.329)" fill="#666"/>
        <path id="Path_14088" data-name="Path 14088" d="M.6-3.578A4.977,4.977,0,0,0,5.7,1.657a4.977,4.977,0,0,0,5.1-5.234A4.977,4.977,0,0,0,5.7-8.812,4.977,4.977,0,0,0,.6-3.578Zm8.633,0A3.566,3.566,0,0,1,5.7.306c-2.17,0-3.535-1.669-3.535-3.884,0-2.23,1.365-3.884,3.535-3.884C7.835-7.462,9.231-5.808,9.231-3.578ZM12.6,1.474h1.365V.428a3.008,3.008,0,0,0,2.4,1.229c1.9,0,3.262-1.441,3.262-3.838,0-2.352-1.35-3.854-3.262-3.854a2.943,2.943,0,0,0-2.4,1.244V-8.645H12.6ZM13.964-.619v-3.11A2.522,2.522,0,0,1,16-4.822c1.365,0,2.215,1.108,2.215,2.64S17.363.443,16,.443A2.5,2.5,0,0,1,13.964-.619Zm8.071-6.463a.868.868,0,0,0,.88-.865.881.881,0,0,0-.88-.88.89.89,0,0,0-.88.88A.877.877,0,0,0,22.035-7.082Zm.7,1.229H21.368v7.9c0,.88-.47,1.229-1.092,1.229a1.743,1.743,0,0,1-.5-.061l-.167,1.138a3.34,3.34,0,0,0,.834.091,2.131,2.131,0,0,0,2.291-2.4ZM24.448-2.2A3.664,3.664,0,0,0,28.24,1.657,4.122,4.122,0,0,0,31.184.564l-.637-.9a3.115,3.115,0,0,1-2.17.865,2.4,2.4,0,0,1-2.488-2.276h5.8v-.334c0-2.245-1.365-3.96-3.565-3.96A3.685,3.685,0,0,0,24.448-2.2Zm3.672-2.716a2.168,2.168,0,0,1,2.23,2.185H25.874A2.244,2.244,0,0,1,28.119-4.913ZM32.944-2.2a3.658,3.658,0,0,0,3.732,3.854A3.2,3.2,0,0,0,39.422.367l-.91-.834a2.082,2.082,0,0,1-1.775.91A2.4,2.4,0,0,1,34.37-2.2a2.385,2.385,0,0,1,2.367-2.625,2.047,2.047,0,0,1,1.775.91l.91-.834a3.2,3.2,0,0,0-2.746-1.29A3.646,3.646,0,0,0,32.944-2.2Zm10,3.854a1.945,1.945,0,0,0,1.426-.47L44.019.155a1.05,1.05,0,0,1-.743.288c-.47,0-.713-.379-.713-.9v-4.2h1.487v-1.2H42.562v-2H41.2v2H39.983v1.2H41.2V-.149A1.594,1.594,0,0,0,42.942,1.657Zm3.292-8.739a.868.868,0,0,0,.88-.865.881.881,0,0,0-.88-.88.89.89,0,0,0-.88.88A.877.877,0,0,0,46.234-7.082Zm-.668,8.557h1.365V-5.853H45.566Zm5.477,0h1.472l3.019-7.328H54.062L51.771-.1l-2.291-5.75H48.024ZM56.186-2.2a3.664,3.664,0,0,0,3.793,3.854A4.122,4.122,0,0,0,62.923.564l-.637-.9a3.115,3.115,0,0,1-2.17.865,2.4,2.4,0,0,1-2.488-2.276h5.8v-.334c0-2.245-1.365-3.96-3.565-3.96A3.685,3.685,0,0,0,56.186-2.2Zm3.672-2.716a2.168,2.168,0,0,1,2.23,2.185H57.612A2.244,2.244,0,0,1,59.858-4.913ZM73.846,1.657a4.6,4.6,0,0,0,4.02-2.139l-1.29-.683A3.207,3.207,0,0,1,73.846.306,3.663,3.663,0,0,1,70.22-3.578a3.654,3.654,0,0,1,3.626-3.884A3.207,3.207,0,0,1,76.577-5.99l1.29-.683a4.576,4.576,0,0,0-4.02-2.139,5.067,5.067,0,0,0-5.189,5.234A5.067,5.067,0,0,0,73.846,1.657Z" transform="translate(2154.3 797.252)" fill="#666"/>
        <path id="Path_14084" data-name="Path 14084" d="M.6-3.58A4.977,4.977,0,0,0,5.7,1.654a4.977,4.977,0,0,0,5.1-5.234A4.977,4.977,0,0,0,5.7-8.814,4.977,4.977,0,0,0,.6-3.58Zm8.633,0A3.566,3.566,0,0,1,5.7.3C3.526.3,2.161-1.365,2.161-3.58c0-2.23,1.365-3.884,3.535-3.884C7.835-7.464,9.231-5.81,9.231-3.58Zm8.162,5.234a4.6,4.6,0,0,0,4.02-2.139l-1.29-.683A3.208,3.208,0,0,1,17.393.3,3.663,3.663,0,0,1,13.767-3.58a3.654,3.654,0,0,1,3.626-3.884,3.208,3.208,0,0,1,2.731,1.472l1.29-.683a4.576,4.576,0,0,0-4.02-2.139A5.067,5.067,0,0,0,12.2-3.58,5.067,5.067,0,0,0,17.393,1.654Zm10.028-.182h1.365V-3.474c0-1.866-1.35-2.564-2.943-2.564a4.119,4.119,0,0,0-3,1.2l.592.941a3,3,0,0,1,2.2-.971c1.047,0,1.79.546,1.79,1.456V-2.2a3.056,3.056,0,0,0-2.4-.971,2.365,2.365,0,0,0-2.549,2.4,2.435,2.435,0,0,0,2.549,2.427,3.141,3.141,0,0,0,2.4-.986Zm0-1.608A2.321,2.321,0,0,1,25.54.7,1.512,1.512,0,0,1,23.856-.758,1.512,1.512,0,0,1,25.54-2.214a2.321,2.321,0,0,1,1.881.834ZM39.877,1.472h1.365V-3.823c0-1.472-.728-2.215-2.078-2.215a3.074,3.074,0,0,0-2.473,1.365A1.893,1.893,0,0,0,34.7-6.038a3.172,3.172,0,0,0-2.367,1.214V-5.856H30.971V1.472h1.365V-3.762a2.394,2.394,0,0,1,1.79-1.062c.925,0,1.29.561,1.29,1.411V1.472h1.365V-3.777A2.359,2.359,0,0,1,38.6-4.824c.9,0,1.274.561,1.274,1.411Zm3.535,0h1.365V-8.647H43.412Z" transform="translate(2290.844 797.254)" fill="#666"/>
        <path id="Path_14085" data-name="Path 14085" d="M.6-3.58A4.977,4.977,0,0,0,5.7,1.654a4.977,4.977,0,0,0,5.1-5.234A4.977,4.977,0,0,0,5.7-8.814,4.977,4.977,0,0,0,.6-3.58Zm8.633,0A3.566,3.566,0,0,1,5.7.3C3.526.3,2.161-1.365,2.161-3.58c0-2.23,1.365-3.884,3.535-3.884C7.835-7.464,9.231-5.81,9.231-3.58ZM12.144-2.2a3.658,3.658,0,0,0,3.732,3.854A3.2,3.2,0,0,0,18.622.365l-.91-.834a2.082,2.082,0,0,1-1.775.91A2.4,2.4,0,0,1,13.57-2.2a2.385,2.385,0,0,1,2.367-2.625,2.047,2.047,0,0,1,1.775.91l.91-.834a3.2,3.2,0,0,0-2.746-1.29A3.646,3.646,0,0,0,12.144-2.2Zm10,3.854a1.945,1.945,0,0,0,1.426-.47L23.219.152a1.05,1.05,0,0,1-.743.288c-.47,0-.713-.379-.713-.9v-4.2h1.487v-1.2H21.762v-2H20.4v2H19.183v1.2H20.4V-.151A1.594,1.594,0,0,0,22.142,1.654Zm7.146-.182h1.365V-3.474c0-1.866-1.35-2.564-2.943-2.564a4.119,4.119,0,0,0-3,1.2L25.3-3.9a3,3,0,0,1,2.2-.971c1.047,0,1.79.546,1.79,1.456V-2.2a3.056,3.056,0,0,0-2.4-.971,2.365,2.365,0,0,0-2.549,2.4A2.435,2.435,0,0,0,26.89,1.654a3.141,3.141,0,0,0,2.4-.986Zm0-1.608A2.321,2.321,0,0,1,27.406.7,1.512,1.512,0,0,1,25.722-.758a1.512,1.512,0,0,1,1.684-1.456,2.321,2.321,0,0,1,1.881.834Zm5.492,1.608h1.472L39.27-5.856H37.8L35.508-.106l-2.291-5.75H31.76ZM39.923-2.2a3.664,3.664,0,0,0,3.793,3.854A4.122,4.122,0,0,0,46.659.562l-.637-.9a3.115,3.115,0,0,1-2.17.865,2.4,2.4,0,0,1-2.488-2.276h5.8v-.334c0-2.245-1.365-3.96-3.565-3.96A3.685,3.685,0,0,0,39.923-2.2Zm3.672-2.716a2.168,2.168,0,0,1,2.23,2.185H41.349A2.244,2.244,0,0,1,43.594-4.915Z" transform="translate(2394.71 797.254)" fill="#666"/>
        <path id="Path_14086" data-name="Path 14086" d="M.962,1.448H2.479v-3.9H5.225a3.027,3.027,0,0,0,3.232-3.11,3.018,3.018,0,0,0-3.232-3.11H.962ZM6.894-5.561A1.738,1.738,0,0,1,5.028-3.786H2.479v-3.55H5.028A1.738,1.738,0,0,1,6.894-5.561Zm7.313,7.009h1.365V-3.5c0-1.866-1.35-2.564-2.943-2.564a4.119,4.119,0,0,0-3,1.2l.592.941a3,3,0,0,1,2.2-.971c1.047,0,1.79.546,1.79,1.456v1.214a3.056,3.056,0,0,0-2.4-.971A2.365,2.365,0,0,0,9.261-.8,2.435,2.435,0,0,0,11.81,1.63a3.141,3.141,0,0,0,2.4-.986Zm0-1.608a2.321,2.321,0,0,1-1.881.834A1.512,1.512,0,0,1,10.641-.782a1.512,1.512,0,0,1,1.684-1.456,2.321,2.321,0,0,1,1.881.834ZM17.12.493A4.169,4.169,0,0,0,20.169,1.63c1.927,0,2.958-.986,2.958-2.245,0-1.684-1.517-2.033-2.792-2.321-.91-.212-1.7-.425-1.7-1.062,0-.592.577-.956,1.5-.956a2.856,2.856,0,0,1,2.17.9l.607-.956a3.922,3.922,0,0,0-2.792-1.047c-1.79,0-2.792,1-2.792,2.17,0,1.578,1.456,1.912,2.7,2.2.941.212,1.775.455,1.775,1.183,0,.622-.546,1.047-1.578,1.047A3.55,3.55,0,0,1,17.772-.509ZM24.4-2.223A3.658,3.658,0,0,0,28.134,1.63,3.2,3.2,0,0,0,30.88.341l-.91-.834a2.082,2.082,0,0,1-1.775.91,2.4,2.4,0,0,1-2.367-2.64,2.385,2.385,0,0,1,2.367-2.625,2.047,2.047,0,0,1,1.775.91l.91-.834a3.2,3.2,0,0,0-2.746-1.29A3.646,3.646,0,0,0,24.4-2.223ZM36.9,1.448h1.365V-3.5c0-1.866-1.35-2.564-2.943-2.564a4.119,4.119,0,0,0-3,1.2l.592.941a3,3,0,0,1,2.2-.971c1.047,0,1.79.546,1.79,1.456v1.214a3.056,3.056,0,0,0-2.4-.971A2.365,2.365,0,0,0,31.957-.8,2.435,2.435,0,0,0,34.506,1.63,3.141,3.141,0,0,0,36.9.644Zm0-1.608a2.321,2.321,0,0,1-1.881.834A1.512,1.512,0,0,1,33.338-.782a1.512,1.512,0,0,1,1.684-1.456A2.321,2.321,0,0,1,36.9-1.4Zm3.55,1.608h1.365V-8.671H40.453Z" transform="translate(2381.276 744.08)" fill="#666"/>
        <path id="Path_14087" data-name="Path 14087" d="M.962,1.448H2.479v-3.9H5.225a3.027,3.027,0,0,0,3.232-3.11,3.018,3.018,0,0,0-3.232-3.11H.962ZM6.894-5.561A1.738,1.738,0,0,1,5.028-3.786H2.479v-3.55H5.028A1.738,1.738,0,0,1,6.894-5.561ZM9.321-2.223A3.664,3.664,0,0,0,13.114,1.63,4.122,4.122,0,0,0,16.058.538l-.637-.9a3.115,3.115,0,0,1-2.17.865,2.4,2.4,0,0,1-2.488-2.276h5.8V-2.1c0-2.245-1.365-3.96-3.565-3.96A3.685,3.685,0,0,0,9.321-2.223Zm3.672-2.716a2.168,2.168,0,0,1,2.23,2.185H10.748A2.244,2.244,0,0,1,12.993-4.939Zm5.28,6.387h1.365v-5.1a2.589,2.589,0,0,1,1.927-1.062,2.149,2.149,0,0,1,.47.046V-6.046a3.113,3.113,0,0,0-2.4,1.29V-5.879H18.273Zm5.128,0h1.365V-8.671H23.4Z" transform="translate(2482.808 744.08)" fill="#666"/>
        <path id="Path_14096" data-name="Path 14096" d="M.6-3.58A5.093,5.093,0,0,0,5.847,1.67,5.384,5.384,0,0,0,9.928-.121V-3.838H5.165V-2.5H8.411V-.682a3.925,3.925,0,0,1-2.564,1,3.688,3.688,0,0,1-3.687-3.9A3.666,3.666,0,0,1,5.847-7.464,3.49,3.49,0,0,1,8.624-6.1l1.229-.713a4.757,4.757,0,0,0-4.005-2A5.081,5.081,0,0,0,.6-3.58ZM11.84,1.472h1.365v-5.1a2.589,2.589,0,0,1,1.927-1.062,2.149,2.149,0,0,1,.47.046V-6.022a3.113,3.113,0,0,0-2.4,1.29V-5.856H11.84Zm8.375.182a3.633,3.633,0,0,0,3.7-3.854,3.629,3.629,0,0,0-3.7-3.838,3.637,3.637,0,0,0-3.7,3.838A3.641,3.641,0,0,0,20.215,1.654Zm0-1.214A2.387,2.387,0,0,1,17.939-2.2a2.382,2.382,0,0,1,2.276-2.625A2.373,2.373,0,0,1,22.49-2.2,2.378,2.378,0,0,1,20.215.441Zm8.678,1.214a3.633,3.633,0,0,0,3.7-3.854,3.629,3.629,0,0,0-3.7-3.838,3.637,3.637,0,0,0-3.7,3.838A3.641,3.641,0,0,0,28.893,1.654Zm0-1.214A2.387,2.387,0,0,1,26.617-2.2a2.382,2.382,0,0,1,2.276-2.625A2.373,2.373,0,0,1,31.169-2.2,2.378,2.378,0,0,1,28.893.441Zm7.373,1.032h1.472l3.019-7.328H39.285L36.994-.106,34.7-5.856H33.247Zm5.447,1.639L41.5,4.34a3.947,3.947,0,0,0,.85.106,2.316,2.316,0,0,0,2.336-1.578L48.3-5.856H46.826L44.535-.106l-2.291-5.75H40.787l3.019,7.4-.425.971a1.013,1.013,0,0,1-1.062.713A1.665,1.665,0,0,1,41.713,3.111Z" transform="translate(2149.632 689.886)" fill="#666"/>
        <path id="Path_14097" data-name="Path 14097" d="M8.077,1.448H9.595V-8.671H8.077v4.248h-5.6V-8.671H.962V1.448H2.479V-3.073h5.6Zm8.253,0H17.7V-3.5c0-1.866-1.35-2.564-2.943-2.564a4.119,4.119,0,0,0-3,1.2l.592.941a3,3,0,0,1,2.2-.971c1.047,0,1.79.546,1.79,1.456v1.214a3.056,3.056,0,0,0-2.4-.971A2.365,2.365,0,0,0,11.385-.8,2.435,2.435,0,0,0,13.934,1.63a3.141,3.141,0,0,0,2.4-.986Zm0-1.608a2.321,2.321,0,0,1-1.881.834A1.512,1.512,0,0,1,12.765-.782a1.512,1.512,0,0,1,1.684-1.456,2.321,2.321,0,0,1,1.881.834Zm2.913.652A4.169,4.169,0,0,0,22.293,1.63c1.927,0,2.958-.986,2.958-2.245,0-1.684-1.517-2.033-2.792-2.321-.91-.212-1.7-.425-1.7-1.062,0-.592.577-.956,1.5-.956a2.856,2.856,0,0,1,2.17.9l.607-.956a3.922,3.922,0,0,0-2.792-1.047c-1.79,0-2.792,1-2.792,2.17,0,1.578,1.456,1.912,2.7,2.2.941.212,1.775.455,1.775,1.183,0,.622-.546,1.047-1.578,1.047A3.55,3.55,0,0,1,19.9-.509ZM31.9,1.448h1.73L30.44-2.557,33.6-5.879H31.882L28.347-2.162V-8.671H26.981V1.448h1.365V-.585l1.108-1.123Zm2.154-3.672A3.664,3.664,0,0,0,37.844,1.63,4.122,4.122,0,0,0,40.787.538l-.637-.9a3.115,3.115,0,0,1-2.17.865,2.4,2.4,0,0,1-2.488-2.276h5.8V-2.1c0-2.245-1.365-3.96-3.565-3.96A3.685,3.685,0,0,0,34.051-2.223Zm3.672-2.716a2.168,2.168,0,0,1,2.23,2.185H35.477A2.244,2.244,0,0,1,37.723-4.939ZM43,1.448h1.365V-8.671H43Zm3.535,0H47.9V-8.671H46.537Z" transform="translate(2255.894 689.91)" fill="#666"/>
        <path id="Path_14098" data-name="Path 14098" d="M.13.523A3.34,3.34,0,0,0,2.785,1.63,3.044,3.044,0,0,0,6.092-1.677V-8.671H4.575v6.979A1.813,1.813,0,0,1,2.679.28,2.346,2.346,0,0,1,.858-.63Zm12.714.925h1.365V-3.5c0-1.866-1.35-2.564-2.943-2.564a4.119,4.119,0,0,0-3,1.2l.592.941a3,3,0,0,1,2.2-.971c1.047,0,1.79.546,1.79,1.456v1.214a3.056,3.056,0,0,0-2.4-.971A2.365,2.365,0,0,0,7.9-.8,2.435,2.435,0,0,0,10.447,1.63a3.141,3.141,0,0,0,2.4-.986Zm0-1.608a2.321,2.321,0,0,1-1.881.834A1.512,1.512,0,0,1,9.278-.782a1.512,1.512,0,0,1,1.684-1.456,2.321,2.321,0,0,1,1.881.834Zm5.492,1.608h1.472l3.019-7.328H21.355L19.064-.129l-2.291-5.75H15.317Zm10.119,0h1.365V-3.5c0-1.866-1.35-2.564-2.943-2.564a4.119,4.119,0,0,0-3,1.2l.592.941a3,3,0,0,1,2.2-.971c1.047,0,1.79.546,1.79,1.456v1.214a3.056,3.056,0,0,0-2.4-.971A2.365,2.365,0,0,0,23.509-.8,2.435,2.435,0,0,0,26.058,1.63a3.141,3.141,0,0,0,2.4-.986Zm0-1.608a2.321,2.321,0,0,1-1.881.834A1.512,1.512,0,0,1,24.89-.782a1.512,1.512,0,0,1,1.684-1.456,2.321,2.321,0,0,1,1.881.834Z" transform="translate(2363.122 689.91)" fill="#333"/>
        <path id="Path_14107" data-name="Path 14107" d="M5.787,1.654A4.6,4.6,0,0,0,9.807-.485l-1.29-.683A3.208,3.208,0,0,1,5.787.3,3.663,3.663,0,0,1,2.161-3.58,3.654,3.654,0,0,1,5.787-7.464,3.208,3.208,0,0,1,8.518-5.992l1.29-.683a4.576,4.576,0,0,0-4.02-2.139A5.067,5.067,0,0,0,.6-3.58,5.067,5.067,0,0,0,5.787,1.654Zm8.587-4.84h2.852V-4.1H14.374v-3.08h-1V-4.1H10.52v.91h2.852V0h1Zm7.586,0h2.852V-4.1H21.959v-3.08h-1V-4.1H18.106v.91h2.852V0h1Z" transform="translate(2140.296 636.203)" fill="#666"/>
        <path id="Path_14109" data-name="Path 14109" d="M5.787,1.657A4.6,4.6,0,0,0,9.807-.483l-1.29-.683A3.208,3.208,0,0,1,5.787.306,3.663,3.663,0,0,1,2.161-3.578,3.654,3.654,0,0,1,5.787-7.462,3.208,3.208,0,0,1,8.518-5.99l1.29-.683a4.576,4.576,0,0,0-4.02-2.139A5.067,5.067,0,0,0,.6-3.578,5.067,5.067,0,0,0,5.787,1.657Zm5.507-.182h1.365V-8.645H11.294Zm6.782.182a3.633,3.633,0,0,0,3.7-3.854,3.629,3.629,0,0,0-3.7-3.838,3.637,3.637,0,0,0-3.7,3.838A3.641,3.641,0,0,0,18.076,1.657Zm0-1.214A2.387,2.387,0,0,1,15.8-2.2a2.382,2.382,0,0,1,2.276-2.625A2.373,2.373,0,0,1,20.351-2.2,2.378,2.378,0,0,1,18.076.443Zm6.1-7.525a.868.868,0,0,0,.88-.865.881.881,0,0,0-.88-.88.89.89,0,0,0-.88.88A.877.877,0,0,0,24.175-7.082Zm.7,1.229H23.507v7.9c0,.88-.47,1.229-1.092,1.229a1.743,1.743,0,0,1-.5-.061l-.167,1.138a3.34,3.34,0,0,0,.834.091,2.131,2.131,0,0,0,2.291-2.4Zm7.115,7.328h1.365V-5.853H31.988V-.589A2.648,2.648,0,0,1,29.955.443c-.941,0-1.547-.364-1.547-1.578V-5.853H27.042V-.68a2.067,2.067,0,0,0,2.336,2.336A3.62,3.62,0,0,0,31.988.473Zm3.535,0h1.365v-5.1a2.589,2.589,0,0,1,1.927-1.062,2.149,2.149,0,0,1,.47.046V-6.02a3.113,3.113,0,0,0-2.4,1.29V-5.853H35.523ZM40.2-2.2a3.664,3.664,0,0,0,3.793,3.854A4.122,4.122,0,0,0,46.932.564l-.637-.9a3.115,3.115,0,0,1-2.17.865,2.4,2.4,0,0,1-2.488-2.276h5.8v-.334c0-2.245-1.365-3.96-3.565-3.96A3.685,3.685,0,0,0,40.2-2.2Zm3.672-2.716A2.168,2.168,0,0,1,46.1-2.728H41.622A2.244,2.244,0,0,1,43.867-4.913Z" transform="translate(2300.09 636.2)" fill="#666"/>
        <path id="Path_14110" data-name="Path 14110" d="M.962,1.448H4.573A4.921,4.921,0,0,0,9.822-3.6,4.941,4.941,0,0,0,4.573-8.671H.962ZM2.479.113V-7.336H4.573A3.5,3.5,0,0,1,8.259-3.6,3.526,3.526,0,0,1,4.573.113Z" transform="translate(2406.351 636.226)" fill="#666"/>
        <path id="Path_14111" data-name="Path 14111" d="M.962,1.448h6.8V.113H2.479V-3.042H7.653V-4.377H2.479V-7.336h5.28V-8.671H.962Zm8.663,0H10.99v-5.1a2.589,2.589,0,0,1,1.927-1.062,2.149,2.149,0,0,1,.47.046V-6.046a3.113,3.113,0,0,0-2.4,1.29V-5.879H9.625Zm5.128,0h1.365V-8.671H14.753Zm8.056,0h1.365V-3.5c0-1.866-1.35-2.564-2.943-2.564a4.119,4.119,0,0,0-3,1.2l.592.941a3,3,0,0,1,2.2-.971c1.047,0,1.79.546,1.79,1.456v1.214a3.056,3.056,0,0,0-2.4-.971A2.365,2.365,0,0,0,17.863-.8,2.435,2.435,0,0,0,20.412,1.63a3.141,3.141,0,0,0,2.4-.986Zm0-1.608a2.321,2.321,0,0,1-1.881.834A1.512,1.512,0,0,1,19.244-.782a1.512,1.512,0,0,1,1.684-1.456,2.321,2.321,0,0,1,1.881.834Zm8.5,1.608H32.67V-3.695a2.106,2.106,0,0,0-2.352-2.367,3.494,3.494,0,0,0-2.594,1.214V-5.879H26.359V1.448h1.365V-3.786a2.618,2.618,0,0,1,2.018-1.062c.941,0,1.563.394,1.563,1.608ZM34.779,3.33a3.939,3.939,0,0,0,3,1.092c1.805,0,3.641-.743,3.641-3.262v-7.04H40.059v1.062a2.991,2.991,0,0,0-2.412-1.244c-1.9,0-3.262,1.426-3.262,3.778,0,2.4,1.365,3.793,3.262,3.793A3.088,3.088,0,0,0,40.059.25v.956A2.025,2.025,0,0,1,37.783,3.3a2.859,2.859,0,0,1-2.352-.971ZM40.059-.8A2.568,2.568,0,0,1,38.026.3c-1.365,0-2.215-1.062-2.215-2.579a2.273,2.273,0,0,1,2.215-2.564,2.555,2.555,0,0,1,2.033,1.077Z" transform="translate(2164.202 958.484)" fill="#666"/>
        <path id="Path_14100" data-name="Path 14100" d="M.962,1.448H2.479V-3.042H7.653V-4.377H2.479V-7.336h5.28V-8.671H.962Zm10.954,0h1.077l.9-2.685h1.669l.273-.925H14.192l.971-2.883h1.608l.273-.91H15.466l.91-2.716H15.3l-.9,2.716H12.811l.9-2.716H12.629l-.9,2.716H10.1l-.273.91h1.593l-.941,2.883H8.882l-.3.925h1.563l-.9,2.685h1.077l.9-2.685h1.623Zm2.17-6.493L13.13-2.162H11.537l.956-2.883Z" transform="translate(2265.423 958.97)" fill="#666"/>
        <g id="Group_17272-5" data-name="Group 17272" transform="translate(2200.433 612.146)">
          <path id="Path_20636" data-name="Path 20636" d="M20.461,0H43.238A20.461,20.461,0,0,1,63.7,20.461v.7A20.461,20.461,0,0,1,43.238,41.623H20.461A20.461,20.461,0,0,1,0,21.162v-.7A20.461,20.461,0,0,1,20.461,0Z" transform="translate(0 0)" fill="#ffd065"/>
        </g>
        <path id="Path_20630" data-name="Path 20630" d="M5.477,1.03A4.321,4.321,0,0,0,9.258-.981L8.046-1.623A3.016,3.016,0,0,1,5.477-.239a3.445,3.445,0,0,1-3.41-3.652,3.437,3.437,0,0,1,3.41-3.652A3.016,3.016,0,0,1,8.046-6.16L9.258-6.8A4.3,4.3,0,0,0,5.477-8.814,4.765,4.765,0,0,0,.6-3.892,4.765,4.765,0,0,0,5.477,1.03ZM13.053.859h1.013l.842-2.525h1.569l.257-.87H15.193l.913-2.711h1.512l.257-.856H16.392l.856-2.554H16.235L15.393-6.1H13.9l.842-2.554H13.724L12.882-6.1H11.341l-.257.856h1.5L11.7-2.536H10.2l-.285.87h1.47L10.542.859h1.013L12.4-1.666h1.527Zm2.04-6.106-.9,2.711H12.7l.9-2.711Z" transform="translate(2223.365 636.369)" fill="#333"/>
        <g id="Group_17354" data-name="Group 17354" transform="translate(2429.594 666.221)">
          <rect id="Rectangle_7808-27" data-name="Rectangle 7808" width="122" height="42" rx="21" transform="translate(0.406 -0.221)" fill="#f5f6f8"/>
        </g>
        <path id="Path_20635" data-name="Path 20635" d="M.962,1.487H7.076V.152h-4.6V-8.632H.962Zm8.42-8.557a.868.868,0,0,0,.88-.865.881.881,0,0,0-.88-.88.89.89,0,0,0-.88.88A.877.877,0,0,0,9.382-7.069ZM8.715,1.487H10.08V-5.84H8.715Zm2.9-.956A4.169,4.169,0,0,0,14.662,1.67c1.927,0,2.958-.986,2.958-2.245,0-1.684-1.517-2.033-2.792-2.321-.91-.212-1.7-.425-1.7-1.062,0-.592.577-.956,1.5-.956a2.856,2.856,0,0,1,2.17.9l.607-.956a3.922,3.922,0,0,0-2.792-1.047c-1.79,0-2.792,1-2.792,2.17,0,1.578,1.456,1.912,2.7,2.2C15.466-1.441,16.3-1.2,16.3-.47c0,.622-.546,1.047-1.578,1.047A3.55,3.55,0,0,1,12.265-.47Zm9.1,3.747V.425a2.923,2.923,0,0,0,2.4,1.244c1.912,0,3.262-1.456,3.262-3.854s-1.35-3.838-3.262-3.838a2.986,2.986,0,0,0-2.4,1.229V-5.84H19.35V4.279Zm4.233-6.463c0,1.532-.834,2.64-2.2,2.64A2.55,2.55,0,0,1,20.715-.621v-3.11a2.51,2.51,0,0,1,2.033-1.077C24.114-4.809,24.948-3.7,24.948-2.184Zm8.845,6.691.834-.637A12.145,12.145,0,0,1,33.065-2.2a12.245,12.245,0,0,1,1.563-6.084L33.793-8.9A11.216,11.216,0,0,0,31.578-2.2,11.183,11.183,0,0,0,33.793,4.507ZM35.4.061a5.178,5.178,0,0,0,3.99,1.608c2.731,0,3.823-1.472,3.823-3.049,0-2.154-1.927-2.67-3.58-3.11-1.259-.319-2.352-.607-2.352-1.517,0-.85.774-1.426,1.9-1.426A3.947,3.947,0,0,1,42.107-6.25l.88-1.123A4.961,4.961,0,0,0,39.3-8.784c-2.109,0-3.58,1.214-3.58,2.883,0,2.063,1.881,2.534,3.5,2.958,1.29.334,2.443.637,2.443,1.7,0,.728-.577,1.563-2.215,1.563a4.267,4.267,0,0,1-3.186-1.426Zm9.573,1.426h4.87a2.645,2.645,0,0,0,2.928-2.731,2.5,2.5,0,0,0-1.957-2.488,2.288,2.288,0,0,0,1.76-2.321,2.566,2.566,0,0,0-2.852-2.579H44.975Zm1.517-5.826V-7.3h2.943A1.443,1.443,0,0,1,51.013-5.81a1.432,1.432,0,0,1-1.578,1.472Zm0,4.491V-3h3.019a1.544,1.544,0,0,1,1.7,1.563,1.521,1.521,0,0,1-1.7,1.593ZM59.418,1.67A4.6,4.6,0,0,0,63.438-.47l-1.29-.683A3.208,3.208,0,0,1,59.418.319a3.663,3.663,0,0,1-3.626-3.884,3.654,3.654,0,0,1,3.626-3.884,3.208,3.208,0,0,1,2.731,1.472l1.29-.683A4.576,4.576,0,0,0,59.418-8.8a5.067,5.067,0,0,0-5.189,5.234A5.067,5.067,0,0,0,59.418,1.67Zm5.538-.182h6.114V.152h-4.6V-8.632H64.955Zm8.5-3.687a12,12,0,0,1-1.578,6.069l.834.637A11.1,11.1,0,0,0,74.938-2.2,11.129,11.129,0,0,0,72.708-8.9l-.834.622A12.1,12.1,0,0,1,73.451-2.2Z" transform="translate(2453.419 690.357)" fill="#666"/>
        <g id="Group_17355" data-name="Group 17355" transform="translate(2472.562 827.066)">
          <g id="Group_17272-6" data-name="Group 17272" transform="translate(0 0)">
            <path id="Path_20638" data-name="Path 20638" d="M20.461,0H58.9A20.461,20.461,0,0,1,79.363,20.461v.567A20.461,20.461,0,0,1,58.9,41.489H20.461A20.461,20.461,0,0,1,0,21.028v-.567A20.461,20.461,0,0,1,20.461,0Z" transform="translate(0 0)" fill="#ffd065"/>
          </g>
        </g>
        <path id="Path_20637" data-name="Path 20637" d="M.962,1.543H5.877A2.67,2.67,0,0,0,8.833-1.214,2.525,2.525,0,0,0,6.858-3.725,2.31,2.31,0,0,0,8.634-6.068a2.59,2.59,0,0,0-2.879-2.6H.962Zm1.531-5.88V-7.323H5.464a1.456,1.456,0,0,1,1.593,1.5A1.445,1.445,0,0,1,5.464-4.337ZM2.493.2V-2.99H5.541A1.559,1.559,0,0,1,7.256-1.413,1.535,1.535,0,0,1,5.541.2ZM15.264,1.543h1.378V-3.449c0-1.883-1.363-2.588-2.971-2.588a4.158,4.158,0,0,0-3.032,1.21l.6.949a3.027,3.027,0,0,1,2.22-.98c1.057,0,1.807.551,1.807,1.47v1.225a3.085,3.085,0,0,0-2.419-.98A2.387,2.387,0,0,0,10.272-.724a2.458,2.458,0,0,0,2.573,2.45,3.17,3.17,0,0,0,2.419-1Zm0-1.623a2.343,2.343,0,0,1-1.9.842,1.526,1.526,0,0,1-1.7-1.47,1.526,1.526,0,0,1,1.7-1.47,2.343,2.343,0,0,1,1.9.842ZM18.2.578a4.208,4.208,0,0,0,3.078,1.148c1.945,0,2.986-1,2.986-2.266,0-1.7-1.531-2.052-2.818-2.343-.919-.214-1.715-.429-1.715-1.072,0-.6.582-.965,1.516-.965a2.883,2.883,0,0,1,2.19.9l.613-.965a3.958,3.958,0,0,0-2.818-1.057c-1.807,0-2.818,1.011-2.818,2.19,0,1.593,1.47,1.929,2.726,2.22.949.214,1.792.459,1.792,1.194,0,.628-.551,1.057-1.593,1.057A3.583,3.583,0,0,1,18.863-.433Zm12.8.965h1.378V-3.679a2.1,2.1,0,0,0-2.374-2.358,3.554,3.554,0,0,0-2.619,1.225V-8.671H26.014V1.543h1.378V-3.74a2.642,2.642,0,0,1,2.037-1.072c.949,0,1.577.368,1.577,1.593Z" transform="translate(2495.13 850.927)" fill="#333"/>
      </g>
    </g>
  </g>
</svg>
