<svg width="100" height="83" viewBox="0 0 100 83" fill="none" xmlns="http://www.w3.org/2000/svg">
<path d="M58.0737 68.1912L50.0373 64.2046C47.1852 62.7864 43.7816 62.8021 40.9452 64.2676L32.9719 68.3646C25.8337 72.0361 17.4034 66.2373 18.727 58.5634L20.1925 49.9912C20.7125 46.9343 19.641 43.8458 17.3246 41.7028L10.801 35.6834C4.97068 30.2943 8.10644 20.8082 16.1113 19.6264L25.0616 18.3185C28.2446 17.8458 30.9864 15.9076 32.3889 13.1343L36.344 5.31851C39.8737 -1.70937 50.2264 -1.78816 53.8507 5.17669L57.9161 12.9452C59.3658 15.7028 62.1234 17.6094 65.3064 18.0349L74.2725 19.2167C82.2931 20.2882 85.5549 29.727 79.8034 35.1949L73.3586 41.3088C71.0737 43.4834 70.0337 46.6034 70.601 49.6446L72.1925 58.2009C73.6107 65.8434 65.2749 71.7524 58.0737 68.1912Z" fill="#FBE000"/>
<g opacity="0.6">
<path d="M17.4664 23.2822C17.4979 23.2822 17.5452 23.2822 17.5767 23.2822L25.6131 22.1004C30.0252 21.4543 33.8385 18.744 35.8082 14.8519L39.7634 7.03611C40.7719 5.0349 42.7888 3.85308 45.1367 3.85308C45.2313 3.85308 45.3101 3.86884 45.4046 3.86884L45.5937 3.8846C46.0191 3.91611 46.3816 3.5852 46.4131 3.15975C46.4446 2.73429 46.1137 2.37187 45.704 2.34035C45.4204 2.3246 45.2943 2.30884 45.1525 2.30884C42.2058 2.30884 39.6846 3.82157 38.4082 6.34278L34.4531 14.1585C32.7197 17.6094 29.3319 20.0046 25.4082 20.5876L17.3719 21.7694C16.9464 21.8325 16.6628 22.2264 16.7258 22.6361C16.7731 23.0143 17.0882 23.2822 17.4664 23.2822Z" fill="white"/>
</g>
<g opacity="0.07">
<path d="M13.2749 20.4615C11.6991 23.8494 12.1719 28.0882 15.4022 31.0664L21.9258 37.0858C24.2422 39.2288 25.3137 42.3331 24.7937 45.3743L23.3282 53.9464C22.0046 61.6203 30.4349 67.4191 37.5731 63.7476L45.5464 59.6506C48.3828 58.2009 51.7864 58.1694 54.6385 59.5876L62.6749 63.5743C65.6846 65.0712 68.8991 64.8821 71.5149 63.6215C69.3719 68.2543 63.4155 70.8228 58.0737 68.1755L50.0373 64.1888C47.1852 62.7706 43.7816 62.7864 40.9452 64.2519L32.9719 68.3488C25.8337 72.0203 17.4034 66.2215 18.727 58.5476L20.1925 49.9755C20.7125 46.9185 19.6409 43.83 17.3246 41.687L10.8009 35.6676C5.71125 30.9719 7.44458 23.1561 13.2749 20.4615Z" fill="black"/>
</g>
<path d="M13.5901 57.1137C13.8422 57.1137 14.0785 56.9561 14.1416 56.6882C14.2361 56.3888 14.047 56.0579 13.7476 55.9791C10.9901 55.1912 8.31127 54.3718 6.01066 52.9064C3.55248 51.3621 1.8349 49.0615 1.29914 46.6034C1.01551 45.3112 1.12581 43.9561 1.6143 42.7585C2.03975 41.6712 2.71733 40.6155 3.8046 39.3391C5.60096 37.2118 7.75975 35.447 10.2022 34.0918C10.4858 33.9343 10.5804 33.5876 10.4228 33.304C10.2652 33.0361 9.91854 32.9258 9.6349 33.0834C7.06642 34.5173 4.81309 36.3609 2.92218 38.5985C2.19733 39.4494 1.15733 40.7731 0.542787 42.3331C-0.0244865 43.7355 -0.150552 45.3428 0.180357 46.8555C0.779145 49.6131 2.68581 52.1815 5.39612 53.8834C7.82278 55.4276 10.5804 56.2785 13.4325 57.0979C13.4955 57.1137 13.5428 57.1137 13.5901 57.1137Z" fill="#222222"/>
<path d="M19.5306 49.3136C19.6725 49.3136 19.7985 49.2663 19.9088 49.1718C20.1452 48.967 20.1767 48.6045 19.9561 48.3524C18.5537 46.7451 16.6155 45.6579 14.504 45.3112C14.1888 45.2482 13.8894 45.4688 13.8422 45.7839C13.7949 46.0991 13.9997 46.3985 14.3149 46.4457C16.1585 46.7609 17.8603 47.7064 19.0894 49.1245C19.2155 49.2506 19.3731 49.3136 19.5306 49.3136Z" fill="#222222"/>
<path d="M16.9937 46.8397C17.0882 46.8397 17.1985 46.8082 17.2931 46.7609C19.5464 45.39 21.6737 43.7827 23.5804 41.9549C23.8167 41.7343 23.8167 41.3718 23.5961 41.1355C23.3755 40.8991 23.0131 40.8991 22.7767 41.1197C20.9173 42.8846 18.8688 44.4603 16.6943 45.784C16.4264 45.9415 16.3319 46.304 16.5052 46.5718C16.6155 46.7452 16.8046 46.8397 16.9937 46.8397Z" fill="#222222"/>
<path d="M13.7319 62.6446C13.7634 62.6446 13.7791 62.6446 13.8107 62.6446C14.9925 62.5973 15.9852 61.967 16.8519 61.4155L17.1198 61.2421C18.081 60.5961 18.9791 59.887 19.8143 59.0991C20.0507 58.8785 20.0507 58.5161 19.8301 58.2797C19.6095 58.0433 19.247 58.0433 19.0107 58.264C18.2228 59.0046 17.3719 59.6821 16.4895 60.2809L16.2216 60.4543C15.4337 60.9585 14.6301 61.4785 13.7634 61.51C13.3694 61.5573 12.9755 61.3682 12.7076 61.0846C12.4713 60.8482 12.424 60.4858 12.5658 60.2021C13.0701 59.2882 14.0785 58.7997 14.8507 58.5476C15.1501 58.453 15.3234 58.1221 15.2131 57.8227C15.1185 57.5233 14.7876 57.35 14.4882 57.4603C13.527 57.7755 12.2349 58.4215 11.5416 59.6664C11.1476 60.407 11.2895 61.3209 11.8725 61.8882C12.3295 62.3452 13.0228 62.6446 13.7319 62.6446Z" fill="#222222"/>
<path d="M11.4785 59.5876C12.3767 59.5876 13.2119 59.0361 13.5428 58.8155C13.8107 58.6422 13.8737 58.2798 13.7004 58.0119C13.527 57.744 13.1646 57.681 12.8967 57.8543C12.0301 58.4373 11.4155 58.5634 10.9901 58.2955C10.7379 58.1537 10.5804 57.9173 10.5331 57.6179C10.4858 57.3185 10.5804 57.0192 10.7694 56.8301C10.9901 56.6095 10.9901 56.247 10.7694 56.0107C10.5488 55.7901 10.1864 55.7901 9.95005 56.0107C9.50884 56.4519 9.30399 57.1137 9.39854 57.7755C9.49308 58.4373 9.85551 58.9731 10.407 59.2725C10.7694 59.4931 11.1319 59.5876 11.4785 59.5876Z" fill="#222222"/>
<path d="M48.3512 31.2712C48.6821 31.2712 49.0131 31.2397 49.3597 31.1451C51.03 30.6566 51.9912 29.2227 52.8264 27.9463L52.9209 27.7888C53.0943 27.5209 53.0312 27.1742 52.7634 26.9851C52.4955 26.8118 52.1331 26.8748 51.9597 27.1427L51.8494 27.3003C51.0773 28.4506 50.2894 29.6639 49.0446 30.0263C47.5634 30.4203 46.0979 29.4433 45.3573 28.813C45.1209 28.6082 44.7585 28.6397 44.5537 28.8918C44.3488 29.1282 44.3803 29.4906 44.6324 29.6954C45.3731 30.3415 46.7597 31.2712 48.3512 31.2712Z" fill="#222222"/>
<path d="M41.1343 22.0216C41.2289 22.0216 41.3234 21.9901 41.418 21.9428C41.6858 21.7852 41.7961 21.4385 41.6386 21.1549C41.5598 21.0131 41.544 20.8555 41.5755 20.6979C41.6543 20.3985 41.4652 20.0834 41.1658 20.0046C40.8664 19.9258 40.5513 20.1149 40.4725 20.4143C40.3622 20.8555 40.4252 21.3282 40.6458 21.7222C40.7246 21.9113 40.9295 22.0216 41.1343 22.0216Z" fill="#222222"/>
<path d="M49.3598 21.0919C49.4228 21.0919 49.4858 21.0761 49.5489 21.0604C49.8483 20.9501 50.0058 20.6349 49.8955 20.3355C49.7852 20.0046 49.738 19.6264 49.7852 19.2798C49.8325 18.9489 49.5961 18.6652 49.281 18.6337C48.9816 18.5864 48.6822 18.8228 48.6349 19.138C48.5719 19.658 48.6349 20.2095 48.8083 20.7137C48.9028 20.9501 49.1234 21.0919 49.3598 21.0919Z" fill="#222222"/>
<path d="M54.9222 63.4167C54.5125 65.1342 54.5283 66.8203 55.584 68.0336C56.2931 68.8373 57.2543 69.3573 58.1998 69.8457C63.5889 72.4142 69.104 74.8567 74.3355 77.7088C74.9343 78.0397 75.5331 78.3548 76.1949 78.5282C76.8567 78.6857 77.5974 78.6542 78.1646 78.3076C79.3149 77.5985 80.5125 75.5815 81.0483 74.3839C83.1755 69.6409 95.5295 44.6809 96.018 42.2542C96.2701 40.9936 95.9707 39.9536 95.3404 39.1185C94.5683 38.0627 93.3234 37.2906 92.0471 36.6918C87.9816 34.7536 83.9319 32.8312 79.8664 30.893C78.3064 30.1524 76.6992 29.396 74.9658 29.3173C72.1925 29.1754 70.8846 30.9245 69.7658 33.1463C67.9064 36.7706 59.618 53.3633 57.1913 57.9645C56.5137 59.3039 55.4107 61.3839 54.9222 63.4167Z" fill="white"/>
<path d="M55.1113 63.133C55.3003 63.133 55.4737 63.0069 55.5209 62.8336C55.9937 61.3051 56.7028 59.8712 57.3961 58.5475L70.3331 33.0203C70.4276 32.8469 70.5064 32.6736 70.5852 32.5003C70.8373 31.9645 71.0894 31.4603 71.4361 31.0191C71.7985 30.5306 72.4603 30.2312 73.2009 30.2154C73.4373 30.2154 73.6264 30.0106 73.6264 29.7742C73.6264 29.5378 73.4373 29.396 73.1852 29.3488C72.1609 29.3803 71.2785 29.79 70.7585 30.4991C70.3646 31.0033 70.0809 31.5863 69.8131 32.1378C69.7343 32.3112 69.6555 32.4845 69.5609 32.6421L56.624 58.1536C55.9149 59.5088 55.1743 60.99 54.6858 62.5815C54.6228 62.8021 54.7488 63.0542 54.9694 63.1172C55.0325 63.1172 55.0797 63.133 55.1113 63.133Z" fill="#222222"/>
<path d="M54.9222 63.4167C53.9925 65.8119 53.4882 68.5064 55.0955 70.287C55.8676 71.1379 56.9234 71.7052 57.9476 72.2252C63.7937 75.0143 69.7973 77.6773 75.4858 80.7658C76.1319 81.1125 76.7937 81.4749 77.5185 81.6482C78.2434 81.8373 79.0313 81.8216 79.6458 81.4591C80.8749 80.7501 82.1197 78.6701 82.6713 77.4095C84.8616 72.5088 97.6882 46.6507 98.161 44.1295C98.6022 41.8288 97.1997 40.2531 95.3876 39.1028C96.0022 39.9537 96.3173 40.9779 96.0652 42.2385C95.5767 44.6494 83.207 69.6252 81.0955 74.3682C80.5597 75.5658 79.3622 77.5828 78.2119 78.2919C77.6288 78.6385 76.904 78.6701 76.2422 78.5125C75.5804 78.3549 74.9816 78.024 74.3828 77.6931C69.1513 74.841 63.6361 72.3985 58.247 69.8301C57.3016 69.3416 56.3246 68.8373 55.6313 68.0179C54.5282 66.8361 54.5125 65.1343 54.9222 63.4167Z" fill="#EA625C"/>
<path d="M81.2846 51.567C81.4422 51.567 81.5997 51.4725 81.6785 51.3149C81.7888 51.0943 81.6943 50.8422 81.4737 50.7319L70.9476 45.721C70.727 45.6264 70.4749 45.7052 70.3646 45.9258C70.2543 46.1464 70.3488 46.3986 70.5694 46.5089L81.1112 51.5198C81.1585 51.5513 81.2215 51.567 81.2846 51.567Z" fill="#222222"/>
<path d="M81.3792 55.5063C81.5368 55.5063 81.6943 55.4118 81.7731 55.2542C81.8834 55.0336 81.7889 54.7815 81.5683 54.6712L67.3392 47.8797C67.1186 47.7851 66.8665 47.8639 66.7561 48.0845C66.6458 48.3051 66.7404 48.5573 66.961 48.6676L81.1901 55.4591C81.2531 55.4906 81.3161 55.5063 81.3792 55.5063Z" fill="#222222"/>
<path d="M86.5476 50.1646C86.7052 50.1646 86.8628 50.07 86.9416 49.9124C87.0519 49.6918 86.9573 49.4397 86.7367 49.3294L73.201 42.8846C72.9804 42.79 72.7282 42.8688 72.6179 43.0894C72.5076 43.31 72.6022 43.5621 72.8228 43.6724L86.3585 50.1173C86.4216 50.1488 86.4846 50.1646 86.5476 50.1646Z" fill="#222222"/>
<path d="M63.7622 70.8385C63.7937 70.8385 63.8409 70.8385 63.8725 70.8385C64.1088 70.8227 64.2822 70.6179 64.2664 70.3815C64.2506 70.1451 64.03 69.9561 63.8094 69.9876C63.5258 70.0191 63.2264 69.8142 62.927 69.6409C62.5488 69.4045 62.2022 69.1682 61.8713 68.9161C61.1622 68.3803 60.5634 67.8288 60.0749 67.2458C59.4761 66.5524 58.184 64.7561 58.8616 62.9912C58.9403 62.7706 58.83 62.5185 58.6094 62.4397C58.3888 62.3609 58.1367 62.4712 58.0579 62.6918C57.207 64.8821 58.7197 67.0094 59.4131 67.813C59.9488 68.4433 60.5791 69.0264 61.3512 69.6094C61.6979 69.8773 62.0603 70.1136 62.4228 70.35C62.8167 70.5706 63.2422 70.8385 63.7622 70.8385Z" fill="#222222"/>
<path d="M98.0034 42.5536C98.1452 42.5536 98.2713 42.4906 98.3658 42.3645C99.1852 41.167 99.4216 39.7015 98.9804 38.4724C98.744 37.8106 98.3501 37.2276 97.7985 36.7864C97.2785 36.3767 96.6167 36.1245 95.8604 36.0615C94.5367 35.9985 93.1816 36.7864 92.4095 38.0154C91.5901 39.2918 91.5901 40.9148 92.4095 41.9706C92.5513 42.1597 92.8349 42.1912 93.0082 42.0494C93.1973 41.9076 93.2288 41.6397 93.087 41.4506C92.3937 40.5524 92.6143 39.2918 93.1343 38.4882C93.7488 37.5112 94.8519 36.8809 95.8131 36.9439C96.1913 36.9754 96.7743 37.0857 97.2628 37.4797C97.6725 37.8106 97.9876 38.2676 98.161 38.7718C98.5076 39.733 98.3028 40.9306 97.6567 41.8918C97.5149 42.0809 97.5779 42.3645 97.767 42.4906C97.8301 42.5379 97.9246 42.5536 98.0034 42.5536Z" fill="#222222"/>
<path d="M88.344 40.0955C88.4543 40.0955 88.5804 40.0482 88.6591 39.9537C88.8167 39.7803 88.801 39.5124 88.6276 39.3391C87.824 38.5985 87.3985 37.4797 87.5404 36.4082C87.6822 35.3367 88.3597 34.3597 89.3367 33.8555C90.2191 33.367 91.4167 33.4458 92.3779 34.0603C93.1973 34.5488 93.9537 35.573 93.7016 36.6761C93.6543 36.9124 93.7961 37.133 94.0325 37.1961C94.2688 37.2591 94.5052 37.1015 94.5525 36.8809C94.8361 35.573 94.127 34.1234 92.8349 33.3512C91.6058 32.5791 90.0616 32.4846 88.927 33.1149C87.7294 33.7452 86.8628 34.9743 86.6894 36.3137C86.5161 37.653 87.0361 39.0555 88.0446 39.9852C88.1391 40.064 88.2494 40.0955 88.344 40.0955Z" fill="#222222"/>
<path d="M83.9319 38.3464C84.0107 38.3464 84.0895 38.3306 84.1682 38.2834C84.3731 38.1573 84.4204 37.8894 84.2943 37.6846C83.6798 36.7391 83.3331 35.8252 83.2701 34.9428C83.1913 33.9658 83.4907 33.0046 84.1052 32.327C84.6725 31.6652 85.6495 31.3973 86.5634 31.6652C87.5876 31.9331 88.3755 32.5318 88.7537 33.2882C88.864 33.5088 89.1161 33.5876 89.3367 33.4773C89.5573 33.367 89.6361 33.1149 89.5258 32.8943C89.0373 31.9015 88.0446 31.1452 86.784 30.83C85.5549 30.4676 84.2155 30.8458 83.4434 31.7597C82.687 32.5949 82.2931 33.8082 82.4034 35.0058C82.4822 36.0143 82.8761 37.07 83.5695 38.1415C83.6482 38.2676 83.7901 38.3464 83.9319 38.3464Z" fill="#222222"/>
<path d="M79.8507 36.1088C79.9925 36.1088 80.1185 36.0458 80.1973 35.9355C80.3391 35.7464 80.2919 35.4785 80.1028 35.3367C79.2991 34.7536 78.7949 33.7294 78.7634 32.6421C78.7476 31.5549 79.1258 30.4833 79.8034 29.6955C80.4652 28.8445 81.6785 28.75 82.5137 29.0809C83.0179 29.27 83.3961 29.6009 83.5852 29.9948C83.8058 30.4361 83.8531 30.9561 83.9004 31.5391C83.9161 31.7755 84.1367 31.9803 84.3573 31.933C84.5937 31.9173 84.7828 31.7124 84.767 31.4761C84.7198 30.83 84.6567 30.1997 84.3731 29.6009C84.0895 29.0179 83.5379 28.5452 82.8446 28.2773C81.5052 27.7415 79.961 28.1039 79.1573 29.1597C78.3695 30.0894 77.9125 31.3815 77.9282 32.6736C77.944 34.0288 78.6058 35.3209 79.6143 36.0458C79.6616 36.0773 79.7561 36.1088 79.8507 36.1088Z" fill="#222222"/>
<path d="M74.824 33.5718C74.9028 33.5718 74.9816 33.5561 75.0604 33.5088C75.2652 33.3827 75.3125 33.1149 75.1864 32.91C74.6979 32.1537 74.4143 31.1767 74.3828 30.0737C74.3513 29.27 74.4773 28.1512 75.1707 27.3476C75.7695 26.6858 76.8095 26.4652 77.6289 26.8276C78.5901 27.2688 78.9052 28.4506 78.9998 29.1282C79.0313 29.3646 79.2519 29.5221 79.4882 29.4906C79.7246 29.4591 79.8822 29.2385 79.8507 29.0021C79.7246 28.167 79.2992 26.6543 77.9755 26.0555C76.8252 25.5512 75.3755 25.8664 74.5246 26.7961C73.8313 27.6155 73.4846 28.75 73.5319 30.1209C73.5792 31.3815 73.9101 32.5161 74.4773 33.3985C74.5404 33.5088 74.6822 33.5718 74.824 33.5718Z" fill="#222222"/>
<path d="M74.7137 33.8397C74.8713 33.8397 75.0131 33.8082 75.1549 33.7452C75.6276 33.4931 75.8325 32.8785 75.5803 32.39C75.5016 32.2482 75.3282 32.2009 75.2022 32.264C75.0603 32.3428 74.9973 32.5003 75.0761 32.6579C75.1706 32.847 75.0919 33.1306 74.887 33.2409C74.6979 33.3355 74.4143 33.2409 74.3197 33.0518C74.241 32.91 74.0676 32.8628 73.9258 32.9415C73.784 33.0203 73.7367 33.1937 73.8155 33.3355C73.9731 33.6506 74.3355 33.8397 74.7137 33.8397Z" fill="#222222"/>
<path d="M79.3622 36.4713C79.5198 36.4713 79.6931 36.4397 79.8349 36.3767C80.3549 36.1561 80.7016 35.5888 80.6386 35.0216C80.6228 34.864 80.481 34.7537 80.3234 34.7694C80.1658 34.7852 80.0555 34.927 80.0713 35.0846C80.1028 35.3997 79.9137 35.7307 79.6301 35.841C79.3464 35.9513 78.9682 35.8567 78.7792 35.6204C78.6846 35.4943 78.4955 35.4785 78.3695 35.5731C78.2434 35.6676 78.2276 35.8567 78.3222 35.9828C78.5743 36.2979 78.9682 36.4713 79.3622 36.4713Z" fill="#222222"/>
<path d="M83.7428 38.6773C83.8531 38.6773 83.9634 38.6615 84.0579 38.63C84.5937 38.4725 84.9719 37.9682 84.9561 37.4167C84.9561 37.2591 84.8301 37.1331 84.6725 37.1331C84.5149 37.1331 84.3889 37.2591 84.3889 37.4167C84.3889 37.7003 84.184 37.9997 83.9004 38.0628C83.6325 38.1415 83.3016 38.0155 83.144 37.7634C83.0652 37.6215 82.8919 37.59 82.7501 37.6688C82.6083 37.7476 82.5767 37.9209 82.6555 38.0628C82.8919 38.4567 83.3173 38.6773 83.7428 38.6773Z" fill="#222222"/>
<path d="M87.9658 40.6155C88.218 40.6155 88.4701 40.5524 88.6907 40.4106C89.1634 40.0955 89.3998 39.4652 89.2264 38.9137C89.1792 38.7561 89.0216 38.6773 88.864 38.7246C88.7064 38.7718 88.6277 38.9294 88.6749 39.087C88.7695 39.4021 88.6434 39.7646 88.3755 39.9379C88.1077 40.1112 87.7137 40.0797 87.4773 39.8749C87.3513 39.7803 87.178 39.7803 87.0677 39.9064C86.9731 40.0324 86.9889 40.2058 87.0992 40.3161C87.3513 40.5209 87.6507 40.6155 87.9658 40.6155Z" fill="#222222"/>
<path d="M92.6458 42.7113C92.8034 42.7113 92.961 42.6797 93.1185 42.6167C93.5755 42.4119 93.8749 41.9391 93.8591 41.4349C93.8591 41.2773 93.7331 41.1355 93.5598 41.167C93.4022 41.167 93.2761 41.3088 93.2761 41.4664C93.2919 41.7343 93.1185 42.0022 92.8822 42.0967C92.6458 42.207 92.3307 42.144 92.1573 41.9391C92.047 41.8288 91.8579 41.8288 91.7476 41.9391C91.6373 42.0494 91.6373 42.2385 91.7476 42.3488C91.984 42.5852 92.3149 42.7113 92.6458 42.7113Z" fill="#222222"/>
<path d="M80.1343 71.1694C81.5052 71.1694 82.8604 70.6337 83.8689 69.6725C84.1052 69.4519 84.1052 69.0894 83.8846 68.8531C83.664 68.6167 83.3016 68.6167 83.0652 68.8373C82.1828 69.6725 80.9537 70.1137 79.7561 69.9876C79.378 69.9561 78.7319 69.83 78.6058 69.3888C78.464 68.8531 78.8895 68.2858 79.0943 68.0652C79.9452 67.1828 81.2216 66.7573 82.4349 66.3791C83.5064 66.064 84.6095 65.8276 85.6967 65.607L86.3901 65.4652C87.7137 65.1816 89.1161 64.8349 90.424 64.2361C91.8264 63.5743 92.961 62.5816 93.7174 61.3525C95.0883 58.9888 95.5767 56.0422 95.1355 53.0325C95.0883 52.7173 94.7889 52.4967 94.4737 52.544C94.1586 52.5913 93.938 52.8906 93.9852 53.2058C94.3949 55.9634 93.9537 58.6579 92.7246 60.7694C92.1101 61.7779 91.1174 62.6603 89.9355 63.1961C88.738 63.7476 87.3986 64.0628 86.138 64.3464L85.4604 64.4882C84.3574 64.7246 83.2228 64.9609 82.104 65.2919C80.7961 65.6858 79.3149 66.19 78.2434 67.2931C77.5501 68.0809 77.2822 68.9476 77.5028 69.7197C77.7549 70.5391 78.5113 71.0276 79.6616 71.1379C79.8192 71.1694 79.9767 71.1694 80.1343 71.1694Z" fill="#222222"/>
<path d="M84.9561 74.8567C84.4991 75.298 83.5537 75.3767 83.0179 75.2349C82.2615 75.0301 80.7331 74.3683 80.9222 73.407C81.0009 73.0289 81.19 72.6664 81.4894 72.4301C82.1355 71.9101 83.4906 72.4773 84.184 72.824C84.704 73.0761 85.3185 73.7695 85.2082 74.384C85.1767 74.5731 85.0822 74.7307 84.9561 74.8567Z" fill="white"/>
<path d="M83.7113 75.3137C84.3416 76.0228 83.9791 77.1573 83.3173 77.7561C82.3719 78.5913 81.2688 78.6543 80.15 78.087C79.3622 77.6931 78.2434 76.9682 78.5743 75.944C78.9525 74.7464 80.7961 74.5416 81.8203 74.8567" fill="white"/>
<path d="M83.6167 75.8652C84.1367 75.8652 84.641 75.7391 85.0822 75.4713C85.1925 75.4082 85.2713 75.3137 85.3186 75.2034C85.4289 75.1561 85.5234 75.0931 85.5864 74.9828C85.9646 74.4155 85.8701 73.6434 85.3501 73.0131C84.9719 72.4931 84.3889 72.2252 83.9792 72.0676C83.601 71.91 83.081 71.7052 82.498 71.6422C81.7889 71.5161 81.0798 71.8313 80.7173 72.4143C80.2761 73.0446 80.2131 73.7852 80.5598 74.321C80.8907 74.8567 81.4264 75.1719 81.8519 75.3925C82.4349 75.7234 83.0495 75.8652 83.6167 75.8652ZM84.5622 74.4628C84.5307 74.4785 84.4992 74.4943 84.4834 74.51C83.9319 74.841 83.144 74.7937 82.3877 74.3997C82.0883 74.2422 81.7258 74.0373 81.5367 73.7379C81.4264 73.5646 81.5367 73.281 81.6786 73.0761C81.8204 72.8397 82.1198 72.7767 82.3246 72.8082C82.7816 72.8555 83.207 73.0288 83.5222 73.1549C83.9792 73.344 84.247 73.5173 84.4204 73.7379C84.5937 73.9428 84.704 74.2264 84.6095 74.3682C84.5937 74.3997 84.578 74.4313 84.5622 74.4628Z" fill="#222222"/>
<path d="M81.9622 78.607C82.5925 79.3161 82.2301 80.4507 81.5682 81.0495C80.6228 81.8846 79.5197 81.9476 78.401 81.3804C77.6131 80.9864 76.4943 80.2616 76.8252 79.2373C77.2034 78.0398 79.047 77.8349 80.0713 78.1501" fill="white"/>
<path d="M79.8034 82.3257C80.3707 82.3257 80.9222 82.1839 81.3949 81.8845C82.498 81.2857 83.2701 79.7888 82.5925 78.5282C82.4349 78.2445 82.0883 78.15 81.8204 78.2918C81.5367 78.4494 81.4422 78.796 81.584 79.0797C81.9149 79.6942 81.4422 80.5451 80.8119 80.8918C80.024 81.396 79.0628 81.1439 78.464 80.7815C78.0858 80.5766 77.6919 80.3245 77.4555 79.9779C77.2822 79.7573 77.298 79.4263 77.4555 79.2057C78.0543 78.4336 79.3464 78.5912 79.7089 78.67C80.0083 78.733 80.3234 78.5124 80.3707 78.213C80.4337 77.8979 80.2131 77.5985 79.9137 77.5512C78.4798 77.2833 77.2192 77.6615 76.5258 78.5282C76.0531 79.1742 76.0531 80.0724 76.5101 80.6712C76.8725 81.1912 77.3925 81.5221 77.8652 81.79C78.4955 82.1524 79.1574 82.3257 79.8034 82.3257Z" fill="#222222"/>
<path d="M81.5682 79.0324C82.1355 79.0324 82.7028 78.8906 83.1597 78.5912C83.6797 78.3075 84.1367 77.8033 84.4046 77.2203C84.704 76.5427 84.6882 75.8336 84.3731 75.2348C84.2155 74.9512 83.8688 74.8566 83.601 74.9985C83.3173 75.156 83.2228 75.5027 83.3646 75.7863C83.5537 76.1488 83.4749 76.5112 83.3646 76.7633C83.207 77.11 82.9234 77.4251 82.5925 77.6142C81.8046 78.1185 80.8434 77.8663 80.2446 77.5039C79.8664 77.2991 79.4725 77.0469 79.2361 76.7003C79.0628 76.4797 79.0785 76.1488 79.2361 75.9282C79.8349 75.156 81.1113 75.3136 81.4894 75.3924C81.7888 75.4554 82.104 75.2348 82.1513 74.9354C82.2143 74.6203 81.9937 74.3209 81.6943 74.2736C80.2603 74.0057 78.9997 74.3839 78.3064 75.2506C77.8337 75.8966 77.8337 76.7948 78.2907 77.3936C78.6531 77.8978 79.1731 78.2445 79.6458 78.5124C80.2446 78.8433 80.9222 79.0324 81.5682 79.0324Z" fill="#222222"/>
</svg>
