<svg width="50" height="50" viewBox="0 0 50 50" fill="none" xmlns="http://www.w3.org/2000/svg">
<rect width="50" height="50" rx="10" fill="#63184E"/>
<path d="M16.2961 30.8547L10.5601 25.1649C10.3825 24.9888 10.2417 24.7797 10.1456 24.5496C10.0495 24.3195 10 24.0729 10 23.8238C10 23.5747 10.0495 23.3281 10.1456 23.098C10.2417 22.8679 10.3825 22.6588 10.5601 22.4827L16.2961 16.793L19 19.4751L14.616 23.8238L19 28.1725L16.2961 30.8547Z" fill="#F070C5"/>
<path d="M20.0418 32.4274L26.5684 14.7701L30.0484 16.1675L23.5218 33.8247L20.0418 32.4274Z" fill="#F070C5"/>
<path d="M33.7039 30.8547L31 28.1725L35.384 23.8238L31 19.4751L33.7039 16.793L39.4399 22.4827C39.6175 22.6588 39.7583 22.8679 39.8544 23.098C39.9505 23.3281 40 23.5747 40 23.8238C40 24.0729 39.9505 24.3195 39.8544 24.5496C39.7583 24.7797 39.6175 24.9888 39.4399 25.1649L33.7039 30.8547Z" fill="#F070C5"/>
</svg>
