<svg width="50" height="50" viewBox="0 0 50 50" fill="none" xmlns="http://www.w3.org/2000/svg">
<rect width="50" height="50" rx="10" fill="#4341A6"/>
<g opacity="0.5" clip-path="url(#clip0_160_4)">
<path d="M13.3513 37.94L13.7532 38.8445L28.1732 32.8653L30.6854 33.1668L31.5897 35.9302L30.3839 37.086C29.9318 37.4878 29.7811 38.1409 30.0323 38.7439L30.5348 40L38.875 36.7342L38.4229 35.5284C38.222 34.9253 37.6692 34.5738 37.0162 34.5738H35.358L34.4537 32.4131L36.6644 31.3079C37.3677 30.9561 37.6692 30.1522 37.418 29.4488L34.5543 21.7616C34.2528 20.9577 33.3985 20.6059 32.5946 20.8571C32.5946 20.8571 32.5445 20.8571 32.5445 20.9074L30.4342 21.8117L30.1327 21.058L31.2884 19.7016C32.0921 18.797 32.5946 17.6918 32.7455 16.486L34.2025 14.7275C35.1571 13.622 34.9561 11.9641 33.8507 11.0093C33.6497 10.8586 33.4488 10.708 33.2479 10.6074C32.6952 10.3562 32.1424 10.3059 31.5397 10.4568L31.3888 10.0044C31.1376 9.20068 30.2333 8.79858 29.4796 9.10009L18.8781 12.9187C18.0742 13.2202 17.6723 14.0742 17.9738 14.8278V14.8781L18.2251 15.5312C16.9187 16.1342 16.3157 17.6415 16.7678 18.9479C17.1196 19.9528 18.0239 20.6562 19.0791 20.8068L21.4406 21.058C22.3952 21.7616 23.5507 22.2138 24.7065 22.3141L26.3644 22.465L26.6659 23.2186C26.3141 23.4196 26.0629 23.7714 25.9626 24.2235L25.6107 25.9318L13.3513 30.9058L13.7031 31.8604L20.7372 29.047L22.4455 34.1717L13.3513 37.94ZM37.418 35.8299L37.5186 36.1311L31.0873 38.6936L30.9366 38.3921C30.8863 38.1912 30.9366 37.9903 31.0372 37.8396L32.7455 36.2317L34.9058 35.5284H36.9156C37.1668 35.5284 37.3177 35.6287 37.418 35.8299ZM34.2528 34.6238L32.4439 35.2268L31.7909 33.3177C32.0921 33.3677 32.3434 33.3177 32.5946 33.1668L33.4488 32.765L34.2528 34.6238ZM32.8961 21.661C33.1473 21.5604 33.4488 21.661 33.5494 21.9123L33.9513 22.9674L31.4894 23.7714L31.7909 24.726L34.2528 23.922L34.8555 25.5299L32.4942 26.3336L32.7958 27.2884L35.2074 26.4845L35.8104 28.0921L33.4991 28.8458L33.8006 29.8006L36.1619 28.9967L36.4132 29.6497C36.5137 29.901 36.4132 30.1522 36.1619 30.2528L32.1927 32.2122C32.0921 32.2625 31.9918 32.2625 31.8912 32.2625L28.4747 31.8604L26.6156 26.2836L26.9674 24.4244C27.0177 24.2738 27.1181 24.1229 27.2689 24.0726L32.8961 21.661ZM32.8458 11.5117C33.6497 11.8635 34.0518 12.8181 33.7 13.6723C33.6497 13.823 33.5494 13.9235 33.4488 14.0742L32.8458 14.8278C32.7958 14.3254 32.6952 13.8733 32.5445 13.3708L31.8912 11.4114C32.243 11.3611 32.5445 11.4114 32.8458 11.5117ZM17.7727 18.6967C17.4714 17.8425 17.823 16.9382 18.6269 16.5361L19.3303 18.2446C19.5815 18.8473 19.9333 19.4504 20.3352 19.9528L19.28 19.8522C18.5766 19.8019 17.9738 19.3498 17.7727 18.6967ZM24.9074 21.3595C22.8473 21.1586 21.0385 19.8522 20.2849 17.8928L18.9787 14.5766C18.8781 14.3254 18.9787 14.0239 19.2299 13.9235L29.8312 10.105C29.9821 10.0547 30.0824 10.0547 30.2333 10.105C30.3336 10.1553 30.4342 10.2556 30.4845 10.4065L31.5897 13.7226C32.1927 15.5815 31.7909 17.5912 30.5348 19.0483L28.9772 20.8571L29.4293 22.0629L27.6205 22.8165L27.1181 21.5604L24.9074 21.3595ZM21.6918 28.6449L22.8473 28.1927L24.1034 32.0113L25.058 31.7098L23.7519 27.7909L25.7616 26.9869L27.4699 32.0616L23.4001 33.7698L21.6918 28.6449Z" fill="white"/>
<path d="M40.1716 21.7922V22.2946H41.1765V21.7922C41.1765 20.3854 42.2819 19.28 43.6887 19.28V18.2751C42.2819 18.2751 41.1765 17.1699 41.1765 15.7629V15.2605H40.1716V15.7629C40.1716 17.1699 39.0664 18.2751 37.6594 18.2751V19.28C39.0664 19.28 40.1716 20.3854 40.1716 21.7922ZM40.674 17.5717C40.9756 18.0742 41.3774 18.4763 41.8798 18.7775C41.3774 19.0791 40.9756 19.4812 40.674 19.9836C40.3725 19.4812 39.9707 19.0791 39.4682 18.7775C39.9707 18.4763 40.3725 18.0742 40.674 17.5717Z" fill="white"/>
</g>
<defs>
<clipPath id="clip0_160_4">
<rect width="31" height="31" fill="white" transform="translate(13 9)"/>
</clipPath>
</defs>
</svg>
