<svg width="50" height="50" viewBox="0 0 50 50" fill="none" xmlns="http://www.w3.org/2000/svg">
<rect width="50" height="50" rx="10" fill="#4C3198"/>
<path d="M28.5005 15.25C28.2488 15.25 27.9993 15.1419 27.8263 14.9334C27.0606 14.0088 26.057 13.5 25 13.5C23.943 13.5 22.9394 14.0088 22.1738 14.9334C21.8662 15.3047 21.3146 15.3581 20.9416 15.0488C20.5695 14.7407 20.5178 14.1887 20.8263 13.8166C21.9303 12.484 23.4124 11.75 25 11.75C26.5877 11.75 28.0698 12.484 29.1738 13.8166C29.4823 14.1887 29.4306 14.7407 29.0584 15.0488C28.8948 15.1842 28.697 15.25 28.5005 15.25Z" fill="#C2ACFF"/>
<path d="M26.7504 17C26.4988 17 26.2492 16.8919 26.0762 16.683C25.4798 15.9635 24.5202 15.9635 23.9237 16.683C23.6153 17.0551 23.0646 17.1081 22.692 16.7988C22.3199 16.4907 22.2677 15.9391 22.5762 15.567C23.2128 14.7984 24.0737 14.375 25 14.375C25.9262 14.375 26.7871 14.7984 27.4237 15.567C27.7322 15.9391 27.6801 16.4907 27.308 16.7988C27.1448 16.9342 26.9469 17 26.7504 17Z" fill="#C2ACFF"/>
<path d="M25 18.75C25.4832 18.75 25.875 18.3582 25.875 17.875C25.875 17.3918 25.4832 17 25 17C24.5168 17 24.125 17.3918 24.125 17.875C24.125 18.3582 24.5168 18.75 25 18.75Z" fill="#C2ACFF"/>
<path d="M25 36.25C24.7676 36.25 24.5454 36.1577 24.3813 35.9937C23.4602 35.0725 22.0212 34.5 20.625 34.5H13.625C13.1418 34.5 12.75 34.1082 12.75 33.625V21.375C12.75 20.4085 13.5335 19.625 14.5 19.625L14.5 32.75H20.625C22.2092 32.75 23.79 33.2875 25 34.215C26.21 33.2875 27.7908 32.75 29.375 32.75H35.5V19.625C36.4665 19.625 37.25 20.4085 37.25 21.375V33.625C37.25 34.1082 36.8582 34.5 36.375 34.5H29.375C27.9788 34.5 26.5398 35.0725 25.6187 35.9937C25.4546 36.1577 25.2324 36.25 25 36.25Z" fill="#C2ACFF"/>
<path d="M33.75 17.875H29.2249C27.6403 17.875 26.1205 18.5045 25 19.625C23.8795 18.5045 22.3598 17.875 20.7751 17.875H16.25C15.7667 17.875 15.375 18.2667 15.375 18.75V31.875H20.7751C22.3598 31.875 23.8795 32.5045 25 33.625C26.1205 32.5045 27.6403 31.875 29.2249 31.875H34.625V18.75C34.625 18.2667 34.2333 17.875 33.75 17.875ZM23.9968 29.9968C23.9114 30.0823 23.7994 30.125 23.6875 30.125C23.5756 30.125 23.4636 30.0823 23.3782 29.9968C22.3323 28.9509 20.942 28.375 19.4629 28.375H17.5625C17.3207 28.375 17.125 28.1793 17.125 27.9375C17.125 27.6957 17.3207 27.5 17.5625 27.5H19.4629C21.1761 27.5 22.786 28.1669 23.9968 29.3782C24.1677 29.5491 24.1677 29.8259 23.9968 29.9968ZM23.9968 26.4968C23.9114 26.5823 23.7994 26.625 23.6875 26.625C23.5756 26.625 23.4636 26.5823 23.3782 26.4968C22.3323 25.4509 20.942 24.875 19.4629 24.875H17.5625C17.3207 24.875 17.125 24.6793 17.125 24.4375C17.125 24.1957 17.3207 24 17.5625 24H19.4629C21.1761 24 22.786 24.6669 23.9968 25.8782C24.1677 26.0491 24.1677 26.3259 23.9968 26.4968ZM23.9968 22.9968C23.9114 23.0823 23.7994 23.125 23.6875 23.125C23.5756 23.125 23.4636 23.0823 23.3782 22.9968C22.3323 21.9509 20.942 21.375 19.4629 21.375H17.5625C17.3207 21.375 17.125 21.1793 17.125 20.9375C17.125 20.6957 17.3207 20.5 17.5625 20.5H19.4629C21.1761 20.5 22.786 21.1669 23.9968 22.3782C24.1677 22.5491 24.1677 22.8259 23.9968 22.9968ZM32.4375 28.375H30.5371C29.058 28.375 27.6677 28.9509 26.6218 29.9968C26.5364 30.0823 26.4244 30.125 26.3125 30.125C26.2006 30.125 26.0886 30.0823 26.0032 29.9968C25.8323 29.8259 25.8323 29.5491 26.0032 29.3782C27.214 28.1669 28.8239 27.5 30.5371 27.5H32.4375C32.6793 27.5 32.875 27.6957 32.875 27.9375C32.875 28.1793 32.6793 28.375 32.4375 28.375ZM32.4375 24.875H30.5371C29.058 24.875 27.6677 25.4509 26.6218 26.4968C26.5364 26.5823 26.4244 26.625 26.3125 26.625C26.2006 26.625 26.0886 26.5823 26.0032 26.4968C25.8323 26.3259 25.8323 26.0491 26.0032 25.8782C27.214 24.6669 28.8239 24 30.5371 24H32.4375C32.6793 24 32.875 24.1957 32.875 24.4375C32.875 24.6793 32.6793 24.875 32.4375 24.875ZM32.4375 21.375H30.5371C29.058 21.375 27.6677 21.9509 26.6218 22.9968C26.5364 23.0823 26.4244 23.125 26.3125 23.125C26.2006 23.125 26.0886 23.0823 26.0032 22.9968C25.8323 22.8259 25.8323 22.5491 26.0032 22.3782C27.214 21.1669 28.8239 20.5 30.5371 20.5H32.4375C32.6793 20.5 32.875 20.6957 32.875 20.9375C32.875 21.1793 32.6793 21.375 32.4375 21.375Z" fill="#C2ACFF"/>
</svg>
