<svg width="48" height="47" viewBox="0 0 48 47" fill="none" xmlns="http://www.w3.org/2000/svg">
<path d="M34.32 26.6543C32.8212 25.1556 31.0373 24.0461 29.0909 23.3745C31.1756 21.9387 32.5451 19.5358 32.5451 16.8187C32.5451 12.4321 28.9763 8.86328 24.5897 8.86328C20.2031 8.86328 16.6343 12.4321 16.6343 16.8187C16.6343 19.5358 18.0039 21.9387 20.0886 23.3745C18.1422 24.0461 16.3583 25.1556 14.8595 26.6543C12.2604 29.2534 10.829 32.709 10.829 36.3846H12.9791C12.9791 29.9825 18.1876 24.7741 24.5897 24.7741C30.9918 24.7741 36.2003 29.9825 36.2003 36.3846H38.3504C38.3504 32.709 36.919 29.2534 34.32 26.6543ZM24.5897 22.624C21.3887 22.624 18.7844 20.0198 18.7844 16.8187C18.7844 13.6176 21.3887 11.0134 24.5897 11.0134C27.7907 11.0134 30.395 13.6176 30.395 16.8187C30.395 20.0198 27.7907 22.624 24.5897 22.624Z" fill="#FFB5C2"/>
<path fill-rule="evenodd" clip-rule="evenodd" d="M0 32.8462H2V43.6411H13.5812V45.6411H0V32.8462Z" fill="#FFB5C2"/>
<path fill-rule="evenodd" clip-rule="evenodd" d="M48 13.188L46 13.188L46 2.39312L34.4188 2.39312L34.4188 0.393116L48 0.393117L48 13.188Z" fill="#FFB5C2"/>
<path fill-rule="evenodd" clip-rule="evenodd" d="M35.2051 46.0342L35.2051 44.0342L46 44.0342L46 32.453L48 32.453L48 46.0342L35.2051 46.0342Z" fill="#FFB5C2"/>
<path fill-rule="evenodd" clip-rule="evenodd" d="M12.7949 0L12.7949 2L1.99999 2L1.99999 13.5812L-1.10841e-05 13.5812L-1.04904e-05 -5.59282e-07L12.7949 0Z" fill="#FFB5C2"/>
</svg>
