<svg width="70" height="70" viewBox="0 0 70 70" fill="none" xmlns="http://www.w3.org/2000/svg">
<path d="M0 20C0 8.9543 8.95431 0 20 0H50C61.0457 0 70 8.95431 70 20V50C70 61.0457 61.0457 70 50 70H20C8.9543 70 0 61.0457 0 50V20Z" fill="#FFDECB"/>
<g clip-path="url(#clip0_94_801)">
<path d="M37.4462 27.8751C36.5303 28.0172 35.6782 28.4309 35 29.0626C34.3213 28.4315 33.4694 28.0179 32.5537 27.8751C31.8827 27.7593 31.194 27.7997 30.5411 27.9933C29.8882 28.1869 29.2888 28.5284 28.7893 28.9913C27.02 30.6776 26.925 33.7413 28.5281 36.8051C29.7156 39.1801 32.6606 41.3413 34.3231 42.3863C34.5258 42.5139 34.7604 42.5816 35 42.5816C35.2395 42.5816 35.4741 42.5139 35.6768 42.3863C37.3275 41.3413 40.2843 39.2157 41.4481 36.8407C43.075 33.7651 42.9681 30.6776 41.1987 29.0032C40.7017 28.54 40.1047 28.1973 39.454 28.0016C38.8033 27.806 38.1163 27.7627 37.4462 27.8751ZM39.2037 35.6888C38.143 37.3746 36.7036 38.7896 35 39.8213C33.2907 38.7877 31.847 37.3684 30.7843 35.677C29.7393 33.6938 29.5968 31.7107 30.535 30.8557C30.8857 30.5374 31.3438 30.3634 31.8175 30.3688C32.2585 30.3919 32.6844 30.5374 33.0473 30.7891C33.4103 31.0409 33.6958 31.3888 33.8718 31.7938C33.9899 31.9854 34.155 32.1435 34.3514 32.2532C34.5478 32.3629 34.769 32.4205 34.994 32.4205C35.219 32.4205 35.4402 32.3629 35.6367 32.2532C35.8331 32.1435 35.9982 31.9854 36.1162 31.7938C36.27 31.4385 36.5084 31.1261 36.8106 30.8839C37.1128 30.6418 37.4696 30.4772 37.85 30.4045C38.1348 30.3563 38.4268 30.373 38.7044 30.4532C38.9819 30.5333 39.2378 30.675 39.4531 30.8676C40.3556 31.7107 40.2606 33.6938 39.1918 35.7126L39.2037 35.6888Z" fill="#F3795E"/>
<path d="M20.845 35.665C20.9732 35.465 21.0506 35.2367 21.0706 35C21.066 31.8183 22.1507 28.7309 24.1444 26.2512C26.1381 23.7716 28.9206 22.0493 32.0291 21.3707C35.1376 20.6921 38.3848 21.0981 41.2305 22.5213C44.0762 23.9444 46.3489 26.2989 47.6706 29.1931C47.7318 29.3567 47.826 29.5059 47.9473 29.6314C48.0687 29.7569 48.2146 29.856 48.376 29.9226C48.5374 29.9893 48.7108 30.0219 48.8854 30.0185C49.0599 30.0151 49.2319 29.9758 49.3906 29.903C49.5493 29.8302 49.6913 29.7255 49.8077 29.5954C49.9241 29.4653 50.0125 29.3126 50.0672 29.1468C50.122 28.981 50.1421 28.8057 50.1261 28.6318C50.1101 28.458 50.0585 28.2893 49.9744 28.1363C48.5393 24.9976 46.1539 22.3895 43.1555 20.6807C40.157 18.9719 36.6973 18.2488 33.2655 18.6138C29.8337 18.9788 26.6034 20.4133 24.0315 22.7145C21.4595 25.0157 19.676 28.0672 18.9331 31.4375L18.375 30.4875C18.186 30.2009 17.891 30.0011 17.5547 29.9321C17.2184 29.863 16.8685 29.9304 16.5819 30.1194C16.2953 30.3084 16.0955 30.6034 16.0264 30.9397C15.9574 31.276 16.0248 31.6259 16.2138 31.9125L18.7431 35.6769C18.8449 35.8678 18.997 36.0273 19.1828 36.1381C19.3687 36.2489 19.5813 36.3068 19.7977 36.3056C20.014 36.3044 20.2259 36.244 20.4105 36.1311C20.5951 36.0183 20.7454 35.8571 20.845 35.665Z" fill="#F3795E"/>
<path d="M53.7862 38.0993L51.2568 34.2993C51.1093 34.0591 50.8868 33.8742 50.6237 33.7732C50.3605 33.6722 50.0714 33.6606 49.8011 33.7404C49.5308 33.8201 49.2942 33.9867 49.1281 34.2144C48.9619 34.4421 48.8754 34.7181 48.8818 34.9999C48.8865 38.1816 47.8018 41.2691 45.8081 43.7487C43.8144 46.2283 41.0318 47.9507 37.9233 48.6293C34.8148 49.3079 31.5677 48.9018 28.722 47.4787C25.8763 46.0555 23.6035 43.701 22.2818 40.8068C22.2207 40.6432 22.1265 40.4941 22.0051 40.3686C21.8837 40.243 21.7378 40.1439 21.5764 40.0773C21.415 40.0107 21.2417 39.978 21.0671 39.9814C20.8925 39.9848 20.7205 40.0241 20.5618 40.0969C20.4032 40.1697 20.2612 40.2744 20.1448 40.4045C20.0283 40.5347 19.94 40.6874 19.8852 40.8531C19.8304 41.0189 19.8104 41.1942 19.8264 41.3681C19.8424 41.5419 19.894 41.7106 19.9781 41.8637C21.4036 45.0207 23.7889 47.6475 26.7943 49.37C29.7996 51.0925 33.2718 51.8228 36.7164 51.457C40.161 51.0913 43.4024 49.648 45.979 47.3328C48.5556 45.0176 50.3361 41.9484 51.0668 38.5624L51.6843 39.4887C51.8726 39.7659 52.162 39.9584 52.4905 40.025C52.8189 40.0916 53.1604 40.0269 53.4418 39.8449C53.7163 39.657 53.9062 39.3688 53.9705 39.0424C54.0349 38.716 53.9687 38.3774 53.7862 38.0993Z" fill="#F3795E"/>
</g>
<defs>
<clipPath id="clip0_94_801">
<rect width="38" height="38" fill="white" transform="translate(16 16)"/>
</clipPath>
</defs>
</svg>
