<svg width="70" height="70" viewBox="0 0 70 70" fill="none" xmlns="http://www.w3.org/2000/svg">
<path d="M0 20C0 8.9543 8.95431 0 20 0H50C61.0457 0 70 8.95431 70 20V50C70 61.0457 61.0457 70 50 70H20C8.9543 70 0 61.0457 0 50V20Z" fill="#E0D6FF"/>
<g clip-path="url(#clip0_94_813)">
<path d="M52.9159 19.6704H48.1679C48.1851 19.1445 48.1947 18.6155 48.1947 18.084C48.1947 17.4853 47.7092 17 47.1107 17H23.8892C23.2908 17 22.8052 17.4853 22.8052 18.084C22.8052 18.6155 22.8148 19.1445 22.8321 19.6704H18.084C17.4853 19.6704 17 20.1557 17 20.7544C17 25.6114 18.2694 30.1938 20.5743 33.6578C22.8527 37.0822 25.8875 39.0463 29.166 39.2374C29.9093 40.0462 30.6949 40.7056 31.5132 41.2087V46.0264H29.6947C27.4963 46.0264 25.708 47.815 25.708 50.0132V51.8317H25.6309C25.0322 51.8317 24.5469 52.3172 24.5469 52.9157C24.5469 53.5144 25.0322 53.9996 25.6309 53.9996H45.369C45.9677 53.9996 46.453 53.5144 46.453 52.9157C46.453 52.3172 45.9677 51.8317 45.369 51.8317H45.2919V50.0132C45.2919 47.815 43.5036 46.0264 41.3052 46.0264H39.4867V41.2087C40.3051 40.7059 41.0909 40.0462 41.8342 39.2374C45.1124 39.0463 48.1473 37.0822 50.4259 33.6578C52.7308 30.1938 53.9999 25.6114 53.9999 20.7544C53.9999 20.1557 53.5147 19.6704 52.9159 19.6704ZM22.3793 32.4569C20.4781 29.5999 19.361 25.863 19.1908 21.8384H22.9532C23.3441 26.7858 24.5054 31.3588 26.3206 34.9887C26.6096 35.5669 26.9119 36.1131 27.2256 36.6274C25.4226 35.9465 23.754 34.5233 22.3793 32.4569ZM43.124 50.0132V51.832H27.876V50.0132C27.876 49.0105 28.6918 48.1944 29.6947 48.1944H41.3052C42.3082 48.1944 43.124 49.0105 43.124 50.0132ZM37.3187 46.0264H33.6812V42.1506C34.2771 42.3076 34.8843 42.3892 35.5 42.3892C36.1156 42.3892 36.7228 42.3076 37.3187 42.1506V46.0264ZM37.99 39.5717C37.9412 39.5917 37.8943 39.616 37.8494 39.6428C37.0833 40.0239 36.296 40.2212 35.5 40.2212C34.7042 40.2212 33.9172 40.0239 33.1513 39.6434C33.1059 39.616 33.0587 39.5917 33.0093 39.5711C32.1594 39.1217 31.3371 38.4431 30.5594 37.5513C30.5184 37.4929 30.4724 37.439 30.4213 37.3899C29.6493 36.4733 28.923 35.3458 28.2596 34.0191C26.2675 30.0352 25.1169 24.7968 24.9859 19.168H46.014C45.8828 24.7968 44.7322 30.0355 42.7403 34.0191C42.077 35.3458 41.3506 36.4733 40.5789 37.3899C40.5275 37.439 40.4809 37.4932 40.4403 37.5516C39.6626 38.4437 38.84 39.122 37.99 39.5717ZM48.6207 32.4569C47.2459 34.5233 45.5773 35.9465 43.7744 36.6274C44.088 36.1131 44.3903 35.5669 44.6794 34.9887C46.4945 31.3588 47.6555 26.7858 48.0468 21.8384H51.8091C51.6389 25.863 50.5219 29.5999 48.6207 32.4569Z" fill="#533C8F"/>
</g>
<defs>
<clipPath id="clip0_94_813">
<rect width="37" height="37" fill="white" transform="translate(17 17)"/>
</clipPath>
</defs>
</svg>
