<svg width="54" height="54" viewBox="0 0 54 54" fill="none" xmlns="http://www.w3.org/2000/svg">
<path d="M2.53125 26.1562C15.2229 26.1562 18.5625 42.1875 18.5625 42.1875C18.5625 42.1875 21.9021 26.1562 34.5938 26.1562C21.9021 26.1562 18.5625 10.125 18.5625 10.125C18.5625 10.125 15.2229 26.1562 2.53125 26.1562Z" fill="#F33558"/>
<path d="M27.8438 42.1875C35.6991 43.886 36.2812 51.4688 36.2812 51.4688C36.2812 51.4688 36.8634 43.886 44.7188 42.1875C36.8634 40.489 36.2812 32.9062 36.2812 32.9062C36.2812 32.9062 35.6991 40.489 27.8438 42.1875Z" fill="#F33558"/>
<path d="M29.5312 14.3438C32.3772 14.8923 34.9745 16.333 36.9467 18.4569C38.9189 20.5808 40.1634 23.2775 40.5 26.1562C40.8366 23.2775 42.0811 20.5808 44.0533 18.4569C46.0255 16.333 48.6228 14.8923 51.4688 14.3438C48.6228 13.7952 46.0255 12.3545 44.0533 10.2306C42.0811 8.10674 40.8366 5.40998 40.5 2.53125C40.1634 5.40998 38.9189 8.10674 36.9467 10.2306C34.9745 12.3545 32.3772 13.7952 29.5312 14.3438Z" fill="#F33558"/>
</svg>
