<svg width="34" height="18" viewBox="0 0 34 18" fill="none" xmlns="http://www.w3.org/2000/svg">
<path d="M33.0312 16.625H31.1431C30.6919 14.44 30.4247 11.875 27.4619 10.5509C29.0294 9.3575 28.875 7.84344 28.875 6.53125C28.875 5.58642 28.4997 4.68028 27.8316 4.01218C27.1635 3.34408 26.2573 2.96875 25.3125 2.96875C24.3677 2.96875 23.4615 3.34408 22.7934 4.01218C22.1253 4.68028 21.75 5.58642 21.75 6.53125C21.75 7.94438 21.6075 9.36344 23.1572 10.5509C22.035 11.0437 22.9672 11.0853 21.5303 9.91563C20.8935 9.40326 20.1749 9.00181 19.4047 8.72813C21.2928 7.38031 21.1859 5.57531 21.1859 4.15625C21.1859 3.05394 20.748 1.99678 19.9686 1.21734C19.1892 0.437888 18.132 0 17.0297 0C15.9274 0 14.8702 0.437888 14.0908 1.21734C13.3113 1.99678 12.8734 3.05394 12.8734 4.15625C12.8734 5.47438 12.6716 7.33875 14.6547 8.73406C13.4428 9.1629 12.3683 9.90931 11.5434 10.8953C11.3367 10.7643 11.1204 10.6492 10.8962 10.5509C12.4103 9.35156 12.25 7.8375 12.25 6.53125C12.25 5.58642 11.8747 4.68028 11.2066 4.01218C10.5385 3.34408 9.63233 2.96875 8.6875 2.96875C7.74267 2.96875 6.83653 3.34408 6.16843 4.01218C5.50033 4.68028 5.125 5.58642 5.125 6.53125C5.125 7.94438 4.9825 9.36937 6.53813 10.5569C3.56344 11.875 3.29031 14.5231 2.85688 16.625H0.96875C0.811278 16.625 0.660255 16.6876 0.548905 16.7989C0.437556 16.9103 0.375 17.0613 0.375 17.2188C0.375 17.3762 0.437556 17.5272 0.548905 17.6386C0.660255 17.7499 0.811278 17.8125 0.96875 17.8125H33.0312C33.1887 17.8125 33.3397 17.7499 33.4511 17.6386C33.5624 17.5272 33.625 17.3762 33.625 17.2188C33.625 17.0613 33.5624 16.9103 33.4511 16.7989C33.3397 16.6876 33.1887 16.625 33.0312 16.625ZM22.9375 7.71875V6.53125C22.9375 5.90136 23.1877 5.29727 23.6331 4.85187C24.0785 4.40647 24.6826 4.15625 25.3125 4.15625C25.9424 4.15625 26.5465 4.40647 26.9919 4.85187C27.4373 5.29727 27.6875 5.90136 27.6875 6.53125V7.71875C27.6875 8.34864 27.4373 8.95273 26.9919 9.39813C26.5465 9.84353 25.9424 10.0938 25.3125 10.0938C24.6826 10.0938 24.0785 9.84353 23.6331 9.39813C23.1877 8.95273 22.9375 8.34864 22.9375 7.71875ZM14.0312 5.34375V4.15625C14.0312 3.36889 14.344 2.61378 14.9008 2.05703C15.4575 1.50028 16.2126 1.1875 17 1.1875C17.7874 1.1875 18.5425 1.50028 19.0992 2.05703C19.656 2.61378 19.9688 3.36889 19.9688 4.15625V5.34375C19.9688 6.13111 19.656 6.88622 19.0992 7.44297C18.5425 7.99972 17.7874 8.3125 17 8.3125C16.2126 8.3125 15.4575 7.99972 14.9008 7.44297C14.344 6.88622 14.0312 6.13111 14.0312 5.34375ZM6.3125 7.71875V6.53125C6.3125 5.90136 6.56272 5.29727 7.00812 4.85187C7.45352 4.40647 8.05761 4.15625 8.6875 4.15625C9.31739 4.15625 9.92148 4.40647 10.3669 4.85187C10.8123 5.29727 11.0625 5.90136 11.0625 6.53125V7.71875C11.0625 8.34864 10.8123 8.95273 10.3669 9.39813C9.92148 9.84353 9.31739 10.0938 8.6875 10.0938C8.05761 10.0938 7.45352 9.84353 7.00812 9.39813C6.56272 8.95273 6.3125 8.34864 6.3125 7.71875ZM4.42437 14.9091C4.5423 14.228 4.82184 13.5851 5.23954 13.0344C5.65724 12.4837 6.20092 12.0412 6.82498 11.744C7.44903 11.4468 8.13526 11.3036 8.82609 11.3264C9.51692 11.3492 10.1922 11.5373 10.7953 11.875C9.98187 13.2406 9.84531 14.5291 9.39406 16.625H6.47875L6.90625 14.9863C6.94404 14.8288 6.91773 14.6627 6.83311 14.5247C6.74848 14.3866 6.61247 14.2878 6.455 14.25C6.29753 14.2122 6.13149 14.2385 5.99342 14.3231C5.85534 14.4078 5.75654 14.5438 5.71875 14.7012L5.25563 16.625H4.06813L4.42437 14.9091ZM21.6906 16.625L21.0969 14.1194C21.0583 13.9666 20.9606 13.8355 20.8253 13.7547C20.69 13.674 20.5282 13.6503 20.3755 13.6889C20.2227 13.7275 20.0916 13.8252 20.0108 13.9605C19.9301 14.0957 19.9064 14.2576 19.945 14.4103L20.4675 16.625H13.5681L14.0312 14.3688C14.0627 14.2113 14.0304 14.0477 13.9413 13.9141C13.8522 13.7805 13.7137 13.6877 13.5563 13.6562C13.3988 13.6248 13.2352 13.6571 13.1016 13.7462C12.968 13.8353 12.8752 13.9738 12.8438 14.1312L12.3569 16.625H10.6112C10.7878 15.6067 11.0157 14.5981 11.2941 13.6028C11.6496 12.5514 12.2887 11.6186 13.1407 10.9073C13.9928 10.1959 15.0247 9.73373 16.1227 9.57161C17.2207 9.40949 18.3422 9.55374 19.3634 9.98847C20.3847 10.4232 21.266 11.1315 21.9103 12.0353C22.8306 13.3178 22.9197 14.4103 23.3887 16.625H21.6906ZM28.7444 16.625L28.2812 14.7012C28.2386 14.5538 28.1406 14.4286 28.0076 14.3518C27.8747 14.2751 27.7172 14.2528 27.5682 14.2897C27.4192 14.3266 27.2903 14.4197 27.2085 14.5496C27.1267 14.6794 27.0983 14.8359 27.1294 14.9863L27.5213 16.625H24.6059C24.1013 14.25 23.9587 13.1219 23.2047 11.875C23.8085 11.5344 24.4856 11.3444 25.1785 11.3212C25.8714 11.298 26.5597 11.4423 27.1849 11.7418C27.8102 12.0414 28.3539 12.4873 28.7701 13.0417C29.1863 13.5962 29.4626 14.2429 29.5756 14.9269L29.9259 16.625H28.7444Z" fill="white"/>
</svg>
