<svg xmlns="http://www.w3.org/2000/svg" xmlns:xlink="http://www.w3.org/1999/xlink" id="Layer_2" height="70" viewBox="0 0 128 128" width="70" data-name="Layer 2"><linearGradient id="linear-gradient" gradientUnits="userSpaceOnUse" x1="57.65" x2="59.05" y1="46.84" y2="49.99"><stop offset="0" stop-color="#ff6382"></stop><stop offset="1" stop-color="#ea366d"></stop></linearGradient><linearGradient id="linear-gradient-2" x1="41.08" x2="38.28" xlink:href="#linear-gradient" y1="17" y2="67.33"></linearGradient><linearGradient id="linear-gradient-3" gradientUnits="userSpaceOnUse" x1="12.48" x2="36.18" y1="115.52" y2="91.82"><stop offset="0" stop-color="#f3f7ff"></stop><stop offset="1" stop-color="#cdd9ff"></stop></linearGradient><linearGradient id="linear-gradient-4" x1="62.49" x2="89.06" xlink:href="#linear-gradient-3" y1="-12.99" y2="125.42"></linearGradient><linearGradient id="linear-gradient-5" x1="108" x2="120.76" xlink:href="#linear-gradient-3" y1="62.52" y2="69.08"></linearGradient><linearGradient id="linear-gradient-6" gradientUnits="userSpaceOnUse" x1="75.57" x2="100.5" y1="44" y2="67.53"><stop offset="0" stop-color="#00c6ff"></stop><stop offset="1" stop-color="#0072ff"></stop></linearGradient><linearGradient id="linear-gradient-7" x1="22.42" x2="37.39" xlink:href="#linear-gradient" y1="98.09" y2="98.09"></linearGradient><linearGradient id="linear-gradient-8" x1="32.42" x2="45.57" xlink:href="#linear-gradient" y1="103.55" y2="103.55"></linearGradient><linearGradient id="linear-gradient-9" x1="17.88" x2="31.02" xlink:href="#linear-gradient" y1="89" y2="89"></linearGradient><linearGradient id="linear-gradient-10" x1="29.96" x2="99.68" xlink:href="#linear-gradient-3" y1="5.43" y2="66.24"></linearGradient><g id="Launching"><path d="m89.38 68.69a2 2 0 0 0 -3.38-1.41l-22.16 22.12c-.94.95-.58.87-.58 19.6a2 2 0 0 0 3.41 1.41l22.13-22.12c.94-.95.58-.87.58-19.6z" fill="url(#linear-gradient)"></path><path d="m19 64.74a2 2 0 0 1 -1.41-3.41l22.12-22.13c.95-.94.87-.58 19.6-.58a2 2 0 0 1 1.41 3.38l-22.12 22.16c-.95.94-.87.58-19.6.58z" fill="url(#linear-gradient-2)"></path><path d="m53 96.78-21.78-21.78c-1.31-1.31-.58-1.87 4.14-12.24a2 2 0 0 1 3.23-.59c29.41 29.38 28.1 27.54 27.83 29.01a2 2 0 0 1 -1.14 1.46c-10.22 4.65-10.86 5.52-12.28 4.14z" fill="url(#linear-gradient-3)"></path><path d="m109 17a69.32 69.32 0 0 0 -49.34 20.44c-26.35 26.34-24.88 24.56-24.88 25.71s-1.53-.71 28.66 29.49a2 2 0 0 0 2.83 0l24.29-24.3a69.32 69.32 0 0 0 20.44-49.34 2 2 0 0 0 -2-2z" fill="url(#linear-gradient-4)"></path><path d="m72.47 55.53a10.51 10.51 0 1 1 14.87 0 10.53 10.53 0 0 1 -14.87 0z" fill="url(#linear-gradient-5)"></path><path d="m74.35 53.65a7.86 7.86 0 1 1 11.11 0 7.87 7.87 0 0 1 -11.11 0z" fill="url(#linear-gradient-6)"></path><path d="m83.82 45.18a1 1 0 0 1 -.71-.29 4.5 4.5 0 0 0 -3.2-1.32 4.5 4.5 0 0 0 -3.2 1.32 1 1 0 0 1 -1.42 0 1 1 0 0 1 0-1.41 6.45 6.45 0 0 1 4.62-1.91 6.44 6.44 0 0 1 4.61 1.91 1 1 0 0 1 0 1.41 1 1 0 0 1 -.7.29z" fill="#fff"></path><path d="m23 102.14 11-10.91a2 2 0 0 1 2.82 2.82l-10.96 10.95a2 2 0 0 1 -2.86-2.86z" fill="url(#linear-gradient-7)"></path><path d="m33 106.68 9.09-9.09a2 2 0 0 1 2.91 2.83l-9.1 9.09a2 2 0 0 1 -2.9-2.83z" fill="url(#linear-gradient-8)"></path><path d="m18.49 92.13 9.09-9.13a2 2 0 0 1 2.83 2.83l-9.09 9.17a2 2 0 0 1 -2.83-2.87z" fill="url(#linear-gradient-9)"></path><path d="m111 19a2 2 0 0 0 -.78-1.57c-1.62 9.41-2.32 35.42-50.42 71.57l3.64 3.64a2 2 0 0 0 2.83 0l24.29-24.3a69.32 69.32 0 0 0 20.44-49.34z" fill="url(#linear-gradient-10)"></path><g fill="#fff"><path d="m34.6 50.37a1 1 0 0 1 -.71-1.71l1-.95a1 1 0 0 1 1.41 0 1 1 0 0 1 0 1.42l-1 .95a1 1 0 0 1 -.7.29z"></path><path d="m38.05 46.92a1 1 0 0 1 -.71-.3 1 1 0 0 1 0-1.41l3.26-3.21a4.55 4.55 0 0 1 3.26-1.36h7.41a1 1 0 0 1 0 2h-7.41a2.61 2.61 0 0 0 -1.85.77l-3.25 3.25a1 1 0 0 1 -.71.26z"></path><path d="m96.44 22.1a1 1 0 0 1 -.37-1.93 26.63 26.63 0 0 1 8.86-1.48 1 1 0 0 1 1 1 1 1 0 0 1 -1 1h-.16a24 24 0 0 0 -8 1.35 1 1 0 0 1 -.33.06z"></path></g></g></svg>