<svg xmlns="http://www.w3.org/2000/svg" xmlns:xlink="http://www.w3.org/1999/xlink" id="Layer_2" height="70" viewBox="0 0 128 128" width="70" data-name="Layer 2"><linearGradient id="linear-gradient" gradientUnits="userSpaceOnUse" x1="-18.01" x2="-12.97" y1="25.73" y2="32.78"><stop offset="0" stop-color="#00c6ff"></stop><stop offset="1" stop-color="#0072ff"></stop></linearGradient><linearGradient id="linear-gradient-2" x1="8.55" x2="13.59" xlink:href="#linear-gradient" y1="6.76" y2="13.81"></linearGradient><linearGradient id="linear-gradient-3" x1="36.93" x2="41.97" xlink:href="#linear-gradient" y1="-13.51" y2="-6.46"></linearGradient><linearGradient id="linear-gradient-4" x1="27.46" x2="27.46" xlink:href="#linear-gradient" y1="33.64" y2="129.99"></linearGradient><linearGradient id="linear-gradient-5" x1="62.08" x2="62.08" xlink:href="#linear-gradient" y1="33.64" y2="129.99"></linearGradient><linearGradient id="linear-gradient-6" x1="96.69" x2="96.69" xlink:href="#linear-gradient" y1="33.64" y2="129.99"></linearGradient><linearGradient id="linear-gradient-7" gradientUnits="userSpaceOnUse" x1="14.56" x2="83.78" y1="39.58" y2="39.58"><stop offset="0" stop-color="#ff6382"></stop><stop offset="1" stop-color="#ea366d"></stop></linearGradient><g id="Rise_Graphic" data-name="Rise Graphic"><path d="m39 77.46h-15.38a5.77 5.77 0 0 0 -5.77 5.77v23.08a5.77 5.77 0 0 0 5.77 5.77h15.38a5.78 5.78 0 0 0 5.77-5.77v-23.08a5.78 5.78 0 0 0 -5.77-5.77z" fill="url(#linear-gradient)"></path><path d="m73.62 62.08h-15.39a5.78 5.78 0 0 0 -5.77 5.77v38.46a5.78 5.78 0 0 0 5.77 5.77h15.39a5.77 5.77 0 0 0 5.76-5.77v-38.46a5.77 5.77 0 0 0 -5.76-5.77z" fill="url(#linear-gradient-2)"></path><path d="m108.23 39h-15.38a5.77 5.77 0 0 0 -5.77 5.77v61.54a5.77 5.77 0 0 0 5.77 5.77h15.38a5.78 5.78 0 0 0 5.77-5.77v-61.54a5.78 5.78 0 0 0 -5.77-5.77z" fill="url(#linear-gradient-3)"></path><path d="m35.15 77.46h-15.38a5.78 5.78 0 0 0 -5.77 5.77v23.08a5.78 5.78 0 0 0 5.77 5.77h15.38a5.77 5.77 0 0 0 5.77-5.77v-23.08a5.77 5.77 0 0 0 -5.77-5.77z" fill="url(#linear-gradient-4)"></path><path d="m69.77 62.08h-15.39a5.77 5.77 0 0 0 -5.76 5.77v38.46a5.77 5.77 0 0 0 5.76 5.77h15.39a5.78 5.78 0 0 0 5.77-5.77v-38.46a5.78 5.78 0 0 0 -5.77-5.77z" fill="url(#linear-gradient-5)"></path><path d="m104.38 39h-15.38a5.78 5.78 0 0 0 -5.77 5.77v61.54a5.78 5.78 0 0 0 5.77 5.77h15.38a5.77 5.77 0 0 0 5.77-5.77v-61.54a5.77 5.77 0 0 0 -5.77-5.77z" fill="url(#linear-gradient-6)"></path><path d="m17.58 62.89c7.05-4.89 31.05-20.48 50.42-21.81l1.36 5.52a1.93 1.93 0 0 0 3.52.54l10.62-17.63a1.92 1.92 0 0 0 -.65-2.64l-17.63-10.67a1.93 1.93 0 0 0 -2.87 2.11l1.29 5.22a81.53 81.53 0 0 0 -48.79 36.78 1.92 1.92 0 0 0 2.73 2.58z" fill="url(#linear-gradient-7)"></path><g fill="#fff"><path d="m18 87.76a1 1 0 0 1 -1-1v-2.87a3.4 3.4 0 0 1 3.4-3.4h4.33a1 1 0 0 1 0 2h-4.37a1.4 1.4 0 0 0 -1.4 1.4v2.87a1 1 0 0 1 -.96 1z"></path><path d="m18 93.24a1 1 0 0 1 -1-1v-1.14a1 1 0 0 1 2 0v1.14a1 1 0 0 1 -1 1z"></path><path d="m70.69 89.11a1 1 0 0 1 -1-1v-15.84a1 1 0 1 1 2 0v15.84a1 1 0 0 1 -1 1z"></path><path d="m106.74 53a1 1 0 0 1 -1-1v-1.48a1 1 0 1 1 2 0v1.48a1 1 0 0 1 -1 1z"></path><path d="m106.74 48.33a1 1 0 0 1 -1-1v-1.84a2.48 2.48 0 0 0 -2.48-2.49h-1.94a1 1 0 0 1 0-2h1.94a4.49 4.49 0 0 1 4.48 4.48v1.84a1 1 0 0 1 -1 1.01z"></path></g></g></svg>