<svg height="512" viewBox="0 0 58 58" width="512" xmlns="http://www.w3.org/2000/svg"><g id="Page-1" fill="none" fill-rule="evenodd"><g id="030---Website-Ranking" fill-rule="nonzero"><path id="Shape" d="m38.75 53h16.25c1.6568542 0 3-1.3431458 3-3v-47c0-1.65685425-1.3431458-3-3-3h-52c-1.65685425 0-3 1.34314575-3 3v47c0 1.6568542 1.34314575 3 3 3z" fill="#ecf0f1"/><path id="Shape" d="m58 3v9h-58v-9c0-1.65685425 1.34314575-3 3-3h52c1.6568542 0 3 1.34314575 3 3z" fill="#3b97d3"/><circle id="Oval" cx="6" cy="6" fill="#ff5364" r="2"/><circle id="Oval" cx="14" cy="6" fill="#f0c419" r="2"/><circle id="Oval" cx="22" cy="6" fill="#65ddb9" r="2"/><rect id="Rectangle-path" fill="#285680" height="4" rx="2" width="14" x="40" y="4"/><path id="Shape" d="m24 32.57-8.86-15.06c-.1832455-.3090648-.1865957-.6926808-.0087761-1.004899.1778196-.3122181.5094712-.5050383.8687761-.505101h4.44c.3482143-.0013185.671303.1811316.85.48l7.71 12.52 7.71-12.52c.178697-.2988684.5017857-.4813185.85-.48h4.44c.3593049.0000627.6909565.1928829.8687761.505101.1778196.3122182.1744694.6958342-.0087761 1.004899l-8.86 15.06z" fill="#e64c3c"/><path id="Shape" d="m23.46 20h-6.86l2.36 4h6.96z" fill="#c03a2b"/><path id="Shape" d="m24 35.08v-4.08c.0032948-1.1032019.8967981-1.9967052 2-2h6c1.1032019.0032948 1.9967052.8967981 2 2v4.08z" fill="#f0c419"/><circle id="Oval" cx="29" cy="46" fill="#e64c3c" r="12"/><path id="Shape" d="m29.9 39.574 1.6 3.418 3.661.561c.3716659.057016.6799329.3177023.7978889.6747356.1179561.3570333.0256605.7500567-.2388889 1.0172644l-2.683 2.755.623 3.833c.0642125.3756081-.0919557.7548663-.4020348.9763513-.310079.2214851-.7194859.2462091-1.0539652.0636487l-2.232-1.238c-.604416-.3361098-1.339584-.3361098-1.944 0l-2.228 1.239c-.3344793.1825604-.7438862.1578364-1.0539652-.0636487-.3100791-.221485-.4662473-.6007432-.4020348-.9763513l.619-3.834-2.678-2.756c-.2645494-.2672077-.356845-.6602311-.2388889-1.0172644.117956-.3570333.426223-.6177196.7978889-.6747356l3.661-.561 1.6-3.418c.1614763-.3503235.5120728-.5746319.8978203-.574417.3857474.0002149.7360939.2249138.8971797.575417z" fill="#f0c419"/><path id="Shape" d="m34.54 20h6.86l-2.36 4h-6.96z" fill="#c03a2b"/></g></g></svg>