<svg id="Layer_1" data-name="Layer 1" xmlns="http://www.w3.org/2000/svg" xmlns:xlink="http://www.w3.org/1999/xlink" viewBox="0 0 327.7 280.85"><defs><style>.cls-1,.cls-4{fill:none;}.cls-2{fill:#fff;}.cls-12,.cls-3{fill:#4385f4;}.cls-4{stroke:#4385f4;stroke-miterlimit:10;stroke-width:2px;stroke-dasharray:3 3;}.cls-5{fill:#ff7058;}.cls-6{fill:#ffd15c;}.cls-7{clip-path:url(#clip-path);}.cls-8{fill:#f1543f;}.cls-9{fill:#f8b64c;}.cls-10{clip-path:url(#clip-path-2);}.cls-11{fill:#ffc952;}.cls-12,.cls-13{opacity:0.5;}.cls-14{fill:#2c72c6;}.cls-15{fill:#3d597a;}.cls-16{fill:#ffa829;}.cls-17{isolation:isolate;}</style><clipPath id="clip-path"><path class="cls-1" d="M171.67,135.48a45.75,45.75,0,0,1-4.31,2l-.9.18-.89-.36a44.62,44.62,0,0,1-4.31-2l2.33-5.38h5.56Z"/></clipPath><clipPath id="clip-path-2"><rect class="cls-1" x="138.46" y="74.9" width="55.83" height="2.69"/></clipPath></defs><title>trophy-badge</title><path class="cls-2" d="M164.21,276c-75.14,0-136.27-61-136.27-136s61.13-136,136.27-136,136.27,61,136.27,136S239.35,276,164.21,276Z"/><path class="cls-3" d="M164.21,6.86A133.15,133.15,0,1,1,70,45.83a132.51,132.51,0,0,1,94.24-39m0-6c-76.92,0-139.27,62.25-139.27,139S87.29,279,164.21,279s139.27-62.25,139.27-139S241.12.86,164.21.86Z"/><path class="cls-4" d="M164.07,268.86c71.25,0,129-57.67,129-128.81s-57.75-128.8-129-128.8-129,57.67-129,128.8,57.76,128.81,129,128.81"/><polygon class="cls-5" points="174.36 141.22 158.56 141.22 161.26 135.48 163.59 130.1 169.34 130.1 171.67 135.48 174.36 141.22"/><path class="cls-6" d="M184.41,141.22h-35.9a3.6,3.6,0,0,0-3.59,3.58v11.65h42.91V144.8a3.35,3.35,0,0,0-3.42-3.58"/><g class="cls-7"><rect class="cls-8" x="156.26" y="124.92" width="20.41" height="17.71"/></g><path class="cls-9" d="M194.47,70.41h-56a2.19,2.19,0,0,0-2.16,2.16,2.23,2.23,0,0,0,2.16,2.33h56a2.19,2.19,0,0,0,2.15-2.16A2.23,2.23,0,0,0,194.47,70.41Zm-71.09,9.86v7.35a43.19,43.19,0,0,0,26.75,39.79,42.92,42.92,0,0,0,32.67,0,43.19,43.19,0,0,0,26.75-39.79V80.27Zm79,7.35a35.49,35.49,0,0,1-8.26,22.77,36.17,36.17,0,0,1-27.65,13.08,35.58,35.58,0,0,1-27.64-13.08,36.08,36.08,0,0,1-8.26-22.77v-.18h71.63v.18Z"/><path class="cls-6" d="M194.47,74.9V94.25a43.67,43.67,0,0,1-28,40.69,43.92,43.92,0,0,1-28-40.86V74.9Z"/><g class="cls-10"><rect class="cls-11" x="133.46" y="69.9" width="65.83" height="12.69"/></g><path class="cls-2" d="M164,95.3s-1.61-.16-1.61,1.26v6.31H173v1.89a.91.91,0,0,1-1,.95H162.4v8.2H174s7-1.07,7.07-8.2V95.3Zm16.44-10.22H159.8c-7.47,1.77-7.63,8-7.63,8v20.88h8v-19A2,2,0,0,1,161.7,93h18.75Z"/><path class="cls-1" d="M231.63,239.83l.11-.07S231.7,239.79,231.63,239.83Zm14.43-13.1.08-.07ZM259.18,211l.05-.08S259.21,211,259.18,211Zm15.74-32.81h0Zm3.93-17v0S278.86,161.18,278.85,161.2Zm0-18.3s0-.07,0-.06S278.86,142.86,278.85,142.9Zm-1.31-17v-.1S277.55,125.85,277.54,125.91Zm-3.93-15.78a.1.1,0,0,0,0,0S273.61,110.11,273.61,110.13Zm-5.24-17v0A.06.06,0,0,1,268.37,93.11ZM162.11,244.56a91,91,0,0,1-29.35-3.48c3.41-4.4-2.22-8.78-7.61-13-5.65-4.2-11.31-8.39-11.31-8.41s6.66,6.83,6,12.69a10.57,10.57,0,0,0,.11,4q-2.31-1.05-4.55-2.22c4-3.78-.53-9.19-4.84-14.33-4.56-5.18-9.16-10.27-9.16-10.29s5.06,7.91,3.36,13.68a11.12,11.12,0,0,0-.62,4c-1.34-1-2.65-1.94-3.92-3,4.45-3.14,1.2-9.32-2-15.11-3.39-5.9-6.89-11.61-6.89-11.62s3.41,8.6.73,14.11a11.54,11.54,0,0,0-1.32,3.9c-1.11-1.17-2.19-2.36-3.22-3.57,4.76-2.45,2.9-9.06.88-15.32-2.25-6.36-4.67-12.33-4.64-12.42-.13,0,1.8,8.95-1.79,14a12.75,12.75,0,0,0-2,3.67q-1.29-2-2.49-4c5.08-1.76,4.43-8.55,3.53-15-1.09-6.55-2.45-12.73-2.45-12.8s.29,9-4.09,13.5A13.23,13.23,0,0,0,72,187c-.4-.91-.79-1.83-1.16-2.75-.29-.71-.56-1.42-.83-2.14,5.11-1,5.57-7.38,5.71-13.48,0-6.22-.37-12.11-.4-12.17s-1,8.36-5.83,12a12.91,12.91,0,0,0-2.94,2.84c-.5-1.93-1-3.86-1.35-5.81,5.07-.13,6.45-6.05,7.44-11.72s1.32-11.25,1.27-11.31-2.06,7.6-7.09,10.33a12.38,12.38,0,0,0-3.23,2.32c-.25-2.2-.42-4.39-.54-6.59,4.87.58,6.94-4.71,8.6-9.86a104.07,104.07,0,0,0,2.58-10.33c-.07,0-2.84,6.8-7.91,8.67a11.61,11.61,0,0,0-3.38,1.76c.05-2,.15-3.91.3-5.85,0-.46.07-.91.11-1.37,4.39,1.22,7.12-3.49,9.21-8s3.58-9.34,3.58-9.35-3.4,6-8.35,7.09a10.76,10.76,0,0,0-3.31,1.17q.61-3.84,1.47-7.65c3.85,1.56,6.9-2.41,9.3-6.37a86.15,86.15,0,0,0,4.34-8.47s-3.8,5.36-8.49,5.7a9.9,9.9,0,0,0-3,.58q1.15-4,2.55-7.9c3.27,1.65,6.41-1.61,9-5a81.29,81.29,0,0,0,5-7.73S80.51,90.32,76.19,90a8.84,8.84,0,0,0-2.4.11q1.59-3.84,3.41-7.68l.21-.5c2.71,1.66,5.85-1,8.54-4a86.58,86.58,0,0,0,5.6-7.14c-.06,0-4.44,4.39-8.32,3.62a7.49,7.49,0,0,0-2.46-.13,163.47,163.47,0,0,1,9-16.61C86,63.23,82.69,68.65,79.72,74a10.36,10.36,0,0,0-1.46-2.71C77,69.64,77,67,77.43,64.65a23,23,0,0,1,1.26-4.18,47.36,47.36,0,0,0-4.77,10.26c-1.53,5.07-1.49,9.88,2,10.48-1.4,2.81-2.68,5.62-3.87,8.43a10.84,10.84,0,0,0-1.75-2.14c-1.6-1.51-2-4.21-1.94-6.54a20.9,20.9,0,0,1,.66-4.31,45.35,45.35,0,0,0-3.5,10.83c-.86,5.14-.21,9.93,3.37,10.32-.91,2.58-1.74,5.15-2.5,7.74a11.63,11.63,0,0,0-2-1.72c-3.85-2.53-3.09-10.2-3-10.78a44.16,44.16,0,0,0-2.18,11.42c-.21,5.3,1.07,10.12,4.81,10.16,0,0,0,0,0,.06q-.76,3.54-1.34,7.13a11.83,11.83,0,0,0-2.3-1.46c-4.43-2.06-4.66-10.06-4.59-10.66a45.36,45.36,0,0,0-.78,12.1c.49,5.53,2.5,10.41,6.46,9.9-.18,2.22-.31,4.44-.38,6.68a12.47,12.47,0,0,0-2.69-1.23c-4.81-1.47-6.2-9.39-6.27-10.39a47.41,47.41,0,0,0,.82,12.7c1.2,5.71,4.22,10.74,8.26,9.48.12,2,.28,4.1.5,6.14a12.78,12.78,0,0,0-3.14-1c-5.34-.87-7.9-9.25-8-10.06a49.12,49.12,0,0,0,2.69,13.31c2.11,6,6.11,10.93,10.23,8.75.39,1.86.83,3.73,1.32,5.58a13.18,13.18,0,0,0-3.66-.64c-5.82-.16-9.8-9-9.92-9.51a50.59,50.59,0,0,0,4.85,13.72c3.21,6.09,8.31,10.87,12.32,7.63q.93,2.46,2,4.88a13.8,13.8,0,0,0-4.09-.19c-6.2.68-11.85-8.28-11.92-8.62a52.86,52.86,0,0,0,7.35,13.78c4.43,6,10.69,10.33,14.32,6.11q1.22,2.06,2.52,4a14.07,14.07,0,0,0-4.1.37c-6.19,1.57-13.42-6.89-13.3-7A51.6,51.6,0,0,0,70.85,209c5.46,5.36,12.49,8.75,15.42,4,1,1.23,2.14,2.43,3.27,3.62a14,14,0,0,0-4.07,1C79.83,220,71.69,213.48,71,212.71a55.07,55.07,0,0,0,11.83,11.15c6.59,4.53,14.2,6.62,16.34,1.64,1.3,1.05,2.64,2.06,4,3.05a15,15,0,0,0-4,1.57c-5.28,3.13-14.62-2-15.56-2.65a56.54,56.54,0,0,0,14,9.13c7.51,3.4,15.67,4.14,16.93-1,1.52.79,3.06,1.56,4.64,2.28a15.34,15.34,0,0,0-3.74,2.18c-4.79,3.92-15.16.52-16.33,0A58.07,58.07,0,0,0,115,246.58c8.27,2,16.73,1.26,17.13-3.89a90.84,90.84,0,0,0,29.74,3.53Z"/><path class="cls-12" d="M99.14,239.24l-.11-.07S99.07,239.2,99.14,239.24ZM83.77,226.75l-.08-.08S83.72,226.71,83.77,226.75ZM71.24,212l-.06-.07ZM54.85,178.38h0ZM51.7,161v0Zm-.65-17.44v-.06S51.05,143.53,51.05,143.57Zm1.59-17.24c0-.07,0-.11,0-.1S52.63,126.27,52.64,126.33Zm3.63-17a.1.1,0,0,0,0,0A.1.1,0,0,1,56.27,109.32Zm5.57-16.6v0S61.84,92.7,61.84,92.72Z"/><g class="cls-13"><path class="cls-3" d="M161.65,243.79a89.85,89.85,0,0,1-29.11-3.48c3.38-4.38-2.2-8.74-7.55-12.94L113.78,219c-.13.1,6.6,6.8,6,12.64a10.58,10.58,0,0,0,.11,4c-1.53-.71-3-1.44-4.52-2.22,3.93-3.77-.52-9.17-4.8-14.29-4.52-5.17-9.08-10.24-9.09-10.25s5,7.88,3.34,13.63a11.26,11.26,0,0,0-.62,4c-1.33-1-2.63-1.94-3.89-3,4.42-3.12,1.2-9.28-2-15.06-3.36-5.87-6.83-11.57-6.83-11.58s3.38,8.57.72,14.06a11.72,11.72,0,0,0-1.31,3.9q-1.65-1.76-3.2-3.57c4.73-2.43,2.89-9,.88-15.26-2.23-6.35-4.63-12.3-4.61-12.39s1.79,8.92-1.77,14a12.7,12.7,0,0,0-2,3.67q-1.28-2-2.46-4c5-1.76,4.39-8.52,3.5-14.92-1.09-6.54-2.43-12.7-2.43-12.77s.29,9-4.06,13.46a13.32,13.32,0,0,0-2.54,3.34c-.39-.91-.78-1.82-1.15-2.74-.28-.71-.56-1.42-.82-2.14,5.07-.94,5.52-7.35,5.66-13.43,0-6.21-.36-12.08-.39-12.14s-1,8.33-5.79,12a12.67,12.67,0,0,0-2.91,2.82c-.5-1.92-1-3.84-1.34-5.78,5-.14,6.39-6,7.38-11.69S74.19,142,74.14,142s-2,7.57-7,10.29a12.19,12.19,0,0,0-3.2,2.32q-.36-3.28-.53-6.57c4.82.58,6.87-4.7,8.52-9.83a104.52,104.52,0,0,0,2.56-10.3c-.06,0-2.81,6.78-7.84,8.64a11.48,11.48,0,0,0-3.36,1.76c.06-1.95.16-3.9.3-5.83,0-.46.08-.92.11-1.37,4.35,1.21,7.06-3.48,9.14-8s3.55-9.31,3.55-9.32-3.37,6-8.29,7.07A10.86,10.86,0,0,0,64.79,122c.4-2.55.89-5.09,1.45-7.62,3.82,1.55,6.84-2.4,9.22-6.35a89.71,89.71,0,0,0,4.32-8.45s-3.78,5.35-8.43,5.69a9.69,9.69,0,0,0-2.93.58q1.14-3.94,2.52-7.88c3.24,1.65,6.36-1.61,8.92-5a80.05,80.05,0,0,0,4.94-7.7s-4.08,4.8-8.38,4.52a9.13,9.13,0,0,0-2.38.11q1.59-3.82,3.39-7.66l.21-.5c2.69,1.66,5.8-1,8.47-4a87.18,87.18,0,0,0,5.55-7.12s-4.4,4.38-8.25,3.61A7.38,7.38,0,0,0,81,74.05,160.7,160.7,0,0,1,90,57.5c-3.75,5.5-7.08,10.9-10,16.25a10.26,10.26,0,0,0-1.45-2.7c-1.23-1.66-1.26-4.34-.82-6.63a21.72,21.72,0,0,1,1.25-4.16,46.35,46.35,0,0,0-4.73,10.22c-1.53,5.06-1.48,9.85,2,10.45-1.39,2.8-2.66,5.61-3.84,8.4a10.94,10.94,0,0,0-1.73-2.13c-1.59-1.51-2-4.19-1.93-6.52a20.11,20.11,0,0,1,.66-4.3,44.86,44.86,0,0,0-3.47,10.8c-.86,5.12-.22,9.9,3.33,10.29q-1.35,3.86-2.47,7.72a11.12,11.12,0,0,0-2-1.72C60.94,101,61.7,93.3,61.84,92.72a44.67,44.67,0,0,0-2.17,11.39c-.21,5.28,1.07,10.09,4.78,10.13,0,0,0,0,0,.06q-.75,3.53-1.32,7.11A11.74,11.74,0,0,0,60.82,120c-4.39-2-4.62-10-4.55-10.63a45.31,45.31,0,0,0-.77,12.06c.48,5.52,2.48,10.39,6.41,9.87q-.27,3.33-.38,6.66a12.55,12.55,0,0,0-2.67-1.22c-4.77-1.47-6.15-9.36-6.22-10.35A47.5,47.5,0,0,0,53.46,139c1.18,5.7,4.18,10.72,8.19,9.46q.16,3.06.5,6.12a12.33,12.33,0,0,0-3.12-1c-5.29-.87-7.84-9.23-8-10a49.36,49.36,0,0,0,2.67,13.27c2.1,5.93,6.06,10.9,10.15,8.72.39,1.86.82,3.72,1.31,5.57a13,13,0,0,0-3.63-.64c-5.78-.16-9.72-8.94-9.85-9.48a51.39,51.39,0,0,0,4.82,13.68c3.19,6.07,8.24,10.83,12.22,7.6q.93,2.46,2,4.87a13.55,13.55,0,0,0-4.06-.19c-6.15.68-11.75-8.26-11.81-8.59a52.83,52.83,0,0,0,7.28,13.73c4.4,6,10.61,10.31,14.21,6.1q1.2,2,2.5,4a13.88,13.88,0,0,0-4.07.37c-6.13,1.56-13.31-6.87-13.19-7a51.4,51.4,0,0,0,9.55,12.69c5.42,5.35,12.39,8.73,15.29,4,1,1.22,2.13,2.43,3.25,3.61a14.05,14.05,0,0,0-4,.95C80,219.26,72,212.8,71.24,212A54.92,54.92,0,0,0,83,223.15c6.53,4.52,14.08,6.6,16.2,1.63q1.93,1.58,4,3a14.82,14.82,0,0,0-4,1.57c-5.24,3.12-14.5-1.95-15.44-2.64a56.45,56.45,0,0,0,13.89,9.1c7.45,3.39,15.54,4.13,16.79-1,1.5.8,3,1.55,4.6,2.27a15.2,15.2,0,0,0-3.71,2.18c-4.75,3.91-15,.52-16.2,0A57.4,57.4,0,0,0,115,245.8c8.19,2,16.59,1.26,17-3.88a89.75,89.75,0,0,0,29.51,3.52Z"/></g><path class="cls-1" d="M168.69,243.79a89.85,89.85,0,0,0,29.11-3.48c-3.38-4.38,2.21-8.74,7.55-12.94L216.57,219c.12.1-6.61,6.8-6,12.64a10.58,10.58,0,0,1-.11,4c1.53-.71,3-1.44,4.52-2.22-3.93-3.77.52-9.17,4.8-14.29,4.52-5.17,9.09-10.24,9.09-10.25s-5,7.88-3.34,13.63a11,11,0,0,1,.62,4c1.33-1,2.63-1.94,3.89-3-4.42-3.12-1.2-9.28,1.95-15.06,3.36-5.87,6.83-11.57,6.84-11.58s-3.39,8.57-.73,14.06a11.72,11.72,0,0,1,1.31,3.9q1.65-1.76,3.2-3.57c-4.73-2.43-2.89-9-.88-15.26,2.23-6.35,4.63-12.3,4.61-12.39s-1.79,8.92,1.77,14a12.41,12.41,0,0,1,1.95,3.67q1.29-2,2.47-4c-5-1.76-4.39-8.52-3.5-14.92,1.09-6.54,2.43-12.7,2.43-12.77s-.29,9,4.06,13.46a13.32,13.32,0,0,1,2.54,3.34c.4-.91.78-1.82,1.15-2.74.28-.71.56-1.42.82-2.14-5.07-.94-5.52-7.35-5.66-13.43,0-6.21.36-12.08.39-12.14s1,8.33,5.79,12a12.67,12.67,0,0,1,2.91,2.82c.5-1.92.95-3.84,1.34-5.78-5-.14-6.39-6-7.38-11.69-.84-5.74-1.31-11.21-1.26-11.27s2.05,7.57,7,10.29a12.42,12.42,0,0,1,3.21,2.32c.23-2.19.41-4.38.52-6.57-4.82.58-6.87-4.7-8.52-9.83a101.32,101.32,0,0,1-2.56-10.3c.06,0,2.82,6.78,7.84,8.64a11.48,11.48,0,0,1,3.36,1.76c-.06-1.95-.16-3.9-.3-5.83,0-.46-.07-.92-.11-1.37-4.35,1.21-7.06-3.48-9.14-8s-3.54-9.31-3.55-9.32,3.37,6,8.29,7.07a10.86,10.86,0,0,1,3.27,1.16c-.4-2.55-.89-5.09-1.45-7.62-3.82,1.55-6.84-2.4-9.22-6.35a85.65,85.65,0,0,1-4.31-8.45s3.77,5.35,8.42,5.69a9.69,9.69,0,0,1,2.93.58q-1.14-3.94-2.52-7.88c-3.24,1.65-6.36-1.61-8.92-5a80.05,80.05,0,0,1-4.94-7.7s4.08,4.8,8.38,4.52a9.13,9.13,0,0,1,2.38.11q-1.59-3.82-3.39-7.66l-.21-.5c-2.69,1.66-5.8-1-8.47-4a87.18,87.18,0,0,1-5.55-7.12s4.4,4.38,8.25,3.61a7.37,7.37,0,0,1,2.44-.13,160.7,160.7,0,0,0-9-16.55c3.75,5.5,7.08,10.9,10,16.25a9.92,9.92,0,0,1,1.44-2.7c1.23-1.66,1.26-4.34.82-6.63a21.72,21.72,0,0,0-1.25-4.16,45.85,45.85,0,0,1,4.73,10.22c1.53,5.06,1.48,9.85-2,10.45,1.39,2.8,2.66,5.61,3.84,8.4a10.94,10.94,0,0,1,1.73-2.13c1.6-1.51,2-4.19,1.93-6.52a20.11,20.11,0,0,0-.66-4.3,44.86,44.86,0,0,1,3.47,10.8c.86,5.12.22,9.9-3.33,10.29q1.35,3.86,2.47,7.72a11.12,11.12,0,0,1,2-1.72c3.82-2.52,3.06-10.17,2.92-10.75a44.67,44.67,0,0,1,2.17,11.39c.21,5.28-1.07,10.09-4.78,10.13,0,0,0,0,0,.06q.75,3.53,1.32,7.11a11.74,11.74,0,0,1,2.29-1.46c4.39-2,4.62-10,4.55-10.63a45.31,45.31,0,0,1,.77,12.06c-.48,5.52-2.48,10.39-6.41,9.87q.27,3.33.39,6.66a12.45,12.45,0,0,1,2.66-1.22c4.77-1.47,6.14-9.36,6.22-10.35a47.5,47.5,0,0,1-.82,12.65c-1.18,5.7-4.18,10.72-8.19,9.46q-.17,3.06-.5,6.12a12.33,12.33,0,0,1,3.12-1c5.29-.87,7.84-9.23,8-10a49.36,49.36,0,0,1-2.67,13.27c-2.1,5.93-6.06,10.9-10.15,8.72-.39,1.86-.82,3.72-1.31,5.57a13,13,0,0,1,3.63-.64c5.78-.16,9.72-8.94,9.85-9.48a51.39,51.39,0,0,1-4.82,13.68c-3.19,6.07-8.24,10.83-12.22,7.6q-.93,2.46-2,4.87a13.55,13.55,0,0,1,4.06-.19c6.15.68,11.75-8.26,11.81-8.59a52.83,52.83,0,0,1-7.28,13.73c-4.4,6-10.61,10.31-14.21,6.1q-1.2,2-2.5,4a13.88,13.88,0,0,1,4.07.37c6.13,1.56,13.31-6.87,13.19-7a51.4,51.4,0,0,1-9.55,12.69c-5.42,5.35-12.39,8.73-15.29,4-1,1.22-2.13,2.43-3.25,3.61a14.05,14.05,0,0,1,4,.95c5.59,2.31,13.66-4.15,14.39-4.92a54.92,54.92,0,0,1-11.74,11.12c-6.53,4.52-14.08,6.6-16.2,1.63q-1.93,1.58-4,3a14.82,14.82,0,0,1,3.95,1.57c5.24,3.12,14.5-1.95,15.44-2.64a56.45,56.45,0,0,1-13.89,9.1c-7.45,3.39-15.54,4.13-16.79-1-1.5.8-3,1.55-4.6,2.27a15.2,15.2,0,0,1,3.71,2.18c4.75,3.91,15,.52,16.2,0a57.4,57.4,0,0,1-15.81,6.56c-8.19,2-16.58,1.26-17-3.88a89.75,89.75,0,0,1-29.51,3.52l-.21-1.65Z"/><path d="M203,220a1.85,1.85,0,0,0,.37-1.17c0-.08,0-.23,0-.46s0-.39,0-.47a1.82,1.82,0,0,0-.38-1.17,1.2,1.2,0,0,0-1-.4,1.22,1.22,0,0,0-1,.4,1.82,1.82,0,0,0-.37,1.17l0,.47,0,.46A1.8,1.8,0,0,0,201,220a1.24,1.24,0,0,0,1,.39A1.23,1.23,0,0,0,203,220Zm-3.16.89a2.81,2.81,0,0,1-.83-2v-1.05a2.79,2.79,0,0,1,.84-2,3.62,3.62,0,0,1,4.33,0,2.79,2.79,0,0,1,.84,2c0,.09,0,.27,0,.53s0,.43,0,.52a2.77,2.77,0,0,1-.83,2,3.65,3.65,0,0,1-4.35,0Zm-6.86,0a2.76,2.76,0,0,1-.83-2l0-.48,0-.48a2.79,2.79,0,0,1,.83-2,3,3,0,0,1,2.11-.73,3.54,3.54,0,0,1,1.6.33,2.58,2.58,0,0,1,1,.82,1.9,1.9,0,0,1,.34.93.25.25,0,0,1-.08.21.32.32,0,0,1-.21.08h-1.06a.34.34,0,0,1-.2,0,.58.58,0,0,1-.12-.2,1.41,1.41,0,0,0-.47-.66,1.27,1.27,0,0,0-.75-.2,1.17,1.17,0,0,0-1,.38,1.84,1.84,0,0,0-.37,1.18v.84q.08,1.56,1.32,1.56a1.36,1.36,0,0,0,.76-.2,1.4,1.4,0,0,0,.46-.67.48.48,0,0,1,.12-.19.28.28,0,0,1,.2-.06h1.06a.32.32,0,0,1,.21.08.25.25,0,0,1,.08.21,1.88,1.88,0,0,1-.33.9,2.5,2.5,0,0,1-1,.84,3.46,3.46,0,0,1-1.62.35A3,3,0,0,1,193,220.91Zm-3.67.53a.28.28,0,0,1-.08-.2V220a.27.27,0,0,1,.29-.29h1.21a.28.28,0,0,1,.2.08.29.29,0,0,1,.09.21v1.21a.28.28,0,0,1-.08.2.26.26,0,0,1-.21.09h-1.21A.29.29,0,0,1,189.28,221.44Zm-5.55-.07a2.44,2.44,0,0,1-.91-.64,1.08,1.08,0,0,1-.29-.63.24.24,0,0,1,.07-.19.29.29,0,0,1,.19-.08h1a.22.22,0,0,1,.17.1l.27.23a1.61,1.61,0,0,0,1.08.38,1.5,1.5,0,0,0,.78-.18.61.61,0,0,0,.3-.54.56.56,0,0,0-.14-.39,1.21,1.21,0,0,0-.49-.27,9.19,9.19,0,0,0-1.07-.29,3.08,3.08,0,0,1-1.5-.66,1.48,1.48,0,0,1-.49-1.17,1.63,1.63,0,0,1,.29-.91,2.09,2.09,0,0,1,.86-.69,3.14,3.14,0,0,1,1.36-.27,3.5,3.5,0,0,1,1.4.25,2.54,2.54,0,0,1,.9.62,1.05,1.05,0,0,1,.3.64.24.24,0,0,1-.07.18.25.25,0,0,1-.19.08h-.9a.23.23,0,0,1-.2-.09,2.81,2.81,0,0,1-.27-.23,1.79,1.79,0,0,0-.42-.25,1.29,1.29,0,0,0-.55-.1,1,1,0,0,0-.68.19.63.63,0,0,0-.24.51.55.55,0,0,0,.11.36,1.22,1.22,0,0,0,.46.27,6.81,6.81,0,0,0,1,.25q2.16.42,2.16,1.89a1.63,1.63,0,0,1-.74,1.38,3.51,3.51,0,0,1-2.06.53A3.72,3.72,0,0,1,183.73,221.37Zm-11.61.07a.28.28,0,0,1-.08-.2v-5.67a.32.32,0,0,1,.08-.21.31.31,0,0,1,.21-.07h.94a.28.28,0,0,1,.21.07.28.28,0,0,1,.08.21V216a2.11,2.11,0,0,1,1.74-.81,1.89,1.89,0,0,1,1.86,1.06,2.18,2.18,0,0,1,.82-.77,2.25,2.25,0,0,1,1.14-.29,2.11,2.11,0,0,1,1.61.67,2.8,2.8,0,0,1,.62,1.95v3.45a.28.28,0,0,1-.08.2.26.26,0,0,1-.21.09h-1a.29.29,0,0,1-.21-.09.28.28,0,0,1-.08-.2v-3.35a1.56,1.56,0,0,0-.32-1.09,1.07,1.07,0,0,0-.83-.34,1.09,1.09,0,0,0-.8.34,1.53,1.53,0,0,0-.33,1.09v3.35a.28.28,0,0,1-.08.2.26.26,0,0,1-.21.09h-1a.31.31,0,0,1-.29-.29v-3.35a1.53,1.53,0,0,0-.32-1.09,1.12,1.12,0,0,0-.83-.34,1.1,1.1,0,0,0-.8.34,1.53,1.53,0,0,0-.33,1.09v3.35a.27.27,0,0,1-.07.2.29.29,0,0,1-.21.09h-1A.29.29,0,0,1,172.12,221.44Zm-5,0a.28.28,0,0,1-.08-.2v-5.65a.33.33,0,0,1,.08-.22.28.28,0,0,1,.21-.08h1a.29.29,0,0,1,.22.08.33.33,0,0,1,.08.22v.49a2,2,0,0,1,1.73-.79h.5a.28.28,0,0,1,.21.07.28.28,0,0,1,.08.21v.88a.24.24,0,0,1-.08.2.26.26,0,0,1-.21.09h-.94a1.21,1.21,0,0,0-.89.32,1.19,1.19,0,0,0-.33.89v3.29a.24.24,0,0,1-.08.2.27.27,0,0,1-.2.09H167.3A.29.29,0,0,1,167.09,221.44Zm-6.72,0a.28.28,0,0,1-.08-.2v-4.67h-1a.27.27,0,0,1-.29-.29v-.71a.3.3,0,0,1,.08-.2.28.28,0,0,1,.21-.08h1v-.48a2.11,2.11,0,0,1,.59-1.63,2.53,2.53,0,0,1,1.77-.53h2.49a.28.28,0,0,1,.21.07.32.32,0,0,1,.08.21v.71a.29.29,0,0,1-.09.21.28.28,0,0,1-.2.08h-2.43a.84.84,0,0,0-.66.23,1.14,1.14,0,0,0-.19.71v.42h3.28a.28.28,0,0,1,.21.07.32.32,0,0,1,.08.21v5.67a.28.28,0,0,1-.08.2.26.26,0,0,1-.21.09h-1a.31.31,0,0,1-.29-.29v-4.67h-2v4.67a.24.24,0,0,1-.08.2.26.26,0,0,1-.21.09h-1A.29.29,0,0,1,160.37,221.44ZM156,219.91a1.89,1.89,0,0,0,.36-1.08c0-.1,0-.25,0-.46s0-.37,0-.47a1.63,1.63,0,0,0-.37-1,1.24,1.24,0,0,0-1-.42c-.85,0-1.31.53-1.37,1.59v.72c.06,1,.52,1.58,1.37,1.58A1.2,1.2,0,0,0,156,219.91Zm-3.33,1a3.3,3.3,0,0,1-.71-2.07V218a3.29,3.29,0,0,1,.7-2.06,2.31,2.31,0,0,1,1.87-.78,2.29,2.29,0,0,1,1.83.79v-2.67a.29.29,0,0,1,.09-.21.27.27,0,0,1,.2-.07h1a.28.28,0,0,1,.21.07.28.28,0,0,1,.08.21v8a.24.24,0,0,1-.08.2.26.26,0,0,1-.21.09h-1a.31.31,0,0,1-.29-.29v-.45a2.57,2.57,0,0,1-3.76.08Zm-3.83-.83a1.85,1.85,0,0,0,.37-1.17c0-.08,0-.23,0-.46s0-.39,0-.47a1.87,1.87,0,0,0-.37-1.17,1.21,1.21,0,0,0-1-.4,1.23,1.23,0,0,0-1,.4,1.87,1.87,0,0,0-.37,1.17v.93a1.85,1.85,0,0,0,.37,1.17,1.25,1.25,0,0,0,1,.39A1.21,1.21,0,0,0,148.88,220Zm-3.16.89a2.81,2.81,0,0,1-.83-2v-1.05a2.79,2.79,0,0,1,.84-2,3.1,3.1,0,0,1,2.18-.72,3.06,3.06,0,0,1,2.16.72,2.79,2.79,0,0,1,.84,2c0,.09,0,.27,0,.53s0,.43,0,.52a2.81,2.81,0,0,1-.83,2,3.66,3.66,0,0,1-4.36,0Zm-3.95-.89a1.79,1.79,0,0,0,.36-1.17,4,4,0,0,0,0-.46,4.11,4.11,0,0,0,0-.47,1.82,1.82,0,0,0-.37-1.17,1.2,1.2,0,0,0-1-.4,1.22,1.22,0,0,0-1,.4,1.82,1.82,0,0,0-.38,1.17v.93a1.8,1.8,0,0,0,.38,1.17,1.43,1.43,0,0,0,2,0Zm-3.16.89a2.77,2.77,0,0,1-.83-2v-1.05a2.79,2.79,0,0,1,.84-2,3.62,3.62,0,0,1,4.33,0,2.79,2.79,0,0,1,.84,2c0,.09,0,.27,0,.53s0,.43,0,.52a2.81,2.81,0,0,1-.83,2,3.65,3.65,0,0,1-4.35,0Zm-4.2-1.16a1.9,1.9,0,0,0,.37-1.05,3.57,3.57,0,0,0,0-.39,3.36,3.36,0,0,0,0-.38,1.93,1.93,0,0,0-.37-1.06,1.23,1.23,0,0,0-1-.43c-.87,0-1.32.53-1.37,1.59v.28c0,1.25.46,1.88,1.38,1.88A1.21,1.21,0,0,0,134.41,219.77Zm-2.69,4a2.32,2.32,0,0,1-.94-.81,1.58,1.58,0,0,1-.27-.78.26.26,0,0,1,.08-.2.29.29,0,0,1,.2-.07h1.07a.3.3,0,0,1,.19.05.38.38,0,0,1,.12.2,1.38,1.38,0,0,0,.4.53,1.26,1.26,0,0,0,.82.22,1.19,1.19,0,0,0,1.39-1.42v-.82a2.64,2.64,0,0,1-3.72,0,3.29,3.29,0,0,1-.67-2.06l0-.33,0-.32a3.36,3.36,0,0,1,.68-2.06,2.27,2.27,0,0,1,1.87-.78,2.46,2.46,0,0,1,1.12.24,2.26,2.26,0,0,1,.79.64v-.46a.29.29,0,0,1,.09-.22.28.28,0,0,1,.21-.08h1a.28.28,0,0,1,.21.08.33.33,0,0,1,.08.22v5.78a2.72,2.72,0,0,1-.74,2.06,3.07,3.07,0,0,1-2.24.74A3.59,3.59,0,0,1,131.72,223.81Z"/><path class="cls-14" d="M325.7,166.2H289.29v55.62H325.7L314,195.7Zm-323.63,0H38.48v55.62H2.07L13.76,195.7Z"/><path class="cls-15" d="M307.71,147.11l-18.41,19v55.62l18.41-18.29Zm-287.27,0,18.45,19.81v54.87L20.44,203.39Z"/><polygon class="cls-3" points="20.03 203.28 307.67 203.28 307.64 146.95 20.03 146.95 20.03 203.28"/><path class="cls-12" d="M167.35,244.56a91,91,0,0,0,29.35-3.48c-3.41-4.4,2.22-8.78,7.61-13,5.65-4.2,11.31-8.39,11.31-8.41s-6.66,6.83-6,12.69a10.57,10.57,0,0,1-.11,4q2.31-1.05,4.55-2.22c-4-3.78.53-9.19,4.84-14.33,4.56-5.18,9.16-10.27,9.16-10.29s-5.06,7.91-3.36,13.68a11.12,11.12,0,0,1,.62,4c1.34-1,2.65-1.94,3.92-3-4.46-3.14-1.2-9.32,2-15.11,3.39-5.9,6.89-11.61,6.89-11.62s-3.41,8.6-.73,14.11a11.76,11.76,0,0,1,1.32,3.9c1.11-1.17,2.19-2.36,3.22-3.57-4.76-2.45-2.9-9.06-.88-15.32,2.25-6.36,4.67-12.33,4.64-12.42.13,0-1.8,8.95,1.79,14a12.75,12.75,0,0,1,2,3.67q1.29-2,2.48-4c-5.08-1.76-4.42-8.55-3.52-15,1.09-6.55,2.44-12.73,2.44-12.8s-.28,9,4.1,13.5a13.23,13.23,0,0,1,2.56,3.35c.4-.91.79-1.83,1.16-2.75.29-.71.56-1.42.83-2.14-5.11-1-5.57-7.38-5.71-13.48,0-6.22.37-12.11.4-12.17s1,8.36,5.83,12a12.91,12.91,0,0,1,2.94,2.84c.5-1.93.95-3.86,1.35-5.81-5.07-.13-6.45-6.05-7.44-11.72s-1.32-11.25-1.27-11.31,2.06,7.6,7.09,10.33a12.38,12.38,0,0,1,3.23,2.32c.24-2.2.42-4.39.54-6.59-4.87.58-6.94-4.71-8.6-9.86a104.07,104.07,0,0,1-2.58-10.33c.07,0,2.84,6.8,7.91,8.67a11.61,11.61,0,0,1,3.38,1.76c-.06-2-.15-3.91-.3-5.85,0-.46-.07-.91-.11-1.37-4.39,1.22-7.12-3.49-9.21-8s-3.58-9.34-3.58-9.35,3.4,6,8.35,7.09a10.76,10.76,0,0,1,3.31,1.17c-.42-2.56-.9-5.11-1.47-7.65-3.85,1.56-6.9-2.41-9.3-6.37a90.24,90.24,0,0,1-4.35-8.47c.05,0,3.81,5.36,8.5,5.7a9.9,9.9,0,0,1,3,.58q-1.16-4-2.55-7.9c-3.27,1.65-6.41-1.61-9-5a81.29,81.29,0,0,1-5-7.73c.05,0,4.13,4.82,8.45,4.54a8.84,8.84,0,0,1,2.4.11q-1.59-3.84-3.41-7.68l-.21-.5c-2.71,1.66-5.85-1-8.54-4a86.58,86.58,0,0,1-5.6-7.14c.06,0,4.44,4.39,8.32,3.62a7.49,7.49,0,0,1,2.46-.13,165.46,165.46,0,0,0-9.05-16.61c3.77,5.53,7.13,11,10.1,16.31a10.36,10.36,0,0,1,1.46-2.71c1.24-1.66,1.27-4.35.83-6.65a24,24,0,0,0-1.26-4.18,47.36,47.36,0,0,1,4.77,10.26c1.53,5.07,1.49,9.88-2,10.48,1.4,2.81,2.68,5.62,3.87,8.43a10.84,10.84,0,0,1,1.75-2.14c1.6-1.51,2-4.21,1.94-6.54a20.9,20.9,0,0,0-.66-4.31,45.35,45.35,0,0,1,3.5,10.83c.86,5.14.21,9.93-3.37,10.32.91,2.58,1.74,5.15,2.5,7.74a11.26,11.26,0,0,1,2-1.72c3.85-2.53,3.09-10.2,3-10.78a44.16,44.16,0,0,1,2.18,11.42c.21,5.3-1.07,10.12-4.81,10.16,0,0,0,0,0,.06q.76,3.54,1.34,7.13a11.83,11.83,0,0,1,2.3-1.46c4.43-2.06,4.66-10.06,4.59-10.66a45.36,45.36,0,0,1,.78,12.1c-.49,5.53-2.5,10.41-6.46,9.9.18,2.22.31,4.44.38,6.68a12.47,12.47,0,0,1,2.69-1.23c4.81-1.47,6.19-9.39,6.27-10.39a47.41,47.41,0,0,1-.82,12.7c-1.2,5.71-4.22,10.74-8.26,9.48-.12,2-.28,4.1-.51,6.14a13,13,0,0,1,3.15-1c5.34-.87,7.9-9.25,8-10.06a49.12,49.12,0,0,1-2.69,13.31c-2.11,6-6.11,10.93-10.23,8.75-.39,1.86-.83,3.73-1.32,5.58a13.18,13.18,0,0,1,3.66-.64c5.82-.16,9.8-9,9.92-9.51a50.39,50.39,0,0,1-4.86,13.72c-3.2,6.09-8.3,10.87-12.31,7.63q-.93,2.46-2,4.88a13.78,13.78,0,0,1,4.09-.19c6.2.68,11.85-8.28,11.91-8.62a52.33,52.33,0,0,1-7.34,13.78c-4.43,6-10.69,10.33-14.32,6.11q-1.22,2.06-2.52,4a14.07,14.07,0,0,1,4.1.37c6.18,1.57,13.42-6.89,13.3-7A51.6,51.6,0,0,1,258.61,209c-5.46,5.36-12.49,8.75-15.42,4-1.05,1.23-2.14,2.43-3.27,3.62a14,14,0,0,1,4.07,1c5.64,2.31,13.77-4.17,14.51-4.94a55.07,55.07,0,0,1-11.83,11.15c-6.59,4.53-14.2,6.62-16.34,1.64-1.3,1.05-2.64,2.06-4,3.05a15,15,0,0,1,4,1.57c5.28,3.13,14.62-2,15.56-2.65a56.54,56.54,0,0,1-14,9.13c-7.51,3.4-15.67,4.14-16.93-1-1.52.79-3.07,1.56-4.64,2.28A15.34,15.34,0,0,1,214,240c4.79,3.92,15.16.52,16.33,0a58,58,0,0,1-15.94,6.58c-8.26,2-16.72,1.26-17.12-3.89a90.84,90.84,0,0,1-29.74,3.53Z"/><path class="cls-16" d="M165.68,17.81l5.9,11.94,13.19,1.91L175.22,41l2.26,13.11-11.8-6.19-11.79,6.19L156.14,41l-9.55-9.29,13.19-1.91Z"/><polygon class="cls-9" points="129.11 41.08 125.58 33.92 122.04 41.08 114.12 42.23 119.85 47.8 118.5 55.67 125.58 51.95 132.65 55.67 131.3 47.8 137.03 42.23 129.11 41.08"/><polygon class="cls-9" points="217.24 42.23 209.32 41.08 205.79 33.92 202.25 41.08 194.34 42.23 200.06 47.8 198.71 55.67 205.79 51.95 212.86 55.67 211.51 47.8 217.24 42.23"/><polygon class="cls-6" points="109.44 59.75 107.32 55.45 105.2 59.75 100.45 60.44 103.88 63.78 103.07 68.5 107.32 66.28 111.56 68.5 110.75 63.78 114.19 60.44 109.44 59.75"/><polygon class="cls-6" points="230.91 60.44 226.16 59.75 224.04 55.45 221.92 59.75 217.17 60.44 220.61 63.78 219.8 68.5 224.04 66.28 228.29 68.5 227.48 63.78 230.91 60.44"/><g class="cls-17"><path class="cls-2" d="M61.49,170.78v-9.91H58V158.8h9.52v2.07H64v9.91Z"/><path class="cls-2" d="M79.41,164.8c0,3.81-2.23,6.19-5.77,6.19s-5.78-2.38-5.78-6.19,2.22-6.2,5.78-6.2S79.41,161,79.41,164.8Zm-9,0c0,2.5,1.26,4.09,3.23,4.09s3.21-1.59,3.21-4.09-1.26-4.11-3.21-4.11S70.41,162.28,70.41,164.8Z"/><path class="cls-2" d="M86,158.8a3.92,3.92,0,0,1,4.15,4.11A4,4,0,0,1,85.9,167H83.53v3.77H81v-12Zm-2.49,6.25h1.82a2.13,2.13,0,1,0,0-4.26H83.53Z"/><path class="cls-2" d="M100.7,171c-3.58,0-5.77-2.34-5.77-6.23s2.19-6.16,5.71-6.16c2.8,0,4.9,1.65,5.26,4.07h-2.51a2.71,2.71,0,0,0-2.74-2c-2,0-3.17,1.51-3.17,4.05s1.27,4.19,3.26,4.19a2.59,2.59,0,0,0,2.82-2.49v-.19H101V164.4H106v1.35C106,169,104,171,100.7,171Z"/><path class="cls-2" d="M114.26,167.88h-4.21l-.91,2.9h-2.58l4.16-12h3l4.17,12h-2.67ZM110.59,166h3.13l-1.54-4.9h-.05Z"/><path class="cls-2" d="M131.74,170.78h-2.23V162.7h-.07l-3.25,8h-1.58l-3.25-8h-.07v8.08h-2.23v-12H122l3.41,8.5h.06l3.41-8.5h2.9Z"/><path class="cls-2" d="M141.67,170.78h-7.94v-12h7.94v2.07h-5.43v2.89h5.12v1.93h-5.12v3h5.43Z"/><path class="cls-2" d="M151.75,158.8c3.59,0,5.71,2.15,5.71,5.95s-2.12,6-5.71,6h-4.62v-12Zm-2.11,9.91h1.81c2.24,0,3.45-1.36,3.45-4s-1.25-3.89-3.45-3.89h-1.81Z"/><path class="cls-2" d="M167,170.78h-7.93v-12H167v2.07h-5.43v2.89h5.13v1.93h-5.13v3H167Z"/><path class="cls-2" d="M172.07,170.78l-4-12h2.8l2.74,9.4h.06l2.74-9.4h2.73l-4,12Z"/><path class="cls-2" d="M188.28,170.78h-7.94v-12h7.94v2.07h-5.43v2.89H188v1.93h-5.12v3h5.43Z"/><path class="cls-2" d="M197.83,170.78h-7.74v-12h2.5v9.91h5.24Z"/><path class="cls-2" d="M210,164.8c0,3.81-2.23,6.19-5.78,6.19s-5.77-2.38-5.77-6.19,2.22-6.2,5.77-6.2S210,161,210,164.8Zm-9,0c0,2.5,1.26,4.09,3.22,4.09s3.22-1.59,3.22-4.09-1.26-4.11-3.22-4.11S201,162.28,201,164.8Z"/><path class="cls-2" d="M216.61,158.8a3.92,3.92,0,0,1,4.15,4.11,4,4,0,0,1-4.28,4.1h-2.36v3.77h-2.51v-12Zm-2.49,6.25h1.82a2.13,2.13,0,1,0,0-4.26h-1.82Z"/><path class="cls-2" d="M234.92,170.78h-2.23V162.7h-.07l-3.25,8h-1.58l-3.25-8h-.07v8.08h-2.23v-12h2.9l3.4,8.5h.07l3.4-8.5h2.91Z"/><path class="cls-2" d="M244.85,170.78h-7.94v-12h7.94v2.07h-5.43v2.89h5.12v1.93h-5.12v3h5.43Z"/><path class="cls-2" d="M246.66,170.78v-12h2.09l5.59,7.81h.07V158.8h2.4v12h-2.08l-5.6-7.84h-.08v7.84Z"/><path class="cls-2" d="M261.71,170.78v-9.91H258.2V158.8h9.52v2.07h-3.51v9.91Z"/><path class="cls-2" d="M121.34,185.19c0-3.86,2.2-6.19,5.67-6.19a4.94,4.94,0,0,1,5.27,4.51h-2.44a2.79,2.79,0,0,0-2.83-2.44c-1.89,0-3.11,1.59-3.11,4.11s1.2,4.14,3.12,4.14a2.7,2.7,0,0,0,2.82-2.29h2.44c-.28,2.67-2.33,4.36-5.27,4.36C123.53,191.39,121.34,189.06,121.34,185.19Z"/><path class="cls-2" d="M145,185.2c0,3.81-2.23,6.19-5.78,6.19s-5.78-2.38-5.78-6.19,2.23-6.2,5.78-6.2S145,181.38,145,185.2Zm-9,0c0,2.5,1.25,4.09,3.22,4.09s3.21-1.59,3.21-4.09-1.25-4.11-3.21-4.11S136,182.68,136,185.2Z"/><path class="cls-2" d="M159.3,191.18h-2.23V183.1H157l-3.25,8h-1.58l-3.25-8h-.07v8.08h-2.23v-12h2.9l3.41,8.5H153l3.41-8.5h2.9Z"/><path class="cls-2" d="M166.29,179.2a3.92,3.92,0,0,1,4.15,4.11,4,4,0,0,1-4.27,4.1H163.8v3.77h-2.5v-12Zm-2.49,6.25h1.82a2.13,2.13,0,1,0,0-4.26H163.8Z"/><path class="cls-2" d="M177.73,188.28h-4.21l-.91,2.9H170l4.15-12h2.95l4.17,12h-2.67Zm-3.67-1.88h3.13l-1.53-4.9h-.06Z"/><path class="cls-2" d="M182.53,191.18v-12h2.09l5.6,7.81h.06V179.2h2.4v12h-2.07L185,183.34h-.07v7.84Z"/><path class="cls-2" d="M198.08,191.18v-4.47l-4.17-7.51h2.73l2.68,5.12h.06l2.69-5.12h2.69l-4.18,7.51v4.47Z"/></g></svg>