<svg width="620" height="626" fill="none" xmlns="http://www.w3.org/2000/svg"><path d="M609.484 118.268c-20.759-42.296-62.24-65.149-87.967-79.32-111.205-61.266-262.696-44.96-363.384 12.165C58.783 107.498-27.869 241.01 8.435 386.061 44.88 531.67 186.743 606.541 294.042 622.417c170.375 25.206 313.522-89.465 321.358-129.265a102.971 102.971 0 001.785-23.154c-3.025-28.729-26.429-45.804-31.882-111.285-10.032-120.479 60.589-166.267 24.181-240.445z" fill="#fff"/><path d="M555.133 408.273l-312.686-43.432a15.722 15.722 0 01-9.812-5.196 15.678 15.678 0 01-3.922-10.377l-4.293-217.81s7.129-5.103 11.166-7.1a12.155 12.155 0 016.887-1.149l311.74 39.707a15.716 15.716 0 019.812 5.195 15.68 15.68 0 013.922 10.377v213.938a12.147 12.147 0 01-1.172 5.217 12.184 12.184 0 01-3.299 4.212c-2.466 2.054-8.343 6.418-8.343 6.418z" fill="#005AEE"/><path d="M545.563 411.163l-312.353-39.79a15.759 15.759 0 01-9.829-5.208 15.717 15.717 0 01-3.931-10.396V141.417a12.215 12.215 0 014.156-9.17 12.239 12.239 0 019.636-2.951l312.379 39.776a15.771 15.771 0 019.83 5.212 15.732 15.732 0 013.93 10.399v214.352a12.224 12.224 0 01-8.672 11.696 12.255 12.255 0 01-5.146.432zm-181.85 121.523L43.081 491.392a4.42 4.42 0 01-2.825-1.503 4.405 4.405 0 01-1.066-3.014c0-1.448.14-11.636.14-11.636l169.535-96.791c8.49-4.848 19.484-6.717 29.187-5.473l316.576 40.784a5.426 5.426 0 014.299 3.241l.505 1.193s-.268 8.497-.16 10.481a4.349 4.349 0 01-2.242 4.09l-165.28 94.372a45.034 45.034 0 01-28.037 5.55z" fill="#1F435B"/><path d="M363.713 521.344L44.231 480.132a4.475 4.475 0 01-3.797-3.558 4.459 4.459 0 012.149-4.736l164.391-93.779a45.07 45.07 0 0128.044-5.55L554.5 413.727a4.469 4.469 0 013.478 6.272 4.48 4.48 0 01-1.836 2.022L391.75 515.8a45.046 45.046 0 01-28.037 5.544z" fill="#fff"/><path d="M369.36 522.658a45.854 45.854 0 01-5.749-.364L44.103 481.102a5.405 5.405 0 01-4.659-4.318 5.397 5.397 0 012.666-5.762L206.5 377.243a46.345 46.345 0 0128.638-5.672l319.483 41.218a5.418 5.418 0 013.006 1.411 5.397 5.397 0 01-1.013 8.644l-164.386 93.779a46.335 46.335 0 01-22.869 6.035zm-5.526-2.265a44.358 44.358 0 0027.469-5.435l164.392-93.779a3.496 3.496 0 00-1.278-6.501l-319.495-41.193a44.345 44.345 0 00-27.469 5.436l-164.392 93.76a3.498 3.498 0 00-1.697 3.708 3.493 3.493 0 002.975 2.792l319.482 41.212h.013z" fill="#0D1C26"/><path d="M426.265 469.299L149.232 433.3a4.015 4.015 0 01-1.488-7.477l65.158-36.778a40.692 40.692 0 0125.329-5.015l277.033 36a4.02 4.02 0 013.445 3.213 4.009 4.009 0 01-1.982 4.27l-65.158 36.778a40.718 40.718 0 01-25.304 5.008zm-159.077 22.297l-66.864-8.549a1.804 1.804 0 01-.671-3.362l29.277-16.529a18.285 18.285 0 0111.377-2.252l66.865 8.555a1.804 1.804 0 011.519 1.45 1.798 1.798 0 01-.881 1.906l-29.276 16.529a18.294 18.294 0 01-11.346 2.252z" fill="#3BA6FF"/><path d="M201.64 252.746L65.752 235.438a5.209 5.209 0 01-4.587-5.173V39.848a3.714 3.714 0 012.634-3.554 3.73 3.73 0 011.563-.133L180.26 50.789l25.553 30.896v167.367a3.72 3.72 0 01-4.172 3.694z" fill="#fff"/><path d="M77.909 237.946h-.122l-12.137-1.544a6.205 6.205 0 01-3.851-2.05 6.188 6.188 0 01-1.547-4.075V39.848a4.678 4.678 0 013.299-4.462 4.697 4.697 0 011.958-.176l115.248 14.673 26.057 31.458v41.569a.958.958 0 01-1.916 0V82.03l-25.137-30.342L65.267 37.087a2.776 2.776 0 00-2.871 1.605 2.766 2.766 0 00-.247 1.138v190.436a4.275 4.275 0 003.724 4.223l12.138 1.55a.945.945 0 01.824 1.065.96.96 0 01-.926.843z" fill="#005AEE"/><path d="M205.652 82.808h-.128l-25.067-3.19a1.54 1.54 0 01-1.348-1.531V51.159a.956.956 0 01.958-.957.959.959 0 01.959.957v26.59l24.741 3.151a.956.956 0 01.637.36c.078.1.134.213.167.334a.96.96 0 01-.919 1.214z" fill="#005AEE"/><path d="M82.738 120.224l1.52 3.655a.878.878 0 00.57.511l3.723 1.084a.879.879 0 01.326 1.518l-2.67 2.252a.879.879 0 00-.307.785l.467 3.611a.881.881 0 01-1.38.836l-3.022-2.106a.867.867 0 00-.83-.095l-3.277 1.276a.88.88 0 01-1.157-.529.882.882 0 01-.032-.467l.767-3.77a.87.87 0 00-.185-.746l-2.556-3.018a.88.88 0 01.64-1.448l3.391-.038a.886.886 0 00.767-.46l1.616-2.96a.878.878 0 011.332-.31.882.882 0 01.297.419zm17.076 2.111l1.52 3.656a.89.89 0 00.568.51l3.731 1.085a.88.88 0 01.32 1.518l-2.671 2.246a.888.888 0 00-.306.791l.466 3.611a.886.886 0 01-1.393.854l-3.021-2.105a.877.877 0 00-.83-.095l-3.271 1.275a.878.878 0 01-.46.042.882.882 0 01-.722-1.03l.773-3.771a.893.893 0 00-.192-.746l-2.555-3.024a.879.879 0 01.639-1.448h3.386a.895.895 0 00.766-.459l1.655-2.999a.89.89 0 011.597.089zm17.075 2.112l1.52 3.656a.908.908 0 00.569.51l3.731 1.084a.888.888 0 01.614.664.876.876 0 01-.295.855l-2.67 2.245a.903.903 0 00-.307.791l.466 3.605a.878.878 0 01-.903.994.874.874 0 01-.476-.158l-3.035-2.087a.866.866 0 00-.83-.095l-3.277 1.276a.883.883 0 01-1.188-.996l.766-3.776a.865.865 0 00-.185-.74l-2.555-3.024a.88.88 0 01.638-1.448l3.392-.039a.868.868 0 00.761-.453l1.622-2.966a.876.876 0 011.642.102zm17.101 2.105l1.52 3.662a.854.854 0 00.569.504l3.724 1.091a.883.883 0 01.619.662.876.876 0 01-.293.856l-2.67 2.246a.88.88 0 00-.307.791l.466 3.604a.874.874 0 01-.416.868.889.889 0 01-.963-.032l-3.022-2.099a.867.867 0 00-.83-.095l-3.271 1.276a.883.883 0 01-1.195-.989l.773-3.777a.882.882 0 00-.191-.74l-2.556-3.024a.872.872 0 01-.133-.923.875.875 0 01.772-.525l3.392-.038a.878.878 0 00.767-.46l1.616-2.96a.883.883 0 011.629.102z" fill="#FF4B99"/><path d="M151.046 128.664l1.521 3.662a.878.878 0 00.568.504l3.731 1.091a.872.872 0 01.614.663.876.876 0 01-.295.855l-2.67 2.246a.88.88 0 00-.307.784l.467 3.611a.884.884 0 01-.903.995.886.886 0 01-.477-.159l-3.022-2.105a.888.888 0 00-.83-.096l-3.271 1.276a.879.879 0 01-.891-.144.876.876 0 01-.297-.851l.767-3.771a.89.89 0 00-.192-.74l-2.555-3.024a.877.877 0 01.67-1.448l3.386-.038a.881.881 0 00.767-.459l1.616-2.961a.877.877 0 01.837-.462.88.88 0 01.766.571z" fill="#AECFED"/><path d="M102.277 110.933c14.307-.706 25.286-13.776 24.523-29.193-.764-15.417-12.98-27.342-27.286-26.636-14.307.706-25.286 13.777-24.523 29.194.763 15.416 12.98 27.342 27.286 26.635z" fill="#fff"/><path d="M83.524 84.766c13.147-6.972 28.171.332 35.863 7.426a26.11 26.11 0 014.037 4.861c-4.229 7.93-12.01 13.397-21.151 13.876-10.758.529-20.34-6.086-24.748-15.949.888-4.344 2.562-8.395 5.999-10.214z" fill="#3BA6FF"/><path d="M108.048 80.352c4.21-.715 6.72-4.913 5.059-8.53-2.728-5.952-5.04-12.906-13.115-12.708-8.413.21-11.313 7.656-12.271 15.113-.518 4.051 3.264 7.337 7.57 6.603l12.757-.478z" fill="#005AEE"/><path d="M96.76 71.101l-.658 11.28a2.862 2.862 0 01-2.204 2.621l-1.08.288a2.594 2.594 0 00-1.846 2.116 2.587 2.587 0 001.17 2.553c3.385 2.201 8.764 4.498 15.082 2.903a2.593 2.593 0 001.918-2.21 2.588 2.588 0 00-1.369-2.587l-1.086-.575a4.736 4.736 0 01-2.517-4.42l-.076-10.954L96.76 71.1z" fill="#fff"/><path d="M102.976 94.33a21.101 21.101 0 01-11.358-3.586 3.542 3.542 0 01-1.585-3.528 3.475 3.475 0 012.555-2.864c.377-.109.754-.21 1.119-.294a1.917 1.917 0 001.469-1.754l.715-12.294 9.193 1.276.044 11.732a3.83 3.83 0 002.032 3.605l1.086.574a3.54 3.54 0 011.865 3.572 3.482 3.482 0 01-2.632 2.999 18.092 18.092 0 01-4.503.561zm-5.322-22.157L97.06 82.38a3.825 3.825 0 01-2.938 3.503c-.339.083-.69.172-1.042.274a1.591 1.591 0 00-1.156 1.327 1.625 1.625 0 00.741 1.633c3.233 2.1 8.343 4.287 14.322 2.775a1.579 1.579 0 001.201-1.365 1.625 1.625 0 00-.862-1.659l-1.086-.574a5.743 5.743 0 01-3.028-5.276l-.07-10.067-5.488-.778z" fill="#005AEE"/><path d="M99.82 65.794l4.267 2.303a3.187 3.187 0 011.636 3.266c-.377 2.635-1.406 6.705-4.114 7.19-4.05.733-5.577-5.161-5.577-5.161a3.098 3.098 0 01-2.012-1.219c-.959-1.493-.946-4.466 1.801-3.962l.434-.905a2.937 2.937 0 013.565-1.512z" fill="#fff"/><path d="M100.893 79.58c-3.475 0-5.11-3.898-5.621-5.385a3.75 3.75 0 01-2.057-1.499c-.748-1.16-1.08-3.075-.218-4.35a2.554 2.554 0 012.249-1.11l.147-.307a3.895 3.895 0 014.74-2.041l.153.064 4.268 2.303a4.182 4.182 0 012.133 4.242c-.485 3.337-1.725 7.426-4.893 8a4.856 4.856 0 01-.901.083zm-5.666-10.463c-.46 0-.588.192-.639.268a2.485 2.485 0 00.243 2.278c.328.415.8.692 1.322.778l.639.09.16.637c0 .051 1.36 5.034 4.471 4.466 2.236-.402 3.073-4.606 3.335-6.38a2.24 2.24 0 00-1.144-2.283l-4.184-2.259a1.983 1.983 0 00-2.306.995l-.754 1.57-.709-.121a2.862 2.862 0 00-.434-.039z" fill="#005AEE"/><path d="M101.072 111.924c-14.265 0-26.274-12.121-27.035-27.579a29.83 29.83 0 016.83-20.771 25.847 25.847 0 0118.628-9.423c14.768-.727 27.468 11.643 28.26 27.547.792 15.904-10.623 29.461-25.431 30.194-.422.019-.837.032-1.252.032zm-.358-55.891h-1.15a23.924 23.924 0 00-17.248 8.74 27.938 27.938 0 00-6.388 19.445c.735 14.864 12.521 26.405 26.281 25.728 13.76-.676 24.345-13.32 23.636-28.184-.722-14.418-11.875-25.73-25.131-25.73z" fill="#005AEE"/><path d="M137.42 94.342a2.396 2.396 0 002.096 2.367l24.607 3.088a2.392 2.392 0 002.471-1.387 2.389 2.389 0 00-.385-2.56 2.395 2.395 0 00-1.492-.793L140.11 91.95a2.394 2.394 0 00-2.486 1.402c-.138.312-.207.65-.204.99zm41.523 5.263a2.39 2.39 0 002.102 2.367l9.908 1.225a2.4 2.4 0 001.875-.58 2.383 2.383 0 00.209-3.369 2.397 2.397 0 00-1.497-.791l-9.908-1.212a2.391 2.391 0 00-2.689 2.36zm-2.555-11.483a2.391 2.391 0 00-2.089-2.367l-34.189-4.274a2.4 2.4 0 00-2.478 1.39 2.396 2.396 0 00-.212.983 2.398 2.398 0 002.096 2.354l34.189 4.262a2.39 2.39 0 002.683-2.348zm17.248 23.209a2.389 2.389 0 00-2.089-2.367l-51.431-6.494a2.396 2.396 0 00-2.696 2.366 2.39 2.39 0 002.096 2.367l51.43 6.482a2.397 2.397 0 001.878-.57 2.384 2.384 0 00.812-1.784z" fill="#AECFED"/><path d="M319.609 364.911l-142.614-18.169a5.48 5.48 0 01-3.418-1.809 5.46 5.46 0 01-1.367-3.614V141.468a3.891 3.891 0 011.325-2.929 3.915 3.915 0 013.076-.944l147.355 18.877.045 204.56a3.914 3.914 0 01-1.323 2.933 3.911 3.911 0 01-3.079.946z" fill="#F0F6FA"/><path d="M172.21 209.971a.96.96 0 01-.958-.957v-67.546a4.85 4.85 0 013.437-4.65 4.873 4.873 0 012.044-.173l48.549 6.181a.955.955 0 01.805.699.959.959 0 01.026.373.97.97 0 01-1.073.83l-48.55-6.182a2.958 2.958 0 00-2.321.712 2.953 2.953 0 00-1.001 2.21v67.54a.95.95 0 01-.278.681.972.972 0 01-.68.282z" fill="#005AEE"/><path d="M194.818 225.154l1.597 3.828a.918.918 0 00.594.536l3.916 1.142a.922.922 0 01.647.696.935.935 0 01-.03.492.934.934 0 01-.279.407l-2.804 2.36a.898.898 0 00-.32.823l.486 3.79a.923.923 0 01-.435.91.922.922 0 01-1.009-.036l-3.194-2.208a.92.92 0 00-.869-.102l-3.436 1.372a.93.93 0 01-1.249-.544.923.923 0 01-.029-.502l.805-3.962a.94.94 0 00-.198-.778l-2.67-3.19a.923.923 0 01.702-1.518l3.558-.039a.93.93 0 00.799-.485l1.699-3.106a.927.927 0 011.719.114zm17.925 2.214l1.597 3.828a.92.92 0 00.594.529l3.916 1.142a.93.93 0 01.647.697.932.932 0 01-.309.898l-2.804 2.361a.904.904 0 00-.32.823l.486 3.789a.93.93 0 01-.437.914.931.931 0 01-1.013-.034l-3.194-2.207a.92.92 0 00-.869-.102l-3.437 1.365a.93.93 0 01-1.243-.547.922.922 0 01-.034-.499l.811-3.955a.953.953 0 00-.198-.785l-2.67-3.19a.919.919 0 01-.131-.981.925.925 0 01.833-.537l3.552-.038a.94.94 0 00.85-.453l1.699-3.107a.925.925 0 011.353-.316.938.938 0 01.321.405z" fill="#FF4B99"/><path d="M230.668 229.582l1.597 3.828a.906.906 0 00.594.535l3.916 1.136a.939.939 0 01.422.26.924.924 0 01-.09 1.341l-2.824 2.367a.942.942 0 00-.326.829l.492 3.784a.92.92 0 01-.948 1.047.933.933 0 01-.502-.167l-3.194-2.207a.923.923 0 00-.875-.102l-3.43 1.365a.93.93 0 01-1.249-.544.923.923 0 01-.029-.502l.805-3.956a.896.896 0 00-.198-.778l-2.664-3.19a.923.923 0 01.204-1.368.926.926 0 01.492-.15l3.559-.039a.91.91 0 00.804-.478l1.7-3.113a.919.919 0 01.908-.565.923.923 0 01.836.667zm17.925 2.22l1.59 3.828a.92.92 0 00.601.536l3.909 1.142a.923.923 0 01.339 1.594l-2.804 2.354a.944.944 0 00-.32.83l.492 3.789a.924.924 0 01-.95 1.041.923.923 0 01-.5-.167l-3.194-2.207a.933.933 0 00-.875-.102l-3.431 1.365a.93.93 0 01-.957-.13.928.928 0 01-.32-.91l.805-3.962a.905.905 0 00-.199-.778l-2.663-3.19a.918.918 0 01.2-1.375.921.921 0 01.496-.149l3.558-.039a.916.916 0 00.805-.478l1.693-3.107a.927.927 0 011.725.115zm17.918 2.214l1.597 3.827a.926.926 0 00.594.53l3.916 1.142a.925.925 0 01.339 1.595l-2.804 2.36a.93.93 0 00-.264.371c-.056.144-.075.299-.056.452l.486 3.79a.923.923 0 01-.435.91.921.921 0 01-1.009-.036l-3.194-2.208a.943.943 0 00-.425-.161.946.946 0 00-.45.059l-3.437 1.372a.924.924 0 01-.934-.153.93.93 0 01-.312-.893l.805-3.962a.925.925 0 00-.198-.778l-2.67-3.19a.923.923 0 01.208-1.371.934.934 0 01.495-.148l3.558-.038a.927.927 0 00.798-.485l1.699-3.107a.926.926 0 011.693.122z" fill="#AECFED"/><path d="M215.34 215.397c15.015-.741 26.537-14.459 25.737-30.64-.801-16.18-13.622-28.696-28.637-27.955-15.015.741-26.537 14.459-25.737 30.64.801 16.18 13.622 28.696 28.637 27.955z" fill="#fff"/><path d="M197.718 188.23c12.968-6.584 27.501.057 35.569 7.508a27.301 27.301 0 014.235 5.104c-4.44 8.293-12.604 14.092-22.199 14.565-11.294.555-21.342-6.38-25.974-16.753a16.979 16.979 0 018.369-10.424zM221.175 163.694a6.032 6.032 0 00-3.271-.963h-6.829a6.022 6.022 0 00-4.107 1.614l-.377.344a6.037 6.037 0 00-1.572 6.463l2.243 6.22 14.398-.09 2.032-6.794a6.028 6.028 0 00-2.517-6.794z" fill="#005AEE"/><path d="M217.732 166.456l-10.528 6.743v3.911a7.251 7.251 0 002.766 5.703v6.157a4.42 4.42 0 001.231 3.225 4.42 4.42 0 006.36 0 4.416 4.416 0 001.231-3.225v-5.991a7.253 7.253 0 002.983-5.869v-4.287a7.025 7.025 0 00-4.043-6.367z" fill="#fff"/><path d="M214.372 194.329a5.382 5.382 0 01-3.797-1.574 5.366 5.366 0 01-1.576-3.792v-6.028a.955.955 0 01.958-.957.96.96 0 01.959.957v6.028a3.44 3.44 0 00.957 2.536 3.457 3.457 0 005.948-2.536v-5.837a.957.957 0 011.636-.677c.18.18.281.423.281.677v5.837a5.364 5.364 0 01-1.572 3.792 5.377 5.377 0 01-3.794 1.574z" fill="#005AEE"/><path d="M214.48 185.34a.955.955 0 01-.677-.281.953.953 0 010-1.353.958.958 0 01.677-.28 6.34 6.34 0 004.475-1.854 6.323 6.323 0 001.856-4.468v-4.287a6.075 6.075 0 00-1.786-4.295 6.09 6.09 0 00-4.302-1.779h-6.573v10.361a6.327 6.327 0 003.705 5.741.963.963 0 01.479 1.276.953.953 0 01-1.278.472 8.261 8.261 0 01-3.515-3.041 8.243 8.243 0 01-1.314-4.455V164.83h8.483a8.016 8.016 0 015.656 2.34 7.996 7.996 0 012.348 5.647v4.287a8.236 8.236 0 01-2.412 5.817 8.26 8.26 0 01-5.822 2.419z" fill="#005AEE"/><path d="M214.065 216.395c-14.948 0-27.526-12.689-28.331-28.899a31.296 31.296 0 017.161-21.767 27.014 27.014 0 0119.483-9.869c15.517-.778 28.817 12.185 29.641 28.861a31.302 31.302 0 01-7.161 21.773 27.057 27.057 0 01-19.483 9.857 18.41 18.41 0 01-1.31.044zm-.377-58.653h-1.214a25.169 25.169 0 00-18.11 9.186 29.355 29.355 0 00-6.714 20.472c.748 15.19 12.482 27.075 26.415 27.081.402 0 .805 0 1.214-.031a25.124 25.124 0 0018.11-9.187 29.319 29.319 0 006.714-20.446c-.748-15.19-12.482-27.075-26.415-27.075z" fill="#005AEE"/><path d="M252.406 197.99a2.51 2.51 0 002.198 2.482l25.674 3.254a2.505 2.505 0 002.817-2.482 2.513 2.513 0 00-2.191-2.482l-25.649-3.241a2.51 2.51 0 00-2.849 2.469zm43.44 5.563a2.506 2.506 0 002.171 2.482l9.04 1.225a2.513 2.513 0 001.984-.593 2.497 2.497 0 00.858-1.882 2.495 2.495 0 00-2.152-2.469l-9.04-1.232a2.51 2.51 0 00-2.861 2.469zm-2.556-12.083a2.507 2.507 0 00-2.191-2.481l-35.875-4.466a2.526 2.526 0 00-1.97.61 2.513 2.513 0 00-.848 1.878 2.515 2.515 0 002.198 2.482l35.876 4.465a2.5 2.5 0 002.81-2.488zm16.609 24.345a2.51 2.51 0 00-2.178-2.482l-52.485-6.8a2.505 2.505 0 00-2.607 1.449 2.498 2.498 0 00.402 2.683c.402.457.957.752 1.56.831l52.517 6.8a2.502 2.502 0 002.791-2.481z" fill="#AECFED"/><path d="M530.181 369.46l-208.349-26.558a8.005 8.005 0 01-4.992-2.648 7.987 7.987 0 01-1.996-5.282V43.006a5.733 5.733 0 011.949-4.266 5.748 5.748 0 014.484-1.393l176.126 22.43 39.217 47.382v256.623a5.696 5.696 0 01-1.931 4.296 5.73 5.73 0 01-4.508 1.382z" fill="#fff"/><path d="M530.903 370.442c-.282 0-.564-.019-.844-.057l-208.348-26.533a8.98 8.98 0 01-5.586-2.969 8.96 8.96 0 01-2.239-5.911V43.006a6.646 6.646 0 012.263-4.996 6.666 6.666 0 015.249-1.607l176.127 22.43a.974.974 0 01.639.339l39.216 47.374a.977.977 0 01.224.638v256.598a6.67 6.67 0 01-1.96 4.708 6.688 6.688 0 01-4.716 1.952h-.025zM320.555 38.259c-1.261 0-2.47.5-3.361 1.39a4.744 4.744 0 00-1.392 3.357v291.966a7.014 7.014 0 001.752 4.653 7.033 7.033 0 004.4 2.326l208.348 26.539a4.77 4.77 0 004.934-2.755 4.765 4.765 0 00.426-1.953V107.503L496.905 60.69 321.162 38.298a4.764 4.764 0 00-.607-.038z" fill="#0D1C26"/><path d="M535.605 107.937h-.122l-37.575-4.785a1.838 1.838 0 01-1.603-1.818v-40.35a.956.956 0 01.958-.957.959.959 0 01.958.957v40.274l37.505 4.771a.963.963 0 01.898 1.018.963.963 0 01-1.019.896v-.006z" fill="#0D1C26"/><path d="M525.179 117.289a3.462 3.462 0 00-3.041-3.445l-74.16-9.48a3.492 3.492 0 00-3.928 3.452 3.482 3.482 0 003.047 3.451l74.159 9.442a3.48 3.48 0 003.607-1.996c.205-.447.313-.932.316-1.424zm0 15.311a3.462 3.462 0 00-3.041-3.445l-74.16-9.48a3.506 3.506 0 00-2.742.843 3.486 3.486 0 00-1.186 2.609 3.484 3.484 0 003.047 3.451l74.159 9.442a3.48 3.48 0 003.607-1.996c.205-.447.313-.932.316-1.424zm0 15.311a3.462 3.462 0 00-3.041-3.445l-74.16-9.48a3.506 3.506 0 00-2.742.843 3.485 3.485 0 00-1.186 2.608 3.485 3.485 0 003.047 3.452l74.159 9.442a3.48 3.48 0 003.607-1.996c.205-.447.313-.932.316-1.424zm-90.711 70.775a3.474 3.474 0 00-3.009-3.445l-97.163-13.231a3.495 3.495 0 00-2.76.827 3.479 3.479 0 00-1.195 2.618 3.475 3.475 0 003.016 3.444l97.163 13.212a3.48 3.48 0 003.632-1.993 3.47 3.47 0 00.316-1.432zm0 15.311a3.474 3.474 0 00-3.009-3.445l-97.163-13.232a3.495 3.495 0 00-3.64 2.008 3.46 3.46 0 00.546 3.725 3.48 3.48 0 002.155 1.157l97.163 13.212a3.468 3.468 0 002.752-.818 3.47 3.47 0 001.196-2.607zm0 15.31a3.474 3.474 0 00-3.009-3.444l-97.163-13.232a3.496 3.496 0 00-2.76.827 3.498 3.498 0 00-1.195 2.618 3.48 3.48 0 003.016 3.445l97.163 13.212a3.468 3.468 0 002.752-.818 3.47 3.47 0 001.196-2.608zm-91.14-89.575l2.505 6.029a1.446 1.446 0 00.932.836l6.152 1.792a1.455 1.455 0 01.53 2.508l-4.401 3.7a1.449 1.449 0 00-.505 1.276l.767 5.952a1.452 1.452 0 01-1.49 1.636 1.457 1.457 0 01-.785-.265l-4.976-3.464a1.473 1.473 0 00-1.373-.159l-5.392 2.143a1.443 1.443 0 01-1.469-.231 1.46 1.46 0 01-.44-.633 1.458 1.458 0 01-.052-.769l1.278-6.22a1.447 1.447 0 00-.313-1.225l-4.191-4.963a1.445 1.445 0 01.326-2.121c.226-.149.489-.232.76-.24l5.59-.057c.261 0 .518-.071.743-.204.224-.134.409-.326.534-.555l2.651-4.925a1.449 1.449 0 012.619.159zm28.146 3.477l2.505 6.029a1.424 1.424 0 00.939.836l6.145 1.792a1.455 1.455 0 01.53 2.507l-4.401 3.701a1.449 1.449 0 00-.505 1.275l.767 5.953a1.448 1.448 0 01-.69 1.425 1.458 1.458 0 01-1.584-.047l-4.977-3.471a1.461 1.461 0 00-1.373-.153l-5.392 2.143a1.459 1.459 0 01-1.961-1.639l1.278-6.22a1.447 1.447 0 00-.313-1.225l-4.185-4.976a1.439 1.439 0 01-.331-.741 1.441 1.441 0 01.651-1.414c.233-.15.503-.23.779-.231l5.583-.064a1.448 1.448 0 001.278-.759l2.67-4.88a1.454 1.454 0 012.09-.455c.22.154.392.367.497.614zm28.146 3.477l2.505 6.029a1.476 1.476 0 00.939.842l6.145 1.786a1.455 1.455 0 01.53 2.507l-4.401 3.707a1.434 1.434 0 00-.505 1.276l.767 5.945a1.45 1.45 0 01-.69 1.426 1.452 1.452 0 01-1.584-.048l-4.977-3.464a1.458 1.458 0 00-1.373-.159l-5.392 2.143a1.454 1.454 0 01-1.468-.238 1.452 1.452 0 01-.493-1.401l1.278-6.214a1.447 1.447 0 00-.313-1.225l-4.185-4.982a1.447 1.447 0 011.099-2.386l5.583-.064a1.447 1.447 0 001.278-.753l2.67-4.88a1.464 1.464 0 011.341-.713 1.458 1.458 0 011.246.866zm28.146 3.483l2.505 6.029a1.457 1.457 0 00.939.836l6.145 1.792a1.453 1.453 0 011.017 1.092 1.448 1.448 0 01-.487 1.409l-4.401 3.707a1.442 1.442 0 00-.505 1.276l.767 5.952a1.453 1.453 0 01-.688 1.428 1.45 1.45 0 01-1.586-.057l-4.977-3.438a1.469 1.469 0 00-1.373-.16l-5.392 2.144a1.45 1.45 0 01-1.961-1.64l1.278-6.214a1.447 1.447 0 00-.313-1.224l-4.185-4.983a1.447 1.447 0 011.099-2.386l5.583-.057a1.475 1.475 0 001.278-.759l2.664-4.881a1.447 1.447 0 012.09-.479c.222.154.396.366.503.613zm28.146 3.477l2.505 6.029a1.465 1.465 0 00.939.836l6.145 1.792a1.455 1.455 0 01.53 2.507l-4.401 3.7a1.459 1.459 0 00-.505 1.276l.767 5.952a1.45 1.45 0 01-.69 1.426 1.452 1.452 0 01-1.584-.048l-4.945-3.451a1.457 1.457 0 00-1.367-.153l-5.398 2.144a1.464 1.464 0 01-1.468-.239 1.452 1.452 0 01-.493-1.401l1.278-6.22a1.457 1.457 0 00-.307-1.225l-4.191-4.982a1.454 1.454 0 011.099-2.386l5.583-.058a1.457 1.457 0 001.278-.759l2.664-4.88a1.457 1.457 0 011.323-.702 1.455 1.455 0 011.238.842z" fill="#AECFED"/><path d="M74.395 523.506l1.52 14.463 9.794 1.148v-17.155l-11.314 1.544z" fill="#fff"/><path d="M85.709 540.074h-.115l-9.793-1.148a.959.959 0 01-.837-.849l-1.52-14.469a.95.95 0 01.817-1.039l11.313-1.538a.956.956 0 01.762.224.964.964 0 01.33.72v17.155a.973.973 0 01-.325.714.964.964 0 01-.632.23zm-8.944-2.966l7.966.931V523.06l-9.307 1.276 1.341 12.772z" fill="#0D1C26"/><path d="M87.887 564.291a73.36 73.36 0 01-19.267 0 4.38 4.38 0 01-3.66-5.359c1.731-7.018 4.07-20.976 9.186-27.151l1.917 3.987 1.117-3.152c.595-1.276 1.917-1.212 2.428-1.276h2.555a1.554 1.554 0 011.719 1.219l.785 3.234 3.086-4.146 1.725 17.39 2.108 10.373c.306 3.471-1.33 4.549-3.699 4.881z" fill="#005AEE"/><path d="M78.234 565.886a71.74 71.74 0 01-9.748-.638 5.341 5.341 0 01-4.539-4.335 5.322 5.322 0 01.068-2.217c.293-1.193.638-2.622.951-4.14 1.706-7.656 4.044-18.099 8.426-23.388a.952.952 0 011.604.198l.913 1.914.345-.976.038-.09a3.293 3.293 0 013.01-1.799h2.81a2.522 2.522 0 012.709 1.978l.3 1.225 1.859-2.507a.956.956 0 011.027-.354.957.957 0 01.698.832l1.724 17.34 2.096 10.322a.695.695 0 010 .108c.3 3.522-1.182 5.455-4.53 5.927a71.748 71.748 0 01-9.76.6zm-4.292-32.274c-3.495 5.256-5.558 14.475-7.091 21.346-.339 1.524-.639 2.966-.965 4.185a3.367 3.367 0 00.492 2.724 3.445 3.445 0 002.37 1.473 72.148 72.148 0 0019.005 0c2-.28 3.117-.995 2.894-3.827l-2.096-10.316a.497.497 0 000-.096l-1.482-14.928-1.629 2.182a.97.97 0 01-.961.364.968.968 0 01-.744-.709l-.773-3.234a.639.639 0 00-.64-.498h-2.861c-.639.045-1.137.128-1.412.638l-1.099 3.101a.956.956 0 01-.849.642.95.95 0 01-.914-.547l-1.245-2.5z" fill="#0D1C26"/><path d="M77.449 561.229a36.052 36.052 0 01-7.979-.881.954.954 0 01-.785-1.156.958.958 0 011.207-.707 35.334 35.334 0 0017.573-.638.96.96 0 011.184 1.316.96.96 0 01-.545.49 35.08 35.08 0 01-10.655 1.576zm-3.884-10.756a.957.957 0 110-1.914l9.18-.3a.938.938 0 01.69.254.943.943 0 01.3.671.96.96 0 01-.927.989l-9.18.3h-.063z" fill="#0D1C26"/><path d="M120.262 515.806l1.469 21.104h11.78l.549-21.104h-13.798z" fill="#fff"/><path d="M133.511 537.88h-11.78a.963.963 0 01-.958-.894l-1.476-21.116a.96.96 0 01.255-.72.955.955 0 01.704-.301h13.798a.957.957 0 01.958.983l-.549 21.103a.96.96 0 01-.952.945zm-10.86-1.914h9.953l.498-19.19H121.29l1.361 19.19z" fill="#0D1C26"/><path d="M118.658 548.827a4.25 4.25 0 003.284 4.204c6.771 1.569 22.033 5.103 26.389 5.741 5.647.843 13.23.39 16.213-2.909 2.984-3.298-2.747-9.741-11.914-15.311-6.86-4.178-13.363-12.676-16.11-13.052-2.747-.376-7.87 7.572-7.87 7.572l-8.388-3.572a103.152 103.152 0 00-1.604 17.327z" fill="#005AEE"/><path d="M153.346 560.087a36.181 36.181 0 01-5.168-.383c-4.421-.638-19.976-4.236-26.46-5.742a5.235 5.235 0 01-4.024-5.148c.048-5.859.584-11.704 1.603-17.474a.96.96 0 011.278-.695l7.666 3.19c1.661-2.476 5.544-7.726 8.368-7.337 1.584.217 3.565 2.042 6.925 5.251 2.887 2.749 6.164 5.869 9.55 7.936 7.666 4.67 12.578 9.665 13.115 13.352a4.065 4.065 0 01-.99 3.426c-2.287 2.59-7.04 3.624-11.863 3.624zm-32.356-27.216a109.415 109.415 0 00-1.38 15.949 3.308 3.308 0 002.556 3.254c6.458 1.505 21.955 5.065 26.312 5.741 5.519.817 12.681.358 15.364-2.609a2.174 2.174 0 00.517-1.863c-.447-3.043-5.238-7.751-12.22-12-3.565-2.169-7.066-5.505-9.877-8.184-2.369-2.259-4.816-4.594-5.864-4.74-1.277-.179-4.618 3.553-6.937 7.145a.959.959 0 01-1.176.37l-7.295-3.063z" fill="#0D1C26"/><path d="M150.982 554.932c-10.329 0-23.419-3.56-28.203-5.378a.953.953 0 01-.653-.871.958.958 0 011.336-.915c5.443 2.067 27.469 8.032 36.355 3.764a.96.96 0 011.238.465.955.955 0 01-.407 1.257c-2.498 1.212-5.897 1.678-9.666 1.678zm-12.885-11.668a.943.943 0 01-.709-.313.945.945 0 01-.248-.691.955.955 0 01.319-.661l5.992-5.397a.959.959 0 01.692-.248.954.954 0 01.905 1.008.963.963 0 01-.313.662l-5.992 5.397a.961.961 0 01-.646.243zM71.054 378.206S67.4 444.19 65.49 466.964c-1.91 22.775 4.472 59.394 4.472 59.394l18.193-.957s1.278-44.516 2.594-56.88c0 0 7.666-16.759 9.959-31.706 2.293-14.948 10.036-38.552 10.036-38.552s6.298 117.837 6.905 127.093c0 0 14.265.638 19.375-2.551 0 0 9.065-42.967 7.762-66.348s.128-81.46.128-81.46l-73.86 3.209z" fill="#0D1C26"/><path d="M159.312 273.339c.85-.064 7.934 7.656 12.904 13.206a9.864 9.864 0 0011.786 2.207c12.361-6.214 21.388-12.548 33.142-21.997 0 0 7.072-11.866 12.399-16.14 2.108-1.69 3.514-2.8 4.472-3.528a1.525 1.525 0 012.24.408c.149.246.225.53.219.817a4.384 4.384 0 01-.741 2.303c-1.667 2.616-4.363 6.239-4.363 6.239s5.877 3.458.869 11.139c-2.082 3.19-4.165 3.796-6.445 4.427-2.281.632-4.855 4.721-4.855 4.721s-20.366 32.038-38.827 36.766c-13.313 3.406-22.672-7.177-38.399-15.171l15.599-25.397z" fill="#fff"/><path d="M177.033 315.514c-7.576 0-14.22-4.178-21.719-8.874-3.75-2.354-7.628-4.791-12.08-7.017a.98.98 0 01-.492-.6.955.955 0 01.108-.759l15.626-25.391a.936.936 0 01.741-.452c.696-.064 1.475-.115 13.696 13.518a8.95 8.95 0 0010.642 1.99c12.777-6.424 21.72-12.861 32.842-21.78.875-1.454 7.391-12.121 12.527-16.248a296.317 296.317 0 014.471-3.535 2.47 2.47 0 012.658-.261 2.427 2.427 0 011.354 2.265 5.426 5.426 0 01-.888 2.794c-1.226 1.914-2.964 4.325-3.833 5.531a7.447 7.447 0 012.326 3.828c.568 2.424-.096 5.103-1.981 8.006-2.287 3.515-4.682 4.185-6.995 4.829-1.418.396-3.392 2.846-4.299 4.3-.843 1.327-20.787 32.421-39.402 37.186a21.211 21.211 0 01-5.302.67zm-31.992-17.154c4.146 2.162 7.788 4.465 11.314 6.66 9.154 5.742 16.379 10.29 25.495 7.955 17.886-4.574 38.054-36.031 38.252-36.363.281-.447 2.817-4.408 5.41-5.104 2.236-.638 4.006-1.116 5.903-4.025 1.578-2.424 2.159-4.613 1.725-6.501a5.656 5.656 0 00-2.287-3.305.936.936 0 01-.447-.638.978.978 0 01.166-.759c0-.038 2.696-3.623 4.331-6.181a3.55 3.55 0 00.594-1.812.54.54 0 00-.307-.504.563.563 0 00-.638.057c-.927.727-2.332 1.831-4.434 3.522-5.11 4.121-12.105 15.763-12.175 15.878a1.098 1.098 0 01-.218.262c-10.962 8.816-20.365 15.604-33.269 22.105a10.872 10.872 0 01-12.936-2.424c-7.87-8.778-10.796-11.617-11.875-12.53l-14.604 23.707z" fill="#0D1C26"/><path d="M49.858 303.157s-8.898-41.875 27.667-54.13c22.416-7.509 50.109-5.742 61.55.599 16.334 9.059 26.887 26.424 26.887 26.424l-19.164 27.107s4.235 69.537.888 87.897c0 0-20.614 2.399-29.353-1.04-8.739-3.438-37.492-8.255-51.227-1.952l2.492-88.037-19.74 3.132z" fill="#005AEE"/><path d="M133.153 392.834c-5.526 0-11.384-.434-15.178-1.914-9.007-3.547-37.422-7.968-50.466-1.977a.95.95 0 01-1.355-.893l2.46-86.89-18.59 2.954a.966.966 0 01-1.092-.746 62.957 62.957 0 01.096-22.865c2.204-11.202 8.867-25.875 28.19-32.382 22.8-7.656 50.633-5.818 62.323.638 16.367 9.084 27.13 26.59 27.239 26.794a.94.94 0 01-.038 1.046l-18.973 26.832c.351 5.857 4.101 69.99.85 87.796a.948.948 0 01-.831.778c-4.86.531-9.745.808-14.635.829zm-47.387-8.797c13.108 0 27.239 2.858 32.912 5.104 7.518 2.96 24.498 1.435 28.178 1.059 3.066-19.056-.978-86.284-1.023-86.966a.962.962 0 01.179-.638l18.794-26.584c-1.916-2.954-11.863-17.607-26.191-25.556-11.103-6.163-38.789-7.892-60.777-.523-14.82 4.969-23.872 15.374-26.894 30.934a63.017 63.017 0 00-.287 21.199l18.813-2.985a.952.952 0 01.78.223.94.94 0 01.325.746l-2.478 86.558c4.848-1.837 11.128-2.571 17.669-2.571z" fill="#0D1C26"/><path d="M77.864 378.123a.962.962 0 01-.82-1.575.962.962 0 01.654-.339c32.579-5.741 42.04-28.197 42.129-28.421a.95.95 0 01.884-.638.957.957 0 01.892 1.353c-.095.236-9.946 23.662-43.573 29.595a.717.717 0 01-.166.025z" fill="#0D1C26"/><path d="M156.54 343.935h-41.964l15-52.593h41.963l-14.999 52.593z" fill="#3BA6FF"/><path d="M156.54 344.892h-41.964a.954.954 0 01-.763-.381.95.95 0 01-.156-.837l14.999-52.593a.947.947 0 01.92-.696h41.963a.954.954 0 01.92 1.219l-14.999 52.593a.945.945 0 01-.343.502.948.948 0 01-.577.193zm-40.692-1.914h39.97l14.45-50.679h-39.97l-14.45 50.679z" fill="#0D1C26"/><path d="M155.997 294.602h-15.376l2.312-8.076h15.076a.516.516 0 01.499.638l-2 7.017a.516.516 0 01-.511.421z" fill="#fff"/><path d="M155.997 295.559h-15.376a.966.966 0 01-.767-.383.966.966 0 01-.153-.842l2.3-8.057a.96.96 0 01.92-.696h15.075a1.482 1.482 0 011.452 1.197c.041.222.029.45-.033.666l-2 7.018a1.483 1.483 0 01-1.418 1.097zm-14.105-1.914h13.773l1.75-6.15h-13.773l-1.75 6.15z" fill="#0D1C26"/><path d="M53.557 302.672l20.564-3.668 2.165 9.652a8.476 8.476 0 002.469 4.334 8.496 8.496 0 004.481 2.199c6.663 1.059 18.647.804 28.907-2.609 2.638-.881 8.981-3.228 8.802-11.324-.121-5.397 5.75-.357 4.689 3.923-1.277 5.034-.639 5.053 6.325 5.627 3.142.262 9.729-1.837 10.974 0 1.246 1.837-2.197 6.96-7.282 8.836-7.097 2.622-13.454-.243-15.651.708-7.238 3.132-12.578 6.15-18.404 8.325-11.103 4.153-20.832 6.31-26.869 7.879-2.886.75-5.952.34-8.54-1.141a11.39 11.39 0 01-5.303-6.782l-7.327-25.959z" fill="#fff"/><path d="M71.897 337.875a12.463 12.463 0 01-7.47-2.513 12.43 12.43 0 01-4.463-6.489l-7.327-25.946a.948.948 0 01.754-1.199l20.55-3.662a.957.957 0 011.106.734l2.159 9.652a7.491 7.491 0 002.187 3.847 7.512 7.512 0 003.977 1.946c6.753 1.072 18.526.727 28.459-2.552 3.571-1.187 8.305-3.553 8.145-10.386-.038-1.627.409-2.679 1.323-3.126.913-.447 1.865-.179 2.855.638 1.636 1.321 3.035 4.096 2.396 6.635-.352 1.403-.697 2.934-.358 3.406.428.594 2.555.766 5.749 1.034h.134a22.938 22.938 0 004.242-.357c3.252-.453 6.324-.881 7.442.772a3.137 3.137 0 01.192 2.832c-.799 2.475-3.833 5.927-7.934 7.432-4.676 1.729-8.943 1.2-12.138.81-1.501-.185-2.925-.363-3.5-.114-3.073 1.327-5.75 2.622-8.381 3.872-3.437 1.652-6.682 3.19-10.062 4.466a211.087 211.087 0 01-23.56 7.017c-1.238.313-2.375.593-3.404.861a12.158 12.158 0 01-3.073.39zm-17.12-34.45l7.027 24.931a10.493 10.493 0 004.86 6.215 10.518 10.518 0 007.82 1.077l3.425-.868a210.793 210.793 0 0023.355-6.979c3.296-1.231 6.503-2.775 9.901-4.402a224.662 224.662 0 018.452-3.904c1.054-.459 2.497-.281 4.471 0 2.939.364 6.963.868 11.205-.702 3.392-1.276 6.107-4.146 6.771-6.226a1.507 1.507 0 00.052-1.168c-.454-.669-3.795-.204-5.59.045a23.89 23.89 0 01-4.67.37h-.102c-4.254-.351-6.19-.51-7.136-1.824-.817-1.142-.491-2.788.058-4.989.402-1.608-.454-3.471-1.514-4.466-.549-.523-.958-.638-1.035-.593-.077.044-.268.383-.249 1.365.134 5.997-3.047 10.112-9.454 12.249-10.221 3.4-22.359 3.757-29.386 2.647a9.417 9.417 0 01-7.691-7.349l-1.961-8.759-18.609 3.33z" fill="#0D1C26"/><path d="M114.826 243.336l-.722-6.928a1.96 1.96 0 011.418-1.805l6.101-1.665a1.8 1.8 0 00.952-.652c.236-.317.362-.702.357-1.096v-7.375l2.466-1.914a.454.454 0 00.089-.638l-3.417-4.695c-1.105-1.761-2.07-5.882-3.073-5.665 0 0-22.294-4.626-23.975 5.85a6.373 6.373 0 00.94 4.37l1.705 2.724c1.712 2.736 2.095 15.011 1.329 17.811a6.794 6.794 0 01-2.792 3.892c-1.724 1.155-3.833 2.635-3.507 2.756a31.41 31.41 0 005.82 3.579c6.388 3.081 14.954.402 21.01-3.286.007.013-4.848-3.464-4.701-5.263z" fill="#fff"/><path d="M104.835 254.188a15.353 15.353 0 01-6.733-1.429 32.282 32.282 0 01-6.012-3.7 1.036 1.036 0 01-.377-.638c-.07-.638-.102-.9 3.955-3.618a5.918 5.918 0 002.408-3.349c.747-2.762.281-14.673-1.227-17.059l-1.699-2.724a7.31 7.31 0 01-1.073-5.027 7.423 7.423 0 013.277-5.103c6.388-4.415 19.976-1.914 21.681-1.576 1.278-.064 1.917 1.576 2.722 3.63.306.849.676 1.674 1.105 2.469l3.398 4.669a1.403 1.403 0 01-.274 1.946l-2.096 1.621v6.909a2.777 2.777 0 01-2.006 2.673l-6.107 1.665a1.003 1.003 0 00-.715.861l.715 6.845a.817.817 0 010 .185c-.051.638 2.038 2.794 4.306 4.415a.94.94 0 01.396.81.96.96 0 01-.46.785c-4.254 2.577-9.882 4.74-15.184 4.74zm-10.707-5.991a33.355 33.355 0 004.81 2.839c5.654 2.731 13.224.594 18.871-2.552-1.719-1.365-3.98-3.476-3.935-5.148l-.709-6.826a2.898 2.898 0 012.121-2.826l6.1-1.665a.857.857 0 00.639-.823v-7.381a.943.943 0 01.37-.759l2.013-1.602-3.137-4.299a.281.281 0 010-.058 18.386 18.386 0 01-1.277-2.807 13.963 13.963 0 00-1.112-2.411h-.064c-.14-.032-14.335-2.903-20.359 1.244a5.504 5.504 0 00-2.472 3.827 5.437 5.437 0 00.805 3.713l1.693 2.705c1.916 3.056 2.248 15.617 1.444 18.577a7.828 7.828 0 01-3.195 4.466c-1.341.855-2.14 1.429-2.606 1.786z" fill="#0D1C26"/><path d="M120.696 194.922c-4.784-.542.978 4.74-16.487-1.429-6.957-2.456-3.833 6.009-5.635 5.378-6.669-2.335-6.439-2.265-9.793-1.57-2.223.453-3.87 4.421-3.622 7.471.326 4.019 4.472 10.628 8.062 17.563 1.878 3.598 5.558 4.14 10.355-.74.511-.517-1.725-3.905-.37-5.219 3.526-3.419 4.657 2.144 7.429.638 2.657-1.461 3.782-2.443 6.637-4.727 3.456-2.769 8.669 2.188 10.981-4.37 1.201-3.439-1.009-12.255-7.557-12.995z" fill="#0D1C26"/><path d="M359.541 50.228a45.744 45.744 0 00-15.956 15.62 45.663 45.663 0 0011.715 60.507c.198.146.402.287.639.427l3.896 2.552a45.723 45.723 0 0036.77 3.917c24.077-7.687 37.735-36.102 29.654-57.46-6.305-16.677-13.415-22.897-26.524-28.606-20.084-8.734-40.194 3.043-40.194 3.043z" fill="#fff"/><path d="M381.58 115.611a121.69 121.69 0 00-32.822 4.211 45.546 45.546 0 006.542 5.939c.198.147.402.287.639.428l3.896 2.551a44.329 44.329 0 0028.978 5.61 44.301 44.301 0 0026.069-13.826 117.046 117.046 0 00-33.302-4.913z" fill="#005AEE"/><path d="M382.13 135.79a45.517 45.517 0 01-22.799-6.252l-3.942-2.552a7.417 7.417 0 01-.639-.459 46.37 46.37 0 01-6.675-6.042.934.934 0 01.028-1.304.948.948 0 01.4-.239 122.72 122.72 0 0133.077-4.249 117.978 117.978 0 0133.551 4.918.95.95 0 01.399.24.954.954 0 01.24.398.923.923 0 01-.224.9 45.466 45.466 0 01-19.292 12.395 46.33 46.33 0 01-14.124 2.246zm-31.583-15.458a44.561 44.561 0 005.315 4.638c.185.141.377.268.568.396l3.897 2.552a43.336 43.336 0 0052.728-6.935 116.128 116.128 0 00-31.487-4.402 120.612 120.612 0 00-31.021 3.751zm61.236-34.124c-4.503-16.204-13.785-37.448-31.212-34.832-16.692 2.5-24.549 20.797-28.165 34.985a13.713 13.713 0 002.49 11.776 13.758 13.758 0 0010.823 5.296l32.694.172a13.782 13.782 0 0011.019-5.377 13.729 13.729 0 002.351-12.02z" fill="#0D1C26"/><path d="M397.372 67.388v-.114l-29.711-.204v.07a18.783 18.783 0 00-.639 4.65l-.038 8.677a17.007 17.007 0 006.841 13.926l-.115 22.654a8.15 8.15 0 002.362 5.782 8.175 8.175 0 0011.554.064 8.155 8.155 0 002.425-5.757l.121-22.328a16.941 16.941 0 007.468-14.188l.051-9.787a17.317 17.317 0 00-.319-3.445z" fill="#fff"/><path d="M381.881 126.182h-.032a9.15 9.15 0 01-6.441-2.707 9.124 9.124 0 01-2.643-6.46l.115-21.978a.954.954 0 011.839-.359c.048.116.072.24.071.366l-.115 21.984a7.193 7.193 0 007.174 7.24h.038a7.223 7.223 0 005.085-2.097 7.206 7.206 0 002.127-5.067l.122-22.067a.935.935 0 01.281-.674.944.944 0 01.677-.276.956.956 0 01.958.957l-.121 22.067a9.102 9.102 0 01-2.686 6.421 9.122 9.122 0 01-6.443 2.65h-.006zm.466-38.743a6.886 6.886 0 01-5.008-2.188.945.945 0 01-.256-.319.945.945 0 01-.025-.798.96.96 0 011.68-.159 4.938 4.938 0 003.615 1.576 4.93 4.93 0 003.622-1.556.962.962 0 011.657.635.962.962 0 01-.264.685 6.844 6.844 0 01-5.021 2.124z" fill="#0D1C26"/><path d="M382.302 98.1h-.083a.956.956 0 110-1.914h.077a13.726 13.726 0 0010.087-4.51 16.31 16.31 0 004.293-11.082l.051-9.786a15.721 15.721 0 00-4.018-10.756 13.21 13.21 0 00-9.749-4.466h-.07a14.22 14.22 0 00-10.451 4.67 16.85 16.85 0 00-4.472 11.483l-.025 8.728c-.032 6.137 3.258 11.757 8.375 14.322a.957.957 0 11-.856 1.69c-5.75-2.883-9.468-9.18-9.436-16.044l.051-8.677A18.718 18.718 0 01371.034 59a16.1 16.1 0 0111.85-5.282h.083a15.116 15.116 0 0111.153 5.104 17.585 17.585 0 014.529 12.025l-.051 9.793a18.19 18.19 0 01-4.81 12.376 15.615 15.615 0 01-11.486 5.084z" fill="#0D1C26"/><path d="M406.124 167.668a4.03 4.03 0 01-5.028-2.775l-8.828-30.883 7.819-2.303 8.828 30.883a4.128 4.128 0 01-2.791 5.078z" fill="#3BA6FF"/><path d="M404.98 168.791a4.903 4.903 0 01-2.395-.638 4.927 4.927 0 01-1.506-1.263 4.924 4.924 0 01-.896-1.748l-8.829-30.89a.962.962 0 01.639-1.18l7.813-2.303a.962.962 0 011.194.638l8.829 30.883a5.098 5.098 0 01-.441 3.829 5.11 5.11 0 01-2.996 2.43c-.457.148-.932.23-1.412.242zm-11.498-34.13l8.566 29.984a3.087 3.087 0 002.635 2.229c.405.044.814.006 1.204-.111a3.196 3.196 0 001.858-1.518 3.183 3.183 0 00.276-2.38l-8.56-29.952-5.979 1.748z" fill="#0D1C26"/><path d="M400.477 40.001c-27.239-9.933-57.455 4.287-67.491 31.751-10.036 27.464 3.916 57.767 31.155 67.693 27.239 9.927 57.493-4.293 67.49-31.751 9.998-27.457-3.916-57.773-31.154-67.693zm-33.564 91.866c-23.093-8.415-34.917-34.105-26.414-57.416 8.502-23.311 34.118-35.33 57.211-26.916 23.094 8.415 34.911 34.105 26.409 57.416-8.503 23.311-34.119 35.337-57.206 26.922v-.006z" fill="#3BA6FF"/><path d="M382.021 143.579a53.21 53.21 0 01-18.206-3.234c-27.692-10.093-41.925-41.008-31.73-68.9a53.79 53.79 0 0110.863-17.975 53.871 53.871 0 0116.926-12.454 52.923 52.923 0 0140.928-1.914 52.86 52.86 0 0117.856 10.852 52.773 52.773 0 0112.245 16.918 54.158 54.158 0 011.637 41.153 54.26 54.26 0 01-27.79 30.432 53.315 53.315 0 01-22.729 5.122zm.575-105.798a51.392 51.392 0 00-21.911 4.938 51.928 51.928 0 00-26.798 29.346c-9.838 26.934 3.884 56.752 30.586 66.455a51.008 51.008 0 0039.459-1.824 52.342 52.342 0 0026.793-29.346 52.249 52.249 0 00-1.566-39.68 50.871 50.871 0 00-11.805-16.301 50.951 50.951 0 00-17.21-10.456 51.063 51.063 0 00-17.548-3.132zm-.53 97.741a45.298 45.298 0 01-24.415-7.161 45.212 45.212 0 01-16.686-19.187 46.054 46.054 0 01-1.388-34.995A46.14 46.14 0 01363.208 48.3a45.22 45.22 0 0149.98 7.638 45.11 45.11 0 0110.426 14.371A46.071 46.071 0 01425 105.303a46.155 46.155 0 01-23.623 25.881 45.417 45.417 0 01-19.311 4.338zm.485-89.684a43.41 43.41 0 00-18.525 4.173 44.228 44.228 0 00-22.646 24.802 44.15 44.15 0 001.329 33.539 43.042 43.042 0 0024.511 22.621 43.136 43.136 0 0033.339-1.537 44.247 44.247 0 0022.65-24.804 44.17 44.17 0 00-1.32-33.543 43.3 43.3 0 00-15.966-18.378 43.388 43.388 0 00-23.372-6.873zm139.108 407.308s8.496 9.921 8.356 16.798l.319 2.635 15.472-15.898-2.338-.785c-3.782-2.258-7.704-3.49-10.049-7.215l-11.76 4.465z" fill="#0D1C26"/><path d="M526.987 466.703l.454 3.19c.9 6.354.242 12.832-1.917 18.877l-1.667 4.644a1.42 1.42 0 00.185 1.314l.141.192c1.565 2.143 7.985 3.687 15.612-2.195 4.721-3.636 14.143-13.512 19.976-30.111a2.554 2.554 0 00-.882-2.878c-3.264-2.405-11.281-7.866-17.292-8.165a1.122 1.122 0 00-1.195 1.167l.339 6.424a5.21 5.21 0 01-2.978 4.985 5.222 5.222 0 01-1.98.495l-7.378.351a1.507 1.507 0 00-1.09.539 1.503 1.503 0 00-.328 1.171z" fill="#fff"/><path d="M529.357 497.81a11.292 11.292 0 01-1.591-.109c-1.961-.28-3.558-1.084-4.376-2.201l-.14-.191a2.356 2.356 0 01-.313-2.201l1.661-4.644a38.661 38.661 0 001.916-18.418l-.447-3.19a2.434 2.434 0 011.325-2.52c.304-.152.636-.239.975-.255l7.372-.357a4.272 4.272 0 002.952-1.394 4.243 4.243 0 001.098-3.072l-.339-6.424a2.07 2.07 0 01.601-1.563 2.102 2.102 0 011.597-.638c6.292.313 14.558 5.946 17.816 8.357a3.466 3.466 0 011.214 3.962c-6.842 19.464-18.104 28.861-20.289 30.552-4.586 3.547-8.509 4.306-11.032 4.306zm12.137-45.295a.202.202 0 00-.134.051.124.124 0 00-.031.05.129.129 0 00-.007.058l.338 6.425a6.168 6.168 0 01-1.573 4.475 6.201 6.201 0 01-4.284 2.045l-7.379.35a.54.54 0 00-.479.383.514.514 0 00-.013.217l.448 3.19a40.617 40.617 0 01-1.981 19.336l-1.667 4.638a.464.464 0 00.064.428l.14.197c.39.53 1.406 1.187 3.099 1.429 1.916.281 5.992.153 11.147-3.827 2.114-1.627 12.993-10.712 19.656-29.672a1.553 1.553 0 00-.543-1.786c-3.124-2.303-11.007-7.694-16.775-7.981l-.026-.006z" fill="#0D1C26"/><path d="M524.56 492.693a.958.958 0 01-.435-1.805l.99-.504a20.565 20.565 0 0010.343-12.389l.568-1.914a2.17 2.17 0 011.82-1.533 2.168 2.168 0 012.134 1.054l.991 1.672a.423.423 0 00.345.223.445.445 0 00.389-.153 48.28 48.28 0 009.749-17.467l1.169-3.751a.956.956 0 011.201-.632.966.966 0 01.564.469.958.958 0 01.068.73l-1.169 3.752a50.226 50.226 0 01-10.138 18.156 2.368 2.368 0 01-2.008.803 2.38 2.38 0 01-1.825-1.16l-.958-1.646a.234.234 0 00-.108-.103.236.236 0 00-.148-.019.247.247 0 00-.137.055.24.24 0 00-.08.124l-.562 1.914a22.473 22.473 0 01-4.271 7.926 22.514 22.514 0 01-7.042 5.618l-.991.504a.962.962 0 01-.459.076zm-66.475-13.397s1.22 10.207-2.888 15.228l-1.277 2.131 19.937-1.678-1.035-2.15c-1.833-3.828-3.347-10.041-3.143-14.131l-11.594.6z" fill="#0D1C26"/><path d="M455.606 487.87l-1.917 2.125a35.247 35.247 0 01-14.015 9.352l-4.165 1.486a1.283 1.283 0 00-.792.868l-.051.211c-.582 2.277 1.986 7.527 10.329 9.409 5.015 1.136 16.609 1.972 30.663-2.953a3.905 3.905 0 002.594-3.994c-.313-4.076-1.278-11.33-4.133-15.126a.964.964 0 00-1.094-.327.981.981 0 00-.344.212l-4.21 3.866a4.622 4.622 0 01-3.338 1.213 4.63 4.63 0 01-3.216-1.506l-4.414-4.829a1.312 1.312 0 00-.947-.407 1.322 1.322 0 00-.95.4z" fill="#fff"/><path d="M454.124 513.14a44.126 44.126 0 01-9.327-.881c-6.279-1.422-9.001-4.542-10.061-6.271a5.86 5.86 0 01-.977-4.319l.051-.204c.089-.349.263-.672.505-.939.243-.266.548-.47.887-.592l4.121-1.487a34.326 34.326 0 0013.632-9.097l1.916-2.124a2.276 2.276 0 011.68-.74 2.27 2.27 0 011.68.746l4.415 4.83a3.67 3.67 0 005.193.229l4.21-3.866a1.912 1.912 0 011.482-.519 1.912 1.912 0 011.373.762c3.028 4.006 4.006 11.483 4.319 15.636a4.863 4.863 0 01-3.226 4.97 66.724 66.724 0 01-21.873 3.866zm2.191-24.619l-1.916 2.118a36.286 36.286 0 01-14.418 9.601l-4.121 1.487a.295.295 0 00-.191.21l-.051.204c-.141.549 0 1.582.76 2.839.9 1.474 3.251 4.14 8.854 5.404 2.204.497 14.053 2.698 30.164-2.922a2.954 2.954 0 001.949-3.018c-.294-3.91-1.208-11.011-3.935-14.628l-4.242 3.879a5.584 5.584 0 01-4.027 1.466 5.602 5.602 0 01-3.882-1.817l-4.407-4.829a.377.377 0 00-.269-.122.353.353 0 00-.268.128z" fill="#0D1C26"/><path d="M457.714 505.765h-1.137a2.215 2.215 0 01-2.025-2.96l.594-1.621a.102.102 0 00.021-.063.105.105 0 00-.021-.064.099.099 0 00-.064-.023.103.103 0 00-.064.023l-1.622.644a20.091 20.091 0 01-15.753-.064l-.901-.389a.952.952 0 01-.621-.899.961.961 0 01.627-.895.97.97 0 01.754.04l.907.389a18.205 18.205 0 0014.24.057l1.616-.682a2.045 2.045 0 012.759 1.4c.095.381.077.781-.051 1.152l-.587 1.614a.271.271 0 00.031.268.284.284 0 00.237.127 42.695 42.695 0 0017.427-3.19l3.194-1.32a.964.964 0 01.75-.01.961.961 0 01.527.533.937.937 0 01-.002.731.955.955 0 01-.522.513l-3.194 1.327a44.77 44.77 0 01-17.12 3.362z" fill="#0D1C26"/><path d="M488.728 310.366s8.886 26.379-4.267 45.703c-17.721 26.035-5.315 84.452-13.351 124.242a1.658 1.658 0 01-1.604 1.326l-11.223.23a1.67 1.67 0 01-1.629-1.18c-2.952-9.774-23.081-77.537-21.854-99.521 1.009-18.175 3.877-36.312 11.281-52.95l11.544-25.952 31.103 8.102z" fill="#005AEE"/><path d="M497.729 312.682s11.276 18.162 8.018 38.2a60.21 60.21 0 009.703 43.458c5.162 7.336 14.942 26.041 19.727 54.443a2.27 2.27 0 01-.569 1.914 17.818 17.818 0 01-11.102 5.524 2.3 2.3 0 01-1.853-.638c-4.989-5.001-33.71-34.385-44.755-58.481-12.138-26.43-16.846-71.298-16.846-71.298s26.179 1.149 37.677-13.122z" fill="#005AEE"/><path d="M475.243 397.051a.948.948 0 01-.888-.6c-9.703-24.025-13.479-55.399-10.802-68.541a.955.955 0 01.757-.749.96.96 0 011.123.758.956.956 0 01-.002.373c-2.619 12.842 1.399 44.421 10.7 67.445a.955.955 0 01-.888 1.314z" fill="#3BA6FF"/><path d="M410.627 174.016a3.328 3.328 0 002.127-1.627c1.521-2.762 4.632-9.39 2.869-14.551-2.287-6.693-8.701-11.343-10.062-10.208-1.36 1.136 5.871 14.271.313 18.38 0 0-3.654-.16-6.899-5.742a1.201 1.201 0 00-2.063 0c-.639 1.085-1.169 2.884-.767 5.742.511 3.636 2.709 6.813 4.191 8.599a3.236 3.236 0 003.245 1.079l7.046-1.672z" fill="#fff"/><path d="M402.815 176.734a4.157 4.157 0 01-3.195-1.519c-1.718-2.067-3.877-5.32-4.407-9.071-.364-2.552-.064-4.708.894-6.38a2.153 2.153 0 013.712 0c2.389 4.096 4.906 5.008 5.8 5.206 2.747-2.514.958-8.638-.243-12.759-.901-3.056-1.348-4.587-.409-5.372a2.119 2.119 0 012.025-.268c2.632.74 7.551 5.04 9.583 10.903 1.916 5.55-1.425 12.561-2.939 15.311a4.249 4.249 0 01-2.741 2.099l-7.026 1.671a4.439 4.439 0 01-1.054.179zm-4.875-16.083a.217.217 0 00-.198.108c-.504.862-1.028 2.45-.638 5.104.491 3.483 2.708 6.584 3.986 8.121.27.328.627.573 1.031.707a2.25 2.25 0 001.249.052l7.027-1.671a2.352 2.352 0 001.508-1.155c1.392-2.552 4.472-8.931 2.804-13.78-1.967-5.741-6.861-9.416-8.362-9.722.21 1.116.489 2.217.837 3.298 1.393 4.747 3.494 11.917-.747 15.056l-.269.198h-.338c-.173 0-4.223-.256-7.666-6.208a.237.237 0 00-.096-.087.234.234 0 00-.128-.021z" fill="#0D1C26"/><path d="M430.398 318.615c-2.861-1.608-20.563-12.198-23.68-29.633a.37.37 0 00-.168-.249.362.362 0 00-.299-.038c-3.456 1.02-28.81 7.917-51.232-7.477a.364.364 0 00-.575.312c.166 2.457 8.017 32.402 8.106 33.812a.363.363 0 00.205.3c2.465 1.199 28.586 13.607 50.019 11.164 11.249-1.276 16.475-6.239 17.727-7.604a.375.375 0 00.029-.477.37.37 0 00-.132-.11z" fill="#fff"/><path d="M406.89 328.063c-20.167 0-41.951-10.297-44.589-11.579a1.283 1.283 0 01-.735-1.104c-.07-.638-1.654-6.96-3.194-13.065-2.823-11.26-4.829-19.343-4.925-20.714a1.274 1.274 0 01.639-1.232 1.32 1.32 0 011.412.058c22.218 15.24 47.604 8.197 50.427 7.349a1.322 1.322 0 011.074.14 1.351 1.351 0 01.638.893c3.016 16.855 19.868 27.062 23.208 28.976a1.271 1.271 0 01.639.944 1.308 1.308 0 01-.332 1.104c-1.386 1.525-6.816 6.603-18.321 7.911a52.641 52.641 0 01-5.941.319zm-43.439-13.168c3.948 1.914 28.746 13.283 49.188 10.941 9.723-1.11 14.757-4.976 16.609-6.768-4.567-2.686-20.084-12.893-23.367-29.276-4.887 1.359-28.798 6.941-50.275-7.018.716 3.426 2.939 12.307 4.638 19.075 1.993 7.962 2.951 11.815 3.181 13.046h.026z" fill="#0D1C26"/><path d="M401.39 318.966a.953.953 0 01-.569-.185c-.638-.473-15.612-11.72-16.021-23.228a.948.948 0 01.258-.686.953.953 0 01.668-.303.963.963 0 01.687.258.951.951 0 01.303.667c.377 10.584 15.102 21.646 15.249 21.754a.962.962 0 01.198 1.34.953.953 0 01-.773.383zm-10.745.58a.948.948 0 01-.639-.274c-.453-.44-11.038-10.89-11.76-22.329a.956.956 0 01.897-1.017.962.962 0 011.019.896c.671 10.692 11.077 20.983 11.186 21.085a.956.956 0 010 1.352.935.935 0 01-.703.287zm-24.396-20.178a.964.964 0 01-.843-.498c-.09-.159-2.172-3.943-2.364-6.59a.951.951 0 01.233-.696.963.963 0 011.684.562c.134 1.85 1.584 4.81 2.133 5.799a.958.958 0 01-.377 1.276 1.014 1.014 0 01-.466.147z" fill="#FF4B99"/><path d="M425.984 312.312s-19.164 3.234-24.16.931c-4.995-2.303-4.804-5.658-2.823-7.241 1.533-1.224 11.722-1.314 16.206-1.275a.31.31 0 00.269-.458.305.305 0 00-.16-.136c-2.645-.893-6.803-5.154-5.558-6.475 1.917-2.041 5.06 1.614 8.541 2.552 2.413.694 4.934.939 7.436.721l.249 11.381z" fill="#fff"/><path d="M408.181 315.017c-2.837 0-5.309-.243-6.753-.906-3.73-1.71-4.522-3.879-4.663-5.021a4.247 4.247 0 011.635-3.828c1.195-.95 5.999-1.454 14.291-1.499-1.84-1.32-3.648-3.298-4.038-4.855a1.966 1.966 0 01.403-1.914c1.725-1.837 4.024-.516 6.049.638a15.35 15.35 0 003.444 1.627c2.28.654 4.661.89 7.026.696l1.067-.147.288 13.301-.812.141c-.549.102-10.502 1.767-17.937 1.767zm5.749-9.346c-10.17 0-13.792.669-14.322 1.078a2.342 2.342 0 00-.927 2.105c.16 1.276 1.419 2.552 3.559 3.515 3.711 1.71 16.992.058 22.78-.867l-.205-9.57a23.318 23.318 0 01-6.752-.823 16.691 16.691 0 01-3.903-1.818c-2.012-1.161-3.041-1.646-3.661-1.033-.095.842 2.735 4.14 5.111 4.95a1.273 1.273 0 01.843 1.397 1.276 1.276 0 01-1.277 1.059h-1.278l.032.007zm58.917-88.453c-14.181-1.276-33.058-7.489-43.305-18.067-6.119-6.309-10.795-17.224-15.21-28.07l-15.139 3.496s2.695 71.885 66.557 75.521l7.097-32.88z" fill="#0D1C26"/><path d="M455.862 258.111c2.83 6.163 8.553 23.783-2.945 49.212 0 0 16.353 27.432 54.618 21.856 0 0-5.788-15.432-3.999-38.826 1.789-23.393 8.177-55.502-11.735-66.889 0 0-19.164-11.885-31.902-3.7a12.68 12.68 0 00-4.638 5.41 37.18 37.18 0 00-2.159 24.81l.383 1.48a39.595 39.595 0 002.377 6.647z" fill="#0D1C26"/><path d="M424.01 298.13l.3 16.778s61.722 15.471 81.034-62.653l-29.501-.338s-8.809 34.098-51.833 46.213z" fill="#0D1C26"/><path d="M469.692 309.409a.955.955 0 01-.927-.702.961.961 0 01.435-1.078c14.124-8.402 23.681-19.323 30.069-34.36a.968.968 0 01.519-.541.955.955 0 011.067.216.956.956 0 01.177 1.071c-6.554 15.432-16.36 26.635-30.848 35.26a.987.987 0 01-.492.134zm-16.635-54.303a.953.953 0 01-.907-.638c-3.481-10.558.262-17.18.422-17.46a.959.959 0 011.661.957c-.039.076-3.456 6.22-.262 15.904a.974.974 0 01-.307 1.027.962.962 0 01-.332.178.946.946 0 01-.275.032z" fill="#fff"/><path d="M475.435 179.432a4.5 4.5 0 011.827-3.374c3.194-2.355 10.355-6.437 18.257-2.693 11.141 5.283 13.064 12.121 11.333 21.965-1.214 6.903-7.474 15.407-12.994 16.032-7.959.906-11.907-5.608-11.907-5.608l-6.638-24.134.122-2.188z" fill="#0D1C26"/><path d="M504.635 188.051l-1.316-7.981s7.666-4.465 15.006-2.092c7.48 2.392 14.603 11.713 10.649 25.358-2.051 7.088 3.047 11.822 7.467 18.265a37.983 37.983 0 003.016 4.013c8.604 9.448 4.529 18.679 4.529 18.679a18.433 18.433 0 00-2.492-4.81c-.766 12.759-12.201 22.864-24.377 23.304-11.498.415-23.559-9.614-24.754-18.883-1.162-8.995 3.348-20.823 9.193-29.346s16.36-19.649 3.079-26.507z" fill="#0D1C26"/><path d="M507.784 262.838c-.115 0-.229-.019-.338-.057-8.695-3.298-15.721-10.922-16.648-18.124a28.09 28.09 0 01.115-7.362.967.967 0 111.917.261 25.903 25.903 0 00-.115 6.858c.83 6.437 7.455 13.563 15.421 16.587a.963.963 0 01.555 1.238.959.959 0 01-.907.599zm-31.238-83.489s-2.695 3.522-2.976 6.744c-.211 2.405-2.958 4.65-4.51 5.409a.745.745 0 00-.382.854.73.73 0 00.158.295l1.137 1.231a1.82 1.82 0 01.364 1.722c-.639 2.08-2.006 6.941-1.552 8.441.754 2.462 7.768 2.762 9.263 2.87.153 0-3.022 10.584-3.022 10.584-.965 2.622-.997 4.651.045 6.603 1.967 3.694 9.307 6.201 13.364 4.574a6.247 6.247 0 002.44-2.896c.6-2.016 1.769-14.106 1.769-14.106s-2.868-1.027-4.695-5.014c-1.578-3.445-1.801-7.387-.76-8.242 2.389-1.946 4.248-3.994 2.913-6.66-1.278-2.552-3.743-1.838-5.066-1.11-1.814 1.007-6.924-2.004-7.665-7.018-.742-5.014-.825-4.281-.825-4.281z" fill="#fff"/><path d="M485.503 230.099c-4.338 0-9.583-2.367-11.282-5.576-1.15-2.163-1.182-4.466-.096-7.388.869-2.909 2.198-7.394 2.734-9.378-3.935-.299-8.247-1.02-8.988-3.464-.536-1.754.741-6.379 1.553-9.001a.863.863 0 00-.173-.81l-1.124-1.212a1.722 1.722 0 01-.403-1.468 1.684 1.684 0 01.914-1.186c1.278-.638 3.801-2.661 3.98-4.638.262-2.986 2.338-6.099 2.983-7.018v-.574l.875-.083c.869-.045 1.035.759 1.176 1.467.14.709.351 1.965.638 3.675a8.297 8.297 0 004.37 5.952c.932.459 1.648.504 1.916.357.639-.357 2.345-1.142 4.012-.638a3.98 3.98 0 012.383 2.144c1.865 3.732-1.533 6.501-3.194 7.834-.454.447-.543 3.681 1.022 7.1 1.616 3.522 4.05 4.466 4.152 4.511l.69.255-.064.734c-.121 1.244-1.194 12.242-1.801 14.283-.364 1.225-1.968 3.101-3.003 3.516a8.899 8.899 0 01-3.27.606zm-15.754-37.901l.927 1.008a2.756 2.756 0 01.575 2.654c-1.15 3.719-1.802 7.017-1.546 7.878.153.504 1.239 1.716 8.049 2.169l.824.058.262.383c.338.491.364.529-2.9 11.393-.908 2.482-.908 4.224 0 5.876 1.737 3.266 8.56 5.588 12.137 4.14a5.701 5.701 0 001.878-2.284c.447-1.486 1.278-9.531 1.667-13.263a11 11 0 01-4.542-5.18c-1.577-3.438-2.152-8.032-.498-9.384 2.805-2.284 3.526-3.77 2.664-5.493a2.098 2.098 0 00-1.227-1.174 3.681 3.681 0 00-2.516.472c-.92.511-2.23.402-3.686-.312a10.213 10.213 0 01-5.424-7.381 186.38 186.38 0 00-.307-1.959 11.624 11.624 0 00-1.565 4.345c-.236 2.692-2.951 5.059-4.772 6.054z" fill="#0D1C26"/><path d="M485.132 199.681a4.322 4.322 0 01-2.472-.804.96.96 0 01-.422-.616.958.958 0 011.508-.96c1.718 1.187 3.519-.159 4.727-1.499a.96.96 0 011.632.599.953.953 0 01-.208.677c-1.546 1.716-3.194 2.603-4.765 2.603zM251.94 104.128a.95.95 0 01-.952-.963v-2.628a.96.96 0 01.959-.95.964.964 0 01.951.962v2.629a.958.958 0 01-.958.95zm-.083 12.594a.96.96 0 01-.952-.964v-2.628a.968.968 0 01.958-.951.964.964 0 01.882.597.958.958 0 01.07.367v2.628a.955.955 0 01-.592.88.973.973 0 01-.366.071zm-7.57-7.547a.955.955 0 01-.677-.281.954.954 0 01.677-1.633h2.632a.958.958 0 110 1.914h-2.632zm12.61-.09a.958.958 0 110-1.914h2.632a.96.96 0 01.678 1.634.962.962 0 01-.678.28h-2.632zm-33.231-21.167a.943.943 0 01-.677-.287l-1.852-1.87a.956.956 0 011.05-1.569.948.948 0 01.31.224l1.853 1.869a.958.958 0 010 1.352.978.978 0 01-.684.28zm8.867 8.957a.964.964 0 01-.683-.287l-1.847-1.87a.956.956 0 01.692-1.606.96.96 0 01.669.26l1.853 1.87a.964.964 0 01-.684 1.633zm-10.713 0a.97.97 0 01-.88-.592.96.96 0 01.197-1.041l1.852-1.87a.97.97 0 01.683-.307.963.963 0 01.908.594.945.945 0 01-.01.748.94.94 0 01-.22.312l-1.853 1.869a.947.947 0 01-.677.287zm8.86-8.957a.962.962 0 01-.931-1.144.967.967 0 01.254-.49l1.847-1.869a.959.959 0 011.367 1.347l-1.853 1.869a.953.953 0 01-.684.287zM534.442 69.168c2.738 0 4.957-2.242 4.957-5.008 0-2.765-2.219-5.007-4.957-5.007s-4.957 2.242-4.957 5.008c0 2.765 2.219 5.007 4.957 5.007z" fill="#FF4B99"/></svg>