<svg width="98px" height="104px" viewBox="0 0 98 104" version="1.1" xmlns="http://www.w3.org/2000/svg" xmlns:xlink="http://www.w3.org/1999/xlink">
	<g id="Pressure" transform="translate(-11.000000, -9.000000)">
		<circle id="BG-Circle" fill="#EDEFF3" fill-rule="nonzero" cx="59.906" cy="63.537508" r="48.906"></circle>
		<path d="M28.5726131,82.7771436 L60.244492,65.114948 L91.6452328,82.6268996 C94.5730408,84.1883972 96.3652142,87.0748019 96.4711422,90.368429 L96.4763821,90.6783716 L96.4763821,96.0098936 C87.5178965,106.0916 74.4537321,112.443508 59.906,112.443508 C45.7200928,112.443508 32.9448737,106.403634 24.0116314,96.7551749 L24.012868,90.6783716 C24.012868,87.3601892 25.7163199,84.4205517 28.5726131,82.7771436 L28.5726131,82.7771436 Z" id="Camera-Stand" fill="#D4DCE6" fill-rule="nonzero"></path>
		<circle id="Color" cx="60.244492" cy="45" r="36" fill="#ff4d5b"></circle>
		<path d="M60.244492,22.858452 C71.0979347,22.858452 80.1274565,30.6675853 82.0208375,40.9736319 L96.270228,40.974264 L96.270228,49.025736 L82.0208375,49.0263681 C80.1274565,59.3324147 71.0979347,67.141548 60.244492,67.141548 C49.3910493,67.141548 40.3615275,59.3324147 38.4681465,49.0263681 L24.218756,49.025736 L24.218756,40.974264 L38.4681465,40.9736319 C40.3615275,30.6675853 49.3910493,22.858452 60.244492,22.858452 Z" id="Camera" fill="#FFFFFF" fill-rule="nonzero"></path>
		<path d="M55.212322,33.1240788 L55.212322,33.1240788 C60.244492,30.909924 66.4843828,32.1176448 70.308832,36.948528 C72.7242736,39.7665432 73.5294208,43.7922792 72.9255604,47.4154416 C71.315266,56.070774 62.0560732,60.09651 54.8097484,56.6746344 C48.3685708,53.6553324 45.7518424,45.8051472 48.7711444,39.5652564 L48.7711444,39.5652564 C52.5955936,40.7729772 56.4200428,37.1498148 55.212322,33.1240788 Z" id="Lens" fill="#000F38" fill-rule="nonzero"></path>
	</g>
</svg>