<svg width="102px" height="100px" viewBox="0 0 102 100" version="1.1" xmlns="http://www.w3.org/2000/svg" xmlns:xlink="http://www.w3.org/1999/xlink">
	<g id="Simulate" transform="translate(-8.000000, -13.000000)">
		<circle id="BG-Circle" fill="#EDEFF3" fill-rule="nonzero" cx="57.478" cy="63.354" r="48.906"></circle>
		<path d="M95.776,43.62 C97.8352,43.62 99.52,45.3091875 99.52,47.37375 L99.5209253,88.3525632 C95.8927453,94.4413595 90.9794488,99.6753623 85.1552724,103.680335 L29.8007276,103.680335 C24.849427,100.275592 20.5564368,95.9826056 17.1516895,91.0313082 L17.152,47.37375 C17.152,45.3091875 18.8368,43.62 20.896,43.62 L95.776,43.62 Z" id="Laptop-Screen" fill="#D4DCE6" fill-rule="nonzero"></path>
		<path d="M41.704,98.532 C41.704,100.689257 43.3672,102.454286 45.4,102.454286 L45.4,102.454286 L71.272,102.454286 C73.3048,102.454286 74.968,100.689257 74.968,98.532 L74.968,98.532 L91.4531659,98.5319682 C82.6549552,107.031194 70.6771042,112.26 57.478,112.26 C44.2789619,112.26 32.3011647,107.031246 23.5029662,98.5320958 Z" id="Laptop-Bottom" fill="#000F38" fill-rule="nonzero"></path>
		<path d="M40.8767955,18.3292021 C49.3762506,20.1949362 55.1807565,28.2797837 55.1807565,36.9865425 L55.1807565,39.6814917 C57.4705708,39.6814917 59.3268321,41.537753 59.3268321,43.8275674 C59.3268321,46.1173817 57.4705708,47.973643 55.1807565,47.973643 L55.0225807,47.9706814 C54.0399175,55.6536063 48.5592255,62.2695746 40.8767955,64.143338 C29.3705102,66.6786212 19.1484971,58.7562598 17.9776512,47.970551 L17.8660756,47.973643 C15.5762613,47.973643 13.72,46.1173817 13.72,43.8275674 C13.72,41.6071413 15.4654652,39.7943905 17.6591447,39.6865658 L17.8660756,39.6814917 L17.8660756,36.571935 C17.8660756,24.7556194 28.6458723,15.634253 40.8767955,18.3292021 Z M42.5352258,52.1197187 L30.5116064,52.1197187 C29.889695,52.1197187 29.2677837,52.74163 29.4750875,53.3635414 C30.0969988,56.8877057 32.9992518,59.375351 36.5234161,59.375351 C40.0475804,59.375351 42.9498333,56.6804019 43.5717447,53.3635414 C43.5717447,52.7830908 43.2105754,52.2026402 42.6567825,52.1278265 L42.5352258,52.1197187 Z" id="Face" fill="#FFFFFF" fill-rule="nonzero"></path>
		<path d="M105.661474,21.312 C107.877221,21.312 109.702313,23.0869333 109.81089,25.2981297 L109.816,25.5066667 L109.816,50.2933333 C109.816,52.5304889 108.058052,54.3732148 105.868015,54.4828409 L105.661474,54.488 L74.8637895,54.488 L68.632,60.78 L68.632,25.5066667 C68.632,23.2695111 70.3899483,21.4267852 72.579985,21.3171591 L72.7865263,21.312 L105.661474,21.312 Z M52.6931111,22.4752778 C52.8496149,22.9447892 53.0061187,23.4143007 53.0734235,23.8838121 C55.5369571,27.133618 57.0578238,31.1383209 57.2361453,35.4995902 L57.2537943,35.5354161 L57.2387399,35.5655811 C57.2487465,35.8306533 57.2537943,36.097033 57.2537943,36.3646312 L57.2537943,40.2360606 C56.7115798,39.9225443 56.0919772,39.7282124 55.430643,39.6888981 L55.1807565,39.6814917 L53.1077187,39.6814917 L53.1134549,39.5156693 L53.1137282,39.381521 C53.1044424,38.3653061 52.830943,34.9615321 49.7692578,32.1879916 C48.3062972,33.4247169 46.4407403,34.2066025 44.4009598,34.2915934 C41.0840993,34.4988972 37.9745425,32.8404669 36.3161123,30.1455177 C35.4868972,30.9747329 34.2430745,31.5966442 32.9992518,31.5966442 C31.2096701,31.5966442 29.4200885,30.8242023 28.2973291,29.412683 C20.3514557,32.0062725 20.106674,38.2574385 20.1364932,39.4742543 L17.8651265,39.4733839 L17.8660756,39.6814917 L17.6591447,39.6865658 C16.9809213,39.7199021 16.3455414,39.9162074 15.7913424,40.2371441 L15.7930378,36.7792388 C15.7930378,32.7810261 16.9227572,28.9285837 18.9224442,25.6344585 L15.1711265,20.1949362 L15.4285223,19.9917123 L15.8369821,19.6907991 C18.0160878,18.1347777 25.4953369,13.4913104 37.559935,13.1466076 C47.9251241,12.9393038 51.6565922,18.9511135 52.6931111,22.4752778 Z" id="Color" fill="#ff4d5b"></path>
		<path d="M88.4105336,43.5545643 C89.4513583,43.5545643 90.2951135,44.3983194 90.2951135,45.4391441 C90.2951135,46.4799688 89.4513583,47.323724 88.4105336,47.323724 C87.3697089,47.323724 86.5259538,46.4799688 86.5259538,45.4391441 C86.5259538,44.3983194 87.3697089,43.5545643 88.4105336,43.5545643 Z M89.658385,28.0938682 L89.888588,28.1332883 L89.9983593,28.1572785 C92.1812403,28.7029987 94.027658,30.5494164 94.5930498,32.8197787 C95.2398773,36.053916 93.4133112,39.0071505 90.5410096,39.9985274 L90.295,40.077 L90.2951135,41.6699845 L86.5259538,41.6699845 L86.5259538,36.5816189 L88.4105336,36.5816189 C90.0739273,36.5816189 91.2241963,35.1945298 90.9167563,33.6464529 C90.7216516,32.8660341 90.013369,32.1211694 89.2396808,31.8596311 L89.133,31.828 L89.0088657,31.8080973 C87.3556015,31.5861036 86.0563361,32.5993063 85.9656402,33.9771186 L85.9605798,34.1316651 L82.1914202,34.1316651 C82.1914202,30.2882772 85.6773522,27.4768139 89.658385,28.0938682 Z" id="Question" fill="#FFFFFF" fill-rule="nonzero"></path>
	</g>
</svg>